<svg id="Lager_1" data-name="Lager 1" xmlns="http://www.w3.org/2000/svg" width="30mm" height="34mm" viewBox="0 0 85.0394 96.378"><defs><style>.cls-1{fill:#f1f0eb;}.cls-2,.cls-3{fill:none;}.cls-2{stroke:#000;stroke-miterlimit:10;}.cls-4{fill:#020202;}</style></defs><title>iconsM2</title><g id="UlrBlw"><path class="cls-1" d="M39.5552,46.1266l-.5616.7577c-.0829-.1825-.2819-.4227-.2256-.5359a3.5851,3.5851,0,0,1,.592-.7024Z"/><path class="cls-2" d="M42.59,93.93,2.9286,71.0328V25.2359L42.59,2.491,82.2523,25.2389V71.0357l-.25.1436ZM3.9286,70.4547,42.59,92.776,81.2523,70.4576V25.818L42.59,3.6436,3.9286,25.815Z"/><polyline class="cls-3" points="81.253 25.862 42.088 48.467 2.93 25.859"/><polygon points="42.088 49.044 2.679 26.292 3.179 25.425 42.088 47.89 81.003 25.428 81.503 26.294 42.088 49.044"/><rect x="41.5892" y="48.2108" width="1" height="45.2192"/><polygon class="cls-4" points="2.502 70.488 3.065 25.859 41.66 47.879 41.663 93.098 2.502 70.488"/></g></svg>