<svg id="Lager_1" data-name="Lager 1" xmlns="http://www.w3.org/2000/svg" xmlns:xlink="http://www.w3.org/1999/xlink" width="85" height="96.4" viewBox="0 0 85 96.4"><defs><style>.cls-1,.cls-2,.cls-3{stroke:#000;stroke-linejoin:round;}.cls-1,.cls-2{stroke-width:2px;}.cls-1{fill:url(#Namnlös_övertoning_2);}.cls-2{stroke-linecap:round;fill:url(#Namnlös_övertoning_2-2);}</style><linearGradient id="Namnlös_övertoning_2" x1="33.0472" y1="60.8443" x2="80.1343" y2="60.8443" gradientTransform="translate(2.7836 -1.1634) rotate(9.0669)" gradientUnits="userSpaceOnUse"><stop offset="0" stop-color="#fff"/><stop offset="1"/></linearGradient><linearGradient id="Namnlös_övertoning_2-2" x1="56.6913" y1="46.9286" x2="80.1343" y2="46.9286" xlink:href="#Namnlös_övertoning_2"/></defs><title>stilmallRityta 3</title><path d="M51.89,32.6742a2.1219,2.1219,0,0,1,1.4281.4045c.55.5949.4558,2.4879-.9948,5.3757a38.4069,38.4069,0,0,1-8.1876,10.2981c-6.1915,5.7242-12.0725,8.3315-14.9166,8.3315a2.1226,2.1226,0,0,1-1.4281-.4045c-1.2154-1.3147.924-8.0386,9.1825-15.6738,6.1915-5.7243,12.0725-8.3315,14.9165-8.3315m0-2c-3.922,0-10.3062,3.3452-16.2743,8.8629-7.86,7.2671-12.0208,15.55-9.2932,18.5a3.7892,3.7892,0,0,0,2.8966,1.0468c3.9221,0,10.3063-3.3453,16.2743-8.863,7.86-7.2671,12.0209-15.55,9.2932-18.5A3.789,3.789,0,0,0,51.89,30.6742Z"/><path class="cls-1" d="M71.267,78.1991,26.8908,57.4782Z"/><line class="cls-2" x1="54.6254" y1="33.7205" x2="71.267" y2="78.1991"/><path class="cls-3" d="M21.3234,11.7734l2.6237,3.3451.1254.1447.19-.0019,4.2587-.2685-2.3728,3.5407-.1188.1581.0747.1744L27.68,22.8308,23.5742,21.66l-.183-.0565-.1446.1254-3.2858,2.7253-.1555-4.2636-.0018-.19-.1725-.0968L16.0328,17.62l4.0061-1.47.1743-.0747.0566-.1829,1.0536-4.1187m-.1723-.8192-1.24,4.8611L15.2,17.5477l4.2334,2.6834.1812,5.0185,3.8683-3.2089,4.8295,1.36-1.8521-4.648,2.7935-4.1615-5.01.3125-3.093-3.95Z"/><path class="cls-3" d="M14.1435,35.6694l2.6966.68.1229.0246.0974-.0769,2.0954-1.8442.19,2.7816.0018.1293.1085.06,2.4025,1.42-2.5922,1.0384-.1173.044-.0246.1228-.6084,2.7254-1.7876-2.1431-.0769-.0974-.128.019-2.7761.259,1.4836-2.3645.06-.1085-.044-.1173-1.1043-2.5523m-.4171-.3548,1.3053,3.0109-1.7433,2.7826,3.2643-.3071,2.1033,2.5234.716-3.2089,3.0428-1.23-2.8192-1.6626-.2214-3.2712-2.4663,2.1677-3.1815-.8046Z"/><path class="cls-3" d="M27.9207,26.7255l3.8421.9572.175.0346.1383-.11,2.9761-2.634.2821,3.96.0031.1842.1547.0854,3.4263,2.0124-3.6867,1.4886-.1668.0631-.0346.1751-.8554,3.8827L31.6212,33.78l-.11-.1384-.1821.0276-3.9515.38,2.1029-3.3724.0854-.1547-.0631-.1668-1.5822-3.63m-.5954-.5034,1.87,4.2817-2.4711,3.9688,4.6464-.45,3.0046,3.5844,1.0068-4.5715L39.71,31.2717l-4.0206-2.3561-.3281-4.6566-3.503,3.0961-4.533-1.133Z"/></svg>