<svg id="Lager_1" data-name="Lager 1" xmlns="http://www.w3.org/2000/svg" width="30mm" height="34mm" viewBox="0 0 85.0394 96.378"><title>iconsSpecial</title><path d="M43.6616,9.6459,53.7951,30.1786l.4654.9429,1.0405.1512L77.96,34.5653,61.5639,50.5478l-.753.7339.1778,1.0363,3.8706,22.5677-20.267-10.655-.9307-.4893-.9306.4893L22.464,74.8857,26.3346,52.318l.1778-1.0363-.753-.7339L9.3631,34.5653l22.6592-3.2926,1.0405-.1512.4654-.9429L43.6616,9.6459m0-4.5191L31.7347,29.2935,5.0652,33.1688,24.3634,51.98,19.8077,78.5417,43.6616,66.0009l23.854,12.5408L62.96,51.98,82.2581,33.1688,55.5886,29.2935,43.6616,5.1268Z"/></svg>