<?xml version="1.0" standalone="no"?>
<!DOCTYPE svg PUBLIC "-//W3C//DTD SVG 20010904//EN"
 "http://www.w3.org/TR/2001/REC-SVG-20010904/DTD/svg10.dtd">
<svg version="1.0" xmlns="http://www.w3.org/2000/svg"
 width="700.000000pt" height="700.000000pt" viewBox="0 0 700.000000 700.000000"
 preserveAspectRatio="xMidYMid meet">
<metadata>
Created by potrace 1.11, written by Peter Selinger 2001-2013
</metadata>
<g transform="translate(0.000000,700.000000) scale(0.100000,-0.100000)"
fill="#000000" stroke="none">
<path d="M3327 6694 c-1 -1 -47 -4 -102 -8 -55 -3 -111 -8 -125 -10 -14 -3
-47 -7 -75 -11 -81 -9 -164 -24 -260 -46 -49 -12 -97 -22 -107 -24 -56 -11
-276 -82 -375 -121 -339 -133 -685 -340 -948 -567 -91 -79 -284 -273 -361
-362 -205 -238 -394 -542 -522 -840 -93 -219 -185 -517 -207 -680 -3 -22 -8
-47 -10 -55 -2 -8 -6 -28 -9 -45 -2 -16 -7 -48 -11 -70 -3 -22 -8 -65 -10 -95
-3 -30 -7 -82 -10 -115 -8 -87 -8 -366 -1 -465 10 -126 20 -208 42 -335 94
-541 323 -1051 662 -1475 219 -273 481 -513 769 -703 409 -270 910 -457 1378
-512 28 -4 57 -8 65 -10 61 -16 444 -22 600 -10 436 33 853 148 1240 343 319
161 584 354 845 616 333 333 571 697 740 1131 69 177 146 450 170 605 4 25 9
52 10 61 2 9 6 38 9 65 4 27 9 65 11 84 25 192 25 585 0 742 -2 13 -6 46 -9
73 -5 49 -39 235 -51 285 -3 14 -8 35 -11 47 -12 60 -77 272 -110 360 -324
871 -998 1565 -1854 1911 -155 62 -405 140 -510 158 -14 3 -33 7 -42 10 -10 3
-28 7 -40 9 -13 2 -50 8 -83 14 -33 6 -82 13 -110 16 -27 3 -61 8 -75 10 -76
13 -501 29 -513 19z m328 -249 c515 -22 1051 -202 1507 -506 367 -244 704
-600 928 -979 217 -366 368 -824 405 -1225 4 -38 9 -83 11 -100 7 -43 7 -380
0 -447 -3 -32 -8 -84 -12 -115 -3 -32 -7 -69 -9 -83 -89 -566 -285 -1025 -621
-1456 -126 -162 -310 -351 -464 -476 -98 -78 -303 -226 -330 -236 -8 -3 -17
-8 -20 -12 -8 -10 -123 -72 -245 -133 -171 -84 -378 -161 -574 -213 -72 -19
-335 -66 -434 -78 -116 -14 -579 -16 -632 -3 -11 2 -47 8 -80 11 -101 11 -315
54 -428 86 -657 184 -1227 577 -1631 1123 -325 440 -527 959 -583 1502 -10 98
-11 504 -1 600 10 92 27 216 32 224 2 3 7 29 10 56 4 28 18 93 31 145 14 52
27 104 30 115 13 54 72 222 112 320 94 231 221 456 375 663 68 92 81 108 178
217 251 281 593 539 925 699 187 90 424 178 570 212 6 1 40 9 78 18 37 9 79
18 95 21 15 3 36 7 47 9 30 6 164 26 215 32 25 2 108 7 185 11 77 3 141 7 143
8 2 2 15 1 30 0 15 -2 86 -6 157 -10z"/>
<path d="M2140 4406 l0 -951 -61 65 c-76 81 -139 149 -299 320 -69 74 -159
169 -200 212 l-75 78 -81 -78 c-45 -42 -102 -96 -128 -120 -25 -24 -46 -46
-46 -50 0 -5 15 -24 33 -43 32 -35 241 -259 307 -329 19 -20 80 -86 135 -145
120 -129 155 -167 207 -221 l39 -40 -168 -166 c-92 -91 -220 -216 -283 -278
-390 -381 -430 -423 -417 -439 21 -28 232 -241 237 -241 7 0 138 127 520 503
l275 270 3 -561 c2 -526 3 -562 20 -563 9 0 41 -2 69 -2 l53 -2 1 40 c0 22 0
277 0 568 1 457 5 561 21 518 2 -5 37 -45 78 -88 41 -43 129 -137 195 -207 66
-71 129 -139 140 -151 11 -11 49 -52 85 -91 224 -240 219 -235 238 -216 10 9
69 64 130 121 62 57 112 106 112 110 0 6 -40 49 -169 186 -76 82 -293 313
-341 365 -18 19 -82 88 -142 152 -61 65 -119 127 -128 138 -18 21 -15 24 203
240 122 120 287 282 367 359 l145 141 30 -32 c16 -18 83 -99 148 -181 65 -81
124 -153 130 -160 7 -6 57 -68 112 -137 54 -69 102 -127 105 -130 3 -3 50 -61
105 -130 55 -69 102 -127 105 -130 3 -3 24 -27 45 -55 22 -27 48 -59 57 -70
20 -24 288 -355 327 -403 14 -18 31 -39 36 -45 6 -7 38 -46 70 -87 33 -41 65
-80 70 -86 6 -6 24 -28 42 -50 160 -197 358 -442 373 -462 19 -24 23 -24 162
-24 79 0 151 1 160 1 17 1 18 105 18 1864 l0 1863 -62 1 c-35 1 -67 -3 -73 -7
-7 -6 -10 -561 -9 -1634 0 -894 -2 -1626 -6 -1626 -6 0 -50 53 -208 249 -29
36 -58 73 -65 81 -7 8 -79 98 -162 200 -82 102 -171 212 -198 245 -27 33 -54
67 -60 75 -56 71 -392 486 -396 490 -4 3 -60 73 -126 155 -98 122 -257 320
-318 395 -7 8 -57 71 -112 140 -55 69 -102 127 -105 130 -3 3 -23 28 -45 55
-22 28 -44 55 -50 61 -5 6 -80 98 -165 204 -85 106 -262 326 -394 489 l-239
296 -188 1 -189 1 0 -951z m421 217 c150 -186 306 -378 346 -426 40 -48 73
-91 73 -96 0 -8 -172 -180 -435 -436 -77 -75 -168 -164 -202 -197 l-61 -61 0
777 c0 427 1 776 3 776 1 0 126 -152 276 -337z"/>
</g>
</svg>
