<svg id="Lager_1" data-name="Lager 1" xmlns="http://www.w3.org/2000/svg" width="3cm" height="3.4cm" viewBox="0 0 85.0394 96.378"><defs><style>.cls-1{fill:#020202;}.cls-1,.cls-2{stroke:#000;stroke-miterlimit:10;stroke-width:2px;}.cls-2{fill:#fff;}</style></defs><title>nomadStaff</title><g id="UlrBlw"><g id="_0HboQM.tif" data-name="0HboQM.tif"><g id="_0HboQM.tif-2" data-name="0HboQM.tif"><path class="cls-1" d="M48.9716,80.3241l-11.35-.06c-.0638-.81-.1439-1.6051-.1864-2.4021q-.5568-10.4344-1.0922-20.87c-.0287-.5676-.1558-.834-.7939-.9476A4.1416,4.1416,0,0,1,32.0647,51.84q.0129-6.8856.075-13.7712A5.2613,5.2613,0,0,1,36.9809,33.18q6.5433-.0416,13.0872.0669a5.2277,5.2277,0,0,1,4.8065,4.8184c.0258,4.6877-.0094,9.3763-.0745,14.0638A4.0473,4.0473,0,0,1,51.4059,56.1c-.8088.1263-.9.5092-.94,1.1529Q49.81,67.8773,49.125,78.5C49.0879,79.0818,49.0278,79.6624,48.9716,80.3241Z"/><path class="cls-1" d="M49.9427,21.9407a6.3506,6.3506,0,1,1-6.3413-6.374A6.3543,6.3543,0,0,1,49.9427,21.9407Z"/></g><path class="cls-2" d="M50.0388,79.7343l-11.35-.0605c-.0638-.81-.1439-1.6051-.1864-2.4021q-.5568-10.4344-1.0922-20.87c-.0287-.5675-.1558-.8339-.7939-.9475A4.1415,4.1415,0,0,1,33.1319,51.25q.0129-6.8858.075-13.7712a5.2613,5.2613,0,0,1,4.8412-4.889q6.5433-.0414,13.0872.067a5.2275,5.2275,0,0,1,4.8064,4.8183c.0258,4.6878-.0094,9.3764-.0744,14.0639a4.0474,4.0474,0,0,1-3.3942,3.971c-.8089.1262-.9.5092-.94,1.1528Q50.8768,67.2874,50.1921,77.91C50.1551,78.4919,50.095,79.0726,50.0388,79.7343Z"/><path class="cls-2" d="M51.01,21.3508a6.3505,6.3505,0,1,1-6.3412-6.374A6.3544,6.3544,0,0,1,51.01,21.3508Z"/></g></g></svg>