<svg id="Lager_1" data-name="Lager 1" xmlns="http://www.w3.org/2000/svg" width="3cm" height="3.4cm" viewBox="0 0 85.0394 96.378"><title>nomadFitting</title><g id="UlrBlw"><g id="VFiJIp"><path d="M40.2174,49.4529l-3.4485,3.0907c.2549.28.4355.476.6139.6742a2.1073,2.1073,0,0,1-.0417,3.2352,5.325,5.325,0,0,1-.9794.9451c-.43.2582-1.09.6482-1.4088.4911-1.5017-.7405-2.12.4041-2.9114,1.1918Q27.014,64.0879,22.0029,69.1116C20.5258,70.5861,19.5745,70.58,18.09,69.1c-.9181-.9154-1.8425-1.8248-2.7462-2.7541a2.1433,2.1433,0,0,1,.0119-3.4628q5.585-5.5635,11.1708-11.1261c.3268-.326.7351-.555.4105-1.2148-.6928-1.4082.242-2.3736,1.7042-3.5331.86-.6821,1.9578-.4548,2.9289.45.152.1415.3083.2784.4442.4008l3.241-3.2608a3.5064,3.5064,0,0,0-.3177-.4094c-2.2021-2.2081-4.4191-4.4015-6.6046-6.626A1.0576,1.0576,0,0,0,27.06,37.262a9.301,9.301,0,0,1-12.2686-7.6711c-.063-.4578.0624-1.2058.3592-1.3815a1.92,1.92,0,0,1,1.5108.0966c1.1443.52,2.2283,1.1716,3.3389,1.7661,1.34.7175,2.3014.6523,3.27-.5055a6.1024,6.1024,0,0,0,1.1584-2.3909A2.0632,2.0632,0,0,0,23.2632,24.73c-1.3263-.7094-2.6317-1.4585-3.938-2.2048-1.2042-.6879-1.2382-1.5014-.0621-2.1733a9.0191,9.0191,0,0,1,9.3986-.0989,8.6588,8.6588,0,0,1,4.7024,8.0033,3.9874,3.9874,0,0,0,1.3995,3.2357c2.3287,2.2187,4.5638,4.5356,6.905,6.8813,1.4214-1.4324,2.7678-2.8021,4.1284-4.1575,2.16-2.1513,4.2863-4.338,6.5114-6.4195,1.08-1.01,1.8831-2.0376,1.65-3.594-.18-1.2009.4571-1.8228,1.4468-2.3644,1.9023-1.0408,3.7587-2.1694,5.6-3.317a1.3849,1.3849,0,0,1,2.0248.2283c.9792,1.05,2.0086,2.0546,3.0421,3.0522a1.2018,1.2018,0,0,1,.2343,1.68c-1.3155,2.19-2.581,4.4111-3.9446,6.57a1.6432,1.6432,0,0,1-1.2815.6463,5.13,5.13,0,0,0-4.4536,1.951c-3.0093,3.132-6.1372,6.15-9.2244,9.207-.3463.3429-.7395.6383-1.17,1.0064.385.4129.6314.6934.8947.9569,2.5753,2.5783,5.1653,5.1422,7.72,7.7408a1.2052,1.2052,0,0,0,1.4442.3717,9.2835,9.2835,0,0,1,11.772,5.826c.1534.4323.19,1.1893-.06,1.4116a1.9572,1.9572,0,0,1-1.5137.2551c-1.5014-.3236-2.9747-.7773-4.4607-1.1741a2.5141,2.5141,0,0,0-3.394,1.5672c-1.0368,2.1554-.2385,3.9259,2.0547,4.5458,1.3843.3742,2.786.693,4.1486,1.1336.48.1551,1.1355.5389,1.221.9264.0861.3905-.3346,1.0286-.708,1.363a9.35,9.35,0,0,1-15.477-7.7592,1.7207,1.7207,0,0,0-.5765-1.547c-2.8676-2.8307-5.7074-5.69-8.5581-8.5375C40.5183,49.7229,40.2851,49.5163,40.2174,49.4529ZM17.2953,31.0316a7.1952,7.1952,0,0,0,9.6489,4.1135,1.62,1.62,0,0,1,2.0786.228q11.2,11.25,22.4447,22.4568a1.7292,1.7292,0,0,1,.5269,1.69,7.3237,7.3237,0,0,0,5.15,8.3153c1.7251.52,4.5222.2465,5.493-.8051-1.1732-.3277-2.3073-.6476-3.4433-.9608a3.6911,3.6911,0,0,1-2.5016-2.0725,5.81,5.81,0,0,1,.488-5.891,4.4941,4.4941,0,0,1,5.1275-1.9014c.9831.2592,1.9634.5285,3.0761.8287a7.1712,7.1712,0,0,0-9.0827-2.9309,1.5938,1.5938,0,0,1-2.0644-.2661Q43,42.5471,31.7463,31.2753a2.1136,2.1136,0,0,1-.495-1.558,7.56,7.56,0,0,0-1.4205-5.7519c-1.8628-2.4966-5.5436-3.6018-8.0376-2.4,1.37,1.1185,3.3548,1.4258,4.201,3.1787a5.3542,5.3542,0,0,1-.3559,5.22,5.6293,5.6293,0,0,1-2.9064,2.4533C20.6579,33.2678,19.1207,31.9765,17.2953,31.0316ZM45.0265,41.6289a8.8327,8.8327,0,0,1,.6869-.9016Q51.3089,35.1145,56.9319,29.53c.3459-.342.9061-.7591,1.3074-.7045,2.1183.2878,3.3315-.6861,4.029-2.5644a5.4981,5.4981,0,0,1,.4669-.8187c1.6523-2.8171,1.6524-2.8171-1.0187-4.9813-1.5887.9443-3.1826,1.9393-4.8255,2.8458a1.4646,1.4646,0,0,0-.9573,1.6341,3.99,3.99,0,0,1-1.5514,3.6409c-3.3306,3.1987-6.55,6.513-9.8282,9.7668a19.3168,19.3168,0,0,1-1.5,1.2312ZM28.7568,52.601,16.9282,64.48l3.1064,3.2545L32.0415,55.7481Zm.164-3.0784,6.2775,6.1728.7694-.8409-6.2906-6.0224Zm9.6081-1.69L36.88,46.2556,33.7065,49.313l1.6421,1.6834Z"/></g></g></svg>