<svg id="Lager_1" data-name="Lager 1" xmlns="http://www.w3.org/2000/svg" width="3cm" height="3.4cm" viewBox="0 0 85.0394 96.378"><defs><style>.cls-1{fill:none;stroke:#000;stroke-miterlimit:10;stroke-width:2.4176px;}.cls-2{fill:#020202;}</style></defs><title>nomaddesign</title><g id="UlrBlw"><path class="cls-1" d="M9.408,67.4429V22.8636S10.8109,12.57,24.5773,12.57V53.733S9.408,52.1954,9.408,67.4429c0,13.2036,15.1693,13.1,15.1693,13.1H76.6605V31.95l-52.0832.1336"/><rect class="cls-2" x="55.3493" y="9.5755" width="4.001" height="45.0996"/><path d="M58.7457,10.18V54.0711H55.9536V10.18h2.7921m1.2088-1.2088h-5.21V55.28h5.21V8.9708Z"/><polygon points="55.568 55.884 59.132 55.884 57.349 61.559 55.568 55.884"/><path d="M58.3081,56.4887,57.35,59.5414l-.9584-3.0527h1.9168M59.9545,55.28h-5.21l2.6049,8.297,2.6048-8.297Z"/></g></svg>