<svg width="183" height="27" viewBox="0 0 183 27" fill="none" xmlns="http://www.w3.org/2000/svg">
<g clip-path="url(#clip0)">
<path d="M3.88623 4.13611L20.8816 22.6413" stroke="#333333" stroke-width="3.55771" stroke-miterlimit="10"/>
<path d="M29.6631 -0.204529H32.7098L49.2888 22.5684V26.993L29.6631 -0.204529Z" fill="#333333"/>
<path d="M67.2927 -0.0831604C65.4339 1.37817 62.3861 5.43771 62.3861 13.0691C62.3861 20.4168 65.4331 24.6792 67.2532 26.2621C63.4149 25.1661 59.1418 19.5635 59.1418 13.0691C59.1418 6.24962 63.7317 0.769369 67.2927 -0.0831604Z" fill="#333333"/>
<path d="M74.7712 24.6388C76.8287 22.8933 77.9369 18.7935 77.9369 13.0695C77.9369 7.54888 76.987 3.40835 74.7712 1.50153C77.9762 2.6785 81.1814 6.98178 81.1814 13.0695C81.1814 19.0369 77.9757 23.3803 74.7712 24.6388Z" fill="#333333"/>
<path d="M94.4368 -0.163818H97.4439L106.426 16.3579L104.883 19.1995L94.4368 -0.163818Z" fill="#333333"/>
<path d="M113.905 -0.204529H116.674V26.6269L113.905 23.7855V-0.204529Z" fill="#333333"/>
<path d="M140.059 5.76235L141.522 1.49997L150.109 26.5459L146.033 23.8667L140.059 5.76235Z" fill="#333333"/>
<path d="M164.038 2.35252L166.808 -0.488892V26.6285L164.038 23.7871V2.35252Z" fill="#333333"/>
<path d="M183.109 13.068C183.109 18.4673 180.063 22.9325 174.879 24.5157C178.638 22.5671 179.865 17.9801 179.865 13.068C179.865 8.15593 178.559 3.08218 174.879 1.86432C179.984 2.39322 183.109 7.67034 183.109 13.068Z" fill="#333333"/>
<path d="M30.176 -0.221619V27.2186" stroke="#333333" stroke-width="0.711542" stroke-miterlimit="10"/>
<path d="M48.7649 -0.221619V25.3354" stroke="#333333" stroke-width="0.948723" stroke-miterlimit="10"/>
<path d="M94.5728 -0.221619V27.2186" stroke="#333333" stroke-width="0.948723" stroke-miterlimit="10"/>
<path d="M141.573 3.02829L132.812 27.3532" stroke="#333333" stroke-width="0.948723" stroke-miterlimit="10"/>
<path d="M20.8816 4.13611L3.88623 22.6413" stroke="#333333" stroke-width="3.55771" stroke-miterlimit="10"/>
<path d="M29.6716 -0.221619H32.7183L49.296 22.5513V26.9765L29.6716 -0.221619Z" fill="#333333"/>
<path d="M3.88623 4.13611L20.8816 22.6413" stroke="#333333" stroke-width="3.55771" stroke-miterlimit="10"/>
<path d="M29.6631 -0.204529H32.7098L49.2888 22.5684V26.993L29.6631 -0.204529Z" fill="#333333"/>
<path d="M67.2927 -0.0831604C65.4339 1.37817 62.3861 5.43771 62.3861 13.0691C62.3861 20.4168 65.4331 24.6792 67.2532 26.2621C63.4149 25.1661 59.1418 19.5635 59.1418 13.0691C59.1418 6.24962 63.7317 0.769369 67.2927 -0.0831604Z" fill="#333333"/>
<path d="M74.7712 24.6388C76.8287 22.8933 77.9369 18.7935 77.9369 13.0695C77.9369 7.54888 76.987 3.40835 74.7712 1.50153C77.9762 2.6785 81.1814 6.98178 81.1814 13.0695C81.1814 19.0369 77.9757 23.3803 74.7712 24.6388Z" fill="#333333"/>
<path d="M94.4368 -0.163818H97.4439L106.426 16.3579L104.883 19.1995L94.4368 -0.163818Z" fill="#333333"/>
<path d="M113.905 -0.204529H116.674V26.6269L113.905 23.7855V-0.204529Z" fill="#333333"/>
<path d="M140.059 5.76235L141.522 1.49997L150.109 26.5459L146.033 23.8667L140.059 5.76235Z" fill="#333333"/>
<path d="M164.038 2.35252L166.808 -0.488892V26.6285L164.038 23.7871V2.35252Z" fill="#333333"/>
<path d="M183.109 13.068C183.109 18.4673 180.063 22.9325 174.879 24.5157C178.638 22.5671 179.865 17.9801 179.865 13.068C179.865 8.15593 178.559 3.08218 174.879 1.86432C179.984 2.39322 183.109 7.67034 183.109 13.068Z" fill="#333333"/>
<path d="M30.176 -0.221619V27.2186" stroke="#333333" stroke-width="0.711542" stroke-miterlimit="10"/>
<path d="M48.7649 -0.221619V25.3354" stroke="#333333" stroke-width="0.948723" stroke-miterlimit="10"/>
<path d="M94.5728 -0.221619V27.2186" stroke="#333333" stroke-width="0.948723" stroke-miterlimit="10"/>
<path d="M141.573 3.02829L132.812 27.3532" stroke="#333333" stroke-width="0.948723" stroke-miterlimit="10"/>
<path d="M20.8816 4.13611L3.88623 22.6413" stroke="#333333" stroke-width="3.55771" stroke-miterlimit="10"/>
<path d="M29.6716 -0.221619H32.7183L49.296 22.5513V26.9765L29.6716 -0.221619Z" fill="#333333"/>
</g>
<defs>
<clipPath id="clip0">
<rect width="183" height="27" fill="white"/>
</clipPath>
</defs>
</svg>
