<svg width="115" height="64" viewBox="0 0 115 64" fill="none" xmlns="http://www.w3.org/2000/svg">
<path d="M31.4368 1.32765L31.4394 1.40733C32.0477 1.39936 32.6055 1.42858 33.1208 1.48968C33.838 1.57733 34.4729 1.73671 35.0413 1.9678C38.4945 3.365 39.6074 7.39455 42.7923 14.6488C41.7457 14.864 40.577 15.3607 39.9129 15.8202C38.8477 16.5587 38.3218 17.1776 38.7441 18.2826C39.1293 19.2866 40.1334 19.972 41.0604 20.4235C43.3182 21.5206 45.7434 21.6268 48.0172 20.5191C49.0637 20.0091 49.7517 19.183 50.8355 18.7155C51.9909 18.2162 53.0136 18.341 53.8556 19.207C54.4799 19.8471 54.9952 20.5988 55.46 21.3931C53.8928 22.4343 52.4 23.5898 50.9231 24.7612C48.1181 23.5313 46.1657 25.1092 44.7261 27.2581C43.9929 28.3551 43.297 29.7018 42.4257 30.7033C40.6062 32.7964 38.0907 34.6266 35.8488 35.9919C34.9005 36.5444 33.8885 37.1049 32.7941 37.6759L33.1979 38.3799C38.0615 36.1459 43.0234 32.7459 51.2419 26.5064C52.5753 27.7176 53.7653 30.6554 52.6364 39.3096L53.5236 39.3042C54.3736 34.2387 55.3059 30.1083 56.7642 23.8581C57.0724 24.4664 57.3831 25.064 57.7178 25.6271C58.9742 27.7336 60.4219 29.8426 62.4194 31.3142C64.3691 32.7512 66.7119 33.3303 69.1026 33.3409C70.9832 35.4633 73.1109 37.3572 75.5653 38.7225C78.0409 40.1011 80.9442 40.821 83.7678 40.303C78.2667 40.9883 73.7085 37.591 70.173 33.3144C72.3512 33.1683 74.6754 32.5015 75.9318 30.5997C77.3582 28.4401 76.8509 25.6271 75.6476 23.4915C73.0073 18.7952 67.4052 17.2838 62.4115 18.4234C62.1511 18.4818 61.8908 18.5509 61.6332 18.6199C61.3171 17.924 60.9983 17.228 60.6902 16.5294C60.5096 16.1177 60.3183 15.6529 60.1111 15.2863C58.8149 12.9913 57.2158 16.123 56.2649 19.7568C56.2649 19.7595 56.2649 19.7595 56.2649 19.7621C56.1878 19.6426 56.1135 19.523 56.0338 19.4062C54.7986 17.584 52.9472 16.3302 50.6283 17.1032C49.5286 17.4698 48.9628 18.0727 48.0145 18.6996C47.0503 19.3345 46.3304 19.6665 45.1803 19.7063C44.0407 19.7462 42.872 19.523 41.836 19.037C41.2092 18.7448 39.7987 18.0727 40.5026 17.2971C40.9807 16.7712 42.0565 16.2187 43.3554 15.9158C44.4232 18.3065 44.8137 19.1591 46.5403 18.0648C48.312 16.9438 47.4434 15.443 46.62 14.9755C45.8682 14.5479 44.8296 14.4443 43.7857 14.5213C43.629 14.1866 43.459 13.8174 43.2625 13.411C40.6407 7.95768 38.9673 3.38094 35.036 1.85624C34.6455 1.70483 34.2365 1.5853 33.7982 1.49499C33.3227 1.39936 32.818 1.33827 32.2788 1.32233C32.0079 1.31436 31.7263 1.31436 31.4368 1.32765ZM44.3568 15.7565C45.5282 15.6741 46.1631 16.0221 46.2826 16.3833C46.3782 16.6729 46.1445 16.8907 45.9054 17.0607C45.2653 17.5149 45.0342 17.2121 44.3568 15.7565ZM60.0766 19.1034C59.2664 19.3876 58.4722 19.7223 57.7019 20.1048C57.848 19.5974 58.0021 19.0901 58.1694 18.588C58.3394 18.078 58.6874 17.1351 58.9716 16.5879C59.1336 16.9651 59.3541 17.4777 59.4577 17.7221C59.6569 18.1869 59.8668 18.6438 60.0766 19.1034ZM68.983 31.7976C67.3866 29.6514 66.0293 27.3882 64.9243 25.3695C63.976 23.6376 63.1154 21.8606 62.2893 20.0676C63.5085 19.7488 64.7755 19.5762 66.1037 19.6027C70.3749 19.6851 75.5759 23.1435 75.196 27.9354C74.957 30.9689 71.9581 31.9251 68.983 31.7976ZM57.6063 22.0518C58.6263 21.4674 59.6782 20.9548 60.7699 20.551C60.9133 20.8379 61.0488 21.1301 61.1975 21.4143C62.3902 23.6934 63.6732 25.9273 65.1022 28.0656C65.9151 29.2848 66.7837 30.5014 67.716 31.6781C66.3241 31.4789 65.0252 31.0645 64.1327 30.5412C60.9133 28.6579 59.3382 25.242 57.6063 22.0518ZM49.773 25.6776C49.5578 25.8476 49.3426 26.0203 49.1275 26.1903C47.6028 27.3962 46.1259 28.6792 44.4418 30.0418C45.244 29.0112 46.0011 27.7097 46.7315 26.8464C47.5045 25.9353 48.5537 25.3403 49.773 25.6776ZM55.3883 23.4463C54.8889 25.7281 54.4639 27.9939 54.0894 30.2278C53.8902 28.0895 53.3111 26.6339 52.3283 25.6829C52.3867 25.6378 52.4425 25.5953 52.5036 25.5501C53.4439 24.8303 54.4028 24.1184 55.3883 23.4463Z" fill="#686058"/>
<path d="M15.8844 51.1113H14.0171L11.5255 57.0428C11.2599 57.6643 11.058 58.2567 10.9172 58.8331C10.7924 58.2407 10.5905 57.6643 10.3249 57.0428L7.83331 51.1113H5.95002L7.40034 54.4874L6.32721 57.0428C6.06158 57.6643 5.8597 58.2567 5.71892 58.8331C5.59408 58.2407 5.3922 57.6643 5.12657 57.0428L2.635 51.1113H0.751709L5.71892 62.6794L8.31675 56.6257L10.9146 62.6794L15.8844 51.1113Z" fill="#686058"/>
<path d="M15.5923 62.2331H17.4915L18.7825 59.3697H23.1865L24.4483 62.2331H26.3634L20.9792 50.6704L15.5923 62.2331ZM21.4122 55.3215L22.5464 57.8583H19.4518L20.5887 55.3215C20.7136 55.0267 20.8543 54.6229 20.9925 54.0625C21.1492 54.6229 21.2873 55.0267 21.4122 55.3215Z" fill="#686058"/>
<path d="M30.9296 51.106H29.1233V62.233H34.975V60.6127H30.9296V51.106Z" fill="#686058"/>
<path d="M40.0616 51.106H38.2554V62.233H44.1071V60.6127H40.0616V51.106Z" fill="#686058"/>
<path d="M47.5073 62.233H53.715V60.6127H49.3109V57.0188H53.715V55.4304H49.3109V52.6466H53.715V51.106H47.5073V62.233Z" fill="#686058"/>
<path d="M75.0128 55.7889C73.767 55.2125 72.8958 54.8858 72.8958 53.8126C72.8958 52.9706 73.5041 52.4128 74.4842 52.4128C75.1855 52.4128 75.6981 52.7395 76.1338 53.4248L77.5495 52.6944C77.1299 51.5256 75.993 50.8589 74.3434 50.8589C72.3194 50.8589 70.9965 52.118 70.9965 53.9083C70.9965 55.5897 72.0856 56.3361 74.0619 57.3003C75.212 57.8608 76.0381 58.1264 76.0381 59.2155C76.0381 60.2116 75.3688 60.865 74.2797 60.865C73.1428 60.865 72.3964 60.3364 72.1308 59.3403L70.6831 60.0097C71.0576 61.6274 72.3008 62.5305 74.2 62.5305C76.503 62.5305 77.8869 61.1599 77.8869 59.0906C77.8922 57.4863 76.9731 56.692 75.0128 55.7889Z" fill="#686058"/>
<path d="M65.8672 58.8251C65.4927 58.3576 65.1049 57.9061 64.6533 57.4704L57.5876 50.6704V62.2331H59.2531V54.5007C59.5639 54.9364 59.9225 55.3561 60.3263 55.7439L67.53 62.6687V51.106H65.8646V58.8251H65.8672Z" fill="#686058"/>
<path d="M80.0173 52.6466H82.9738V62.233H84.7774V52.6466H87.7178V51.106H80.0173V52.6466Z" fill="#686058"/>
<path d="M88.2119 62.2331H90.1111L91.4021 59.3697H95.8062L97.0679 62.2331H98.9831L93.5988 50.6704L88.2119 62.2331ZM94.0318 55.3215L95.166 57.8583H92.0688L93.2057 55.3215C93.3305 55.0267 93.4713 54.6229 93.6094 54.0625C93.7688 54.6229 93.9096 55.0267 94.0318 55.3215Z" fill="#686058"/>
<path d="M111.005 50.6704L107.799 57.6564C107.629 58.0469 107.379 58.5436 107.162 59.1651C106.851 58.3576 106.649 57.8583 106.556 57.6564L103.273 50.6704L100.643 62.2331H102.309L103.507 56.7559C103.615 56.2592 103.692 55.7439 103.708 55.2153C103.849 55.7147 104.035 56.1795 104.253 56.6311L107.162 62.6847L110.073 56.7559C110.322 56.2433 110.492 55.7439 110.585 55.2153C110.694 56.0414 110.742 56.5381 110.787 56.74L112.017 62.2331H113.699L111.005 50.6704Z" fill="#686058"/>
</svg>
