<svg width="156" height="33" viewBox="0 0 156 33" fill="none" xmlns="http://www.w3.org/2000/svg">
<path fill-rule="evenodd" clip-rule="evenodd" d="M46.7498 32.4615H40.378C35.2953 32.4615 34.5749 32.3639 32.2284 31.211C30.7876 30.5461 29.6361 29.3447 29.014 27.8597C28.2908 26.1809 28.1511 24.743 28.1511 19.998V0.480957H35.4898V20.8588C35.4898 23.067 35.6309 23.6877 36.2558 24.4067C36.7838 25.0337 37.5933 25.2696 39.0818 25.2696H46.7505V32.4615" fill="#686058"/>
<path fill-rule="evenodd" clip-rule="evenodd" d="M21.82 4.98792C21.0041 3.88136 20.0008 2.87943 18.8002 2.10919C16.8363 0.768128 14.3346 0 12.0366 0C8.2486 0 4.45921 1.91681 2.20819 4.98792C0.623489 7.1947 0.00140426 9.49417 0.00140426 12.995V19.9973H0C0 24.7423 0.14183 26.1809 0.861511 27.859C1.485 29.344 2.63579 30.5454 4.07726 31.2103C6.42447 32.3639 7.14274 32.4608 12.2247 32.4608H12.719V25.2689H10.9342C9.44221 25.2689 8.63055 25.033 8.10606 24.406C7.47766 23.6877 7.33442 23.0663 7.33442 20.8581V13.186C7.33442 11.0796 7.52821 10.1654 8.1524 9.15715C9.01532 7.91368 10.4069 7.14134 12.0359 7.14134C13.6178 7.14134 15.0122 7.91438 15.8716 9.15715C16.4944 10.1661 16.6868 11.1723 16.6868 13.186V16.8777V32.4615H24.076V12.995C24.0767 9.44994 23.4483 7.194 21.82 4.98792Z" fill="#686058"/>
<path fill-rule="evenodd" clip-rule="evenodd" d="M53.9873 20.1773L53.5864 18.6404H51.1248L50.7239 20.1773H49.2466L51.4793 12.2061H53.2213L55.4541 20.1773H53.9873ZM52.5445 14.5413L52.3605 13.6251H52.3381L52.1548 14.5413L51.4555 17.392L53.2424 17.3807L52.5445 14.5413Z" fill="#686058"/>
<path fill-rule="evenodd" clip-rule="evenodd" d="M59.3003 13.5574V20.1771H57.8918V13.5574L55.968 13.5441V12.2852H61.2136V13.5574H59.3003Z" fill="#686058"/>
<path fill-rule="evenodd" clip-rule="evenodd" d="M66.2654 20.1771L65.0163 17.0723H64.284V20.1771H62.8643L62.8755 12.2852H65.5092C66.1846 12.2852 66.7119 12.4684 67.056 12.7773C67.5369 13.2127 67.697 13.8544 67.697 14.6099C67.697 15.3654 67.5369 16.1223 67.0784 16.5688C66.9064 16.7514 66.6775 16.8539 66.391 16.9445L67.7651 20.1764H66.2654V20.1771ZM65.4635 13.5441H64.2713L64.2833 15.8126H65.4734C66.1959 15.8126 66.3103 15.3886 66.3103 14.6443C66.311 13.9225 66.1495 13.5441 65.4635 13.5441Z" fill="#686058"/>
<path d="M71.063 12.2852H69.644V20.1771H71.063V12.2852Z" fill="#686058"/>
<path fill-rule="evenodd" clip-rule="evenodd" d="M76.0804 20.255C75.0033 20.255 73.3315 19.8309 73.3315 17.898V12.2852H74.74V17.898C74.74 18.6535 75.3017 18.9729 76.0923 18.9729C76.8703 18.9729 77.432 18.6535 77.432 17.898L77.42 12.2852H78.8292V17.898C78.8292 19.8316 77.168 20.255 76.0804 20.255Z" fill="#686058"/>
<path fill-rule="evenodd" clip-rule="evenodd" d="M87.7639 20.1771L87.799 13.7624H87.7745L87.5575 14.7138L86.0107 20.1771H84.2814L82.7248 14.7475L82.5071 13.7624H82.4839L82.5071 20.1771H81.1099V12.2852H83.4465L84.9793 17.9183L85.1752 18.836H85.1962L85.3935 17.9183L86.8708 12.2852H89.1829V20.1771H87.7639Z" fill="#686058"/>
<path fill-rule="evenodd" clip-rule="evenodd" d="M94.543 20.1771V12.2852H95.9627V18.9153H99.0218V20.1771H94.543Z" fill="#686058"/>
<path fill-rule="evenodd" clip-rule="evenodd" d="M103.666 18.1026C103.666 19.7413 103.277 20.2792 101.653 20.2792C101.262 20.2792 100.783 20.2433 100.22 20.164L100.301 18.8819C100.873 18.9627 101.252 19.0069 101.616 19.0069C102.236 19.0069 102.245 18.8932 102.245 18.092L102.259 12.2861H103.679L103.666 18.1026Z" fill="#686058"/>
<path fill-rule="evenodd" clip-rule="evenodd" d="M108.174 20.255C107.095 20.255 105.423 19.8309 105.423 17.898V12.2852H106.833V17.898C106.833 18.6535 107.393 18.9729 108.185 18.9729C108.963 18.9729 109.524 18.6535 109.524 17.898L109.514 12.2852H110.922V17.898C110.922 19.8316 109.262 20.255 108.174 20.255Z" fill="#686058"/>
<path fill-rule="evenodd" clip-rule="evenodd" d="M117.187 20.1771L114.942 15.0228L114.578 14.0489L114.564 14.0377L114.599 20.1771H113.2V12.2852H115.228L117.475 17.5413L117.796 18.5615L117.817 18.5713L117.783 12.2852H119.169V20.1771H117.187Z" fill="#686058"/>
<path fill-rule="evenodd" clip-rule="evenodd" d="M126.946 19.9231C126.246 20.107 125.331 20.2784 124.586 20.2784C123.511 20.2784 122.696 20.0368 122.147 19.4997C121.482 18.825 121.208 17.7128 121.208 16.1674C121.208 13.3624 122.192 12.1821 124.586 12.1821C125.319 12.1821 125.789 12.2397 126.58 12.3429L126.477 13.6601C125.79 13.5337 125.205 13.4656 124.574 13.4656C123.316 13.4656 122.675 13.8778 122.675 16.1786C122.675 17.4958 122.858 18.252 123.281 18.6305C123.59 18.9296 124.037 18.9963 124.574 18.9963C124.885 18.9963 125.239 18.9619 125.538 18.8811V16.2482H126.946V19.9231" fill="#686058"/>
<path fill-rule="evenodd" clip-rule="evenodd" d="M133.406 19.7284C133.062 20.0605 132.557 20.1862 131.824 20.1862H129.064L129.051 12.2852H131.914C132.579 12.2852 133.061 12.4459 133.359 12.7556C133.748 13.1446 133.875 13.7519 133.875 14.4498C133.875 15.0691 133.598 15.7214 133.026 16.0535V16.0759C133.634 16.2585 134.011 17.2204 134.011 17.9183C134.012 18.6535 133.828 19.3156 133.406 19.7284ZM131.709 13.4998H130.472V15.5149H131.596C132.306 15.5276 132.443 15.1828 132.443 14.4849C132.443 13.8207 132.201 13.5111 131.709 13.4998ZM131.744 16.7619H130.472V18.9498H131.744C132.33 18.9498 132.557 18.6535 132.557 17.9183C132.557 17.2316 132.455 16.7619 131.744 16.7619Z" fill="#686058"/>
<path fill-rule="evenodd" clip-rule="evenodd" d="M135.936 20.1771V12.2852H140.518V13.5441H137.358V15.4911H139.522V16.7514H137.358V18.9153H140.518V20.1771H135.936Z" fill="#686058"/>
<path fill-rule="evenodd" clip-rule="evenodd" d="M145.638 20.1771L144.39 17.0723H143.657V20.1771H142.235L142.25 12.2852H144.881C145.558 12.2852 146.086 12.4684 146.428 12.7773C146.91 13.2127 147.069 13.8544 147.069 14.6099C147.069 15.3654 146.909 16.1223 146.451 16.5688C146.279 16.7514 146.05 16.8539 145.764 16.9445L147.137 20.1764H145.638V20.1771ZM144.836 13.5441H143.644L143.657 15.8126H144.848C145.57 15.8126 145.683 15.3886 145.683 14.6443C145.683 13.9225 145.522 13.5441 144.836 13.5441Z" fill="#686058"/>
<path fill-rule="evenodd" clip-rule="evenodd" d="M154.468 19.9231C153.769 20.107 152.853 20.2784 152.108 20.2784C151.032 20.2784 150.219 20.0368 149.67 19.4997C149.004 18.825 148.73 17.7128 148.73 16.1674C148.73 13.3624 149.715 12.1821 152.108 12.1821C152.842 12.1821 153.311 12.2397 154.102 12.3429L153.999 13.6601C153.312 13.5337 152.727 13.4656 152.098 13.4656C150.837 13.4656 150.196 13.8778 150.196 16.1786C150.196 17.4958 150.381 18.252 150.805 18.6305C151.113 18.9296 151.559 18.9963 152.098 18.9963C152.408 18.9963 152.763 18.9619 153.06 18.8811V16.2482H154.468V19.9231Z" fill="#686058"/>
</svg>
