<svg width="172" height="42" viewBox="0 0 172 42" fill="none" xmlns="http://www.w3.org/2000/svg">
<g clip-path="url(#clip0)">
<path d="M7.42756 32.8892H3.05353L2.14612 36.3939H0.298706L3.9229 22.522H6.56362L10.1878 36.3939H8.34041L7.42756 32.8892ZM6.98744 31.1342L5.25413 24.3911L3.49909 31.1342H6.98744ZM22.321 22.522V36.3939H20.4736V25.9723L17.7948 32.4057H16.5234L13.8446 26.0103V36.3939H11.9972V22.522H14.1761L17.1645 29.7649L20.153 22.522H22.321ZM26.695 24.277V28.2816H32.0308V30.0366H26.695V36.3939H24.8476V22.522H32.4546V24.277H26.695ZM39.5998 24.277V28.2816H44.9356V30.0366H39.5998V36.3939H37.7524V22.522H45.3594V24.277H39.5998ZM53.5858 29.477V36.3939H51.8525V35.5082C51.2385 36.2418 50.3474 36.5895 49.2335 36.5895C47.1905 36.5895 45.9408 35.2963 45.9408 33.4869C45.9408 31.5417 47.3263 30.4224 49.6954 30.4224H51.7765V29.4987C51.7765 28.4391 51.119 27.8251 49.929 27.8251C48.8097 27.8251 48.1359 28.4011 48.0816 29.3465H46.2722C46.37 27.4176 47.8914 26.1896 49.9508 26.1896C52.1242 26.1842 53.5858 27.472 53.5858 29.477ZM51.7765 32.8675V31.9058H49.7715C48.5 31.9058 47.7502 32.4274 47.7502 33.4272C47.7502 34.3726 48.462 34.9486 49.5976 34.9486C50.8908 34.9486 51.7765 34.1009 51.7765 32.8675ZM55.0203 33.1175H56.8134C56.8134 34.3128 57.5849 34.9486 58.8347 34.9486C60.1279 34.9486 60.7419 34.3346 60.7419 33.6391C60.7419 32.9816 60.2583 32.6773 59.2802 32.3676L57.7371 31.8677C56.2537 31.4059 55.2159 30.6343 55.2159 29.0531C55.2159 27.3198 56.6993 26.1842 58.8184 26.1842C61.0896 26.1842 62.4806 27.3198 62.4969 29.3031H60.7419C60.6658 28.3033 59.992 27.8197 58.8129 27.8197C57.7317 27.8197 57.0959 28.3794 57.0959 29.0151C57.0959 29.6889 57.5795 29.9986 58.4815 30.2648L60.0029 30.7267C61.4645 31.1722 62.6436 31.8243 62.6436 33.5032C62.6436 35.4322 60.9864 36.5841 58.8292 36.5841C56.6938 36.5841 55.0203 35.4485 55.0203 33.1175ZM67.072 28.0316V33.7749C67.072 34.4867 67.3437 34.7367 68.0174 34.7367H69.077V36.3939H67.8055C66.3221 36.3939 65.2409 35.6604 65.2409 33.813V28.0316H63.4695V26.3744H65.2409V22.522H67.072V26.3744H69.3269V28.0316H67.072ZM71.0059 22.6415H72.875V24.7606H71.0059V22.6415ZM71.0439 26.3744H72.837V36.3939H71.0439V26.3744ZM82.2534 26.3744V36.6982C82.2534 39.0509 80.8298 40.4365 78.5151 40.4365C76.2819 40.4365 74.9126 39.1868 74.8529 37.1981H76.6242C76.722 38.1816 77.3958 38.8336 78.5314 38.8336C79.6888 38.8336 80.4169 38.1979 80.4169 36.9481V35.5408C79.8029 36.1385 78.9715 36.3885 78.1619 36.3885C76.1569 36.3885 74.6736 35.0409 74.6736 32.824V29.7432C74.6736 27.51 76.1569 26.1788 78.1619 26.1788C78.9878 26.1788 79.8192 26.4287 80.4332 27.0481V26.3744H82.2534ZM80.4223 32.6176V29.9605C80.4223 28.7108 79.6888 27.9175 78.4553 27.9175C77.2436 27.9175 76.5101 28.6674 76.5101 29.9605V32.6176C76.5101 33.9108 77.2436 34.6606 78.4771 34.6606C79.6942 34.6606 80.4223 33.8727 80.4223 32.6176ZM91.5014 29.7486V36.3939H89.6702V29.9605C89.6702 28.6674 88.9367 27.9175 87.725 27.9175C86.4916 27.9175 85.7581 28.7054 85.7581 29.9605V36.3939H83.9269V22.522H85.7581V27.0318C86.296 26.4939 87.1056 26.1842 88.051 26.1842C90.018 26.1842 91.5014 27.5154 91.5014 29.7486ZM94.7778 31.9058V33.0251C94.7778 34.2748 95.5657 34.9703 96.7828 34.9703C98.0325 34.9703 98.69 34.2965 98.7878 33.1012H100.559C100.483 35.28 98.9399 36.5895 96.7665 36.5895C94.4572 36.5895 92.9521 35.1442 92.9521 32.8892V29.7486C92.9521 27.6295 94.4735 26.1842 96.8045 26.1842C99.1138 26.1842 100.619 27.6295 100.619 29.7486V31.9058H94.7778ZM94.7778 29.7486V30.4224H98.7824V29.7486C98.7824 28.5369 97.9945 27.8034 96.7774 27.8034C95.5657 27.8034 94.7778 28.5315 94.7778 29.7486ZM105.14 28.0316V33.7749C105.14 34.4867 105.411 34.7367 106.085 34.7367H107.145V36.3939H105.873C104.39 36.3939 103.309 35.6604 103.309 33.813V28.0316H101.537V26.3744H103.309V22.522H105.14V26.3744H107.395V28.0316H105.14ZM110.133 31.9058V33.0251C110.133 34.2748 110.921 34.9703 112.138 34.9703C113.388 34.9703 114.045 34.2965 114.143 33.1012H115.914C115.838 35.28 114.295 36.5895 112.122 36.5895C109.813 36.5895 108.307 35.1442 108.307 32.8892V29.7486C108.307 27.6295 109.829 26.1842 112.16 26.1842C114.469 26.1842 115.974 27.6295 115.974 29.7486V31.9058H110.133ZM110.133 29.7486V30.4224H114.138V29.7486C114.138 28.5369 113.35 27.8034 112.133 27.8034C110.921 27.8034 110.133 28.5315 110.133 29.7486ZM122.293 26.3744V28.1838H121.332C120.196 28.1838 119.463 28.9173 119.463 30.455V36.3885H117.631V26.3744H119.441V27.3361C119.979 26.7221 120.772 26.3744 121.62 26.3744H122.293Z" fill="#686058"/>
<path fill-rule="evenodd" clip-rule="evenodd" d="M172 0H130.792V41.2083H172V0ZM138.426 25.5219H142.517L142.539 25.6034L146.066 39.3939H143.338L142.577 36.3022H138.372L137.611 39.3939H134.883L138.426 25.5219ZM138.991 33.7538H141.952L140.746 28.8799H140.214L138.991 33.7538ZM167.827 25.5219V28.0757H163.176V30.9283H167.311V33.4767H163.176V39.3939H160.492V25.5219H167.827ZM153.01 30.6241L155.873 25.5219H158.786V39.3939H156.123V30.1187L153.455 34.9492H152.597L149.902 30.1187V39.3939H147.234V25.5219H150.146L153.01 30.6241ZM146.392 5.61877C146.288 5.67309 146.185 5.72741 146.082 5.78717C145.973 5.84694 145.935 5.98278 145.995 6.07515C146.06 6.17838 146.18 6.20555 146.299 6.15665C150.032 4.65155 154.297 4.63525 156.552 5.99908C156.808 6.15122 156.862 6.23272 156.938 6.54243C157.166 7.49874 156.753 9.29183 155.547 10.2264C155.388 10.3497 155.243 10.4196 154.952 10.5601C154.936 10.5681 154.918 10.5765 154.901 10.585C154.765 10.6502 144.897 15.0243 144.897 15.0243C144.772 15.084 144.729 15.1873 144.772 15.2959C144.816 15.3992 144.935 15.4481 145.055 15.4046C145.174 15.3611 152.7 12.6715 153.108 12.5302C154.048 12.2097 154.433 12.4107 154.596 12.6824L154.602 12.6932L154.607 12.7041C154.765 12.9812 154.743 13.4159 153.999 14.0679C153.678 14.3505 147.582 19.5233 147.484 19.6048C147.386 19.6863 147.364 19.8112 147.435 19.9036C147.511 19.996 147.62 20.0123 147.734 19.9308C147.734 19.9308 156.455 13.5789 156.58 13.492C156.878 13.2855 157.014 13.1931 157.215 13.1116C158.628 12.5302 160.389 12.9975 161.1 13.6713C161.334 13.8941 161.377 13.981 161.383 14.2799C161.437 16.9151 159.291 20.6752 156.118 23.1529C156.014 23.2344 155.976 23.3539 156.036 23.4626C156.091 23.5604 156.226 23.5984 156.33 23.5332C156.404 23.49 156.479 23.444 156.551 23.3992C156.579 23.382 156.607 23.3651 156.634 23.3485C156.734 23.2875 156.835 23.2276 156.935 23.1677C157.166 23.0301 157.396 22.893 157.623 22.7454C158.438 22.2129 159.226 21.6369 159.981 21.0175C160.986 20.197 161.932 19.295 162.774 18.3116C163.687 17.2412 164.491 16.0621 165.056 14.7689C165.442 13.8886 166.751 10.6013 164.806 10.6013H163.247C163.105 10.6013 162.964 10.585 162.888 10.4546C162.85 10.389 162.84 10.311 162.859 10.2377C162.878 10.1644 162.926 10.1017 162.991 10.0634L164.246 9.3516C164.752 9.04732 165.067 8.54199 165.148 7.99863L166.257 7.35747C166.425 7.25967 166.409 7.14556 166.213 7.10753L164.964 6.85758C164.955 6.84128 164.946 6.82498 164.936 6.80868C164.927 6.79238 164.917 6.77608 164.909 6.75978C164.388 5.8578 163.241 5.54266 162.328 6.04255L161.084 6.75978C161.017 6.79699 160.938 6.80645 160.864 6.78615C160.789 6.76585 160.726 6.71738 160.687 6.65111C160.611 6.5207 160.666 6.39029 160.736 6.26532L161.519 4.91236C162.491 3.22795 158.987 2.72263 158.03 2.61396C156.628 2.46182 155.205 2.56505 153.819 2.82043C152.542 3.05951 151.293 3.42899 150.081 3.88541C149.168 4.22773 148.277 4.61895 147.408 5.0645C147.195 5.17256 146.986 5.289 146.777 5.40602C146.649 5.4773 146.521 5.54879 146.392 5.61873L146.392 5.61877Z" fill="#686058"/>
</g>
<defs>
<clipPath id="clip0">
<rect width="172" height="41.2083" fill="white"/>
</clipPath>
</defs>
</svg>
