<svg width="149" height="22" viewBox="0 0 149 22" fill="none" xmlns="http://www.w3.org/2000/svg">
<g clip-path="url(#clip0)">
<path fill-rule="evenodd" clip-rule="evenodd" d="M7.11531 21.3457H10.7241L17.8391 0H14.6368L8.97023 17.2293L3.30361 0H-0.000488281L7.11531 21.3457ZM21.9564 18.9566C20.4319 18.9566 19.8215 18.0929 19.8215 17.0264C19.8215 15.4762 21.0918 14.485 23.1 14.485H26.0719V14.8402C26.0719 17.6359 23.8875 18.9566 21.9564 18.9566ZM21.5241 21.5999C23.5571 21.5999 25.2091 20.7611 26.1995 19.3641L26.5042 21.3457H29.1218V11.7655C29.1218 7.41968 26.6318 5.86949 23.4304 5.86949C20.2538 5.86949 18.4485 7.49671 17.7372 9.86009L20.4815 10.6219C20.9651 9.24977 21.905 8.56327 23.3277 8.56327C24.8017 8.56327 26.0719 9.40214 26.0719 11.4351V12.0959H23.2772C19.3379 12.0959 16.7212 13.9003 16.7212 17.1779C16.7212 20.0754 18.8303 21.5999 21.5241 21.5999ZM37.1527 21.5999C40.3027 21.5999 42.5899 19.6688 42.5899 16.8732C42.5899 14.2307 40.4807 13.1633 38.3211 12.3501C36.7718 11.7655 35.3988 11.3084 35.3988 10.0381C35.3988 9.17359 36.0596 8.56327 37.0765 8.56327C38.042 8.56327 38.9057 9.09741 39.5914 10.0381L41.5995 8.13186C40.6845 6.86157 39.2105 5.86949 37.2032 5.86949C34.4846 5.86949 32.4516 7.72526 32.4516 10.2667C32.4516 12.5025 34.1028 13.6718 35.9072 14.3831C37.1775 14.8907 39.4895 15.5772 39.4895 17.1779C39.4895 18.2453 38.5505 18.9061 37.3307 18.9061C35.4749 18.9061 34.2303 17.4321 33.6705 16.06L31.1805 17.5092C31.8918 19.3384 33.7467 21.5999 37.1527 21.5999ZM49.7314 18.9566C48.2317 18.9566 47.6214 18.0929 47.6214 17.0264C47.6214 15.4762 48.8668 14.485 50.8493 14.485H53.7716V14.8402C53.7716 17.6359 51.6111 18.9566 49.7314 18.9566ZM49.2991 21.5999C51.3064 21.5999 52.9079 20.7611 53.8983 19.3641L54.2039 21.3457H56.8206V11.7655C56.8206 7.41968 54.3057 5.86949 51.0273 5.86949C47.7489 5.86949 45.894 7.49671 45.1313 9.91059L47.9269 10.6733C48.4345 9.24977 49.4266 8.56327 50.8998 8.56327C52.45 8.56327 53.7716 9.40214 53.7716 11.4351V12.0959H51.0273C47.0119 12.0959 44.5218 14.0013 44.5218 17.1531C44.5218 20.0754 46.6558 21.5999 49.2991 21.5999ZM60.379 21.3457H63.4793V13.9765L69.3745 21.3457H73.2881L66.4522 12.9605L72.6521 6.09889H68.9936L63.4793 12.274V0H60.379V21.3457ZM74.8631 21.3457H78.0148V14.4088C78.0148 10.5457 79.7165 8.84318 81.776 8.84318C82.2836 8.84318 82.9196 8.94504 83.4015 9.09741L83.9357 6.22558C83.4015 6.04753 82.5892 5.86949 81.7246 5.86949C79.7935 5.86949 78.6243 6.96258 77.9129 8.18236L77.6082 6.09889H74.8631V21.3457ZM91.7114 21.5494C96.439 21.5494 99.233 18.17 99.233 13.7223C99.233 9.27545 96.439 5.89517 91.7114 5.89517C87.0104 5.89517 84.1899 9.27545 84.1899 13.7223C84.1899 18.17 87.0104 21.5494 91.7114 21.5494ZM91.7114 18.7538C88.9423 18.7538 87.5445 16.4666 87.5445 13.7223C87.5445 10.978 88.9423 8.69081 91.7114 8.69081C94.4814 8.69081 95.8792 10.978 95.8792 13.7223C95.8792 16.4666 94.4814 18.7538 91.7114 18.7538ZM101.978 21.3457H105.129V15.1449C105.129 11.0542 107.034 8.66513 109.245 8.66513C110.517 8.66513 111.381 9.45264 111.381 11.4856V21.3457H114.531V10.6733C114.531 7.6234 112.829 5.86949 109.932 5.86949C107.696 5.86949 106.095 7.01308 105.078 8.28422L104.774 6.09889H101.978V21.3457ZM122.384 18.9566C120.884 18.9566 120.275 18.0929 120.275 17.0264C120.275 15.4762 121.519 14.485 123.502 14.485H126.424V14.8402C126.424 17.6359 124.264 18.9566 122.384 18.9566ZM121.952 21.5999C123.96 21.5999 125.56 20.7611 126.551 19.3641L126.856 21.3457H129.473V11.7655C129.473 7.41968 126.958 5.86949 123.68 5.86949C120.402 5.86949 118.547 7.49671 117.784 9.91059L120.579 10.6733C121.087 9.24977 122.079 8.56327 123.552 8.56327C125.103 8.56327 126.424 9.40214 126.424 11.4351V12.0959H123.68C119.664 12.0959 117.174 14.0013 117.174 17.1531C117.174 20.0754 119.308 21.5999 121.952 21.5999ZM133.032 21.3457H136.182V15.1449C136.182 11.0542 138.089 8.66513 140.3 8.66513C141.57 8.66513 142.434 9.45264 142.434 11.4856V21.3457H145.585V10.6733C145.585 7.6234 143.882 5.86949 140.985 5.86949C138.749 5.86949 137.148 7.01308 136.132 8.28422L135.826 6.09889H133.032V21.3457Z" fill="#686058"/>
</g>
<defs>
<clipPath id="clip0">
<rect width="149" height="22" fill="white"/>
</clipPath>
</defs>
</svg>
