<svg width="204" height="70" viewBox="0 0 204 70" fill="none" xmlns="http://www.w3.org/2000/svg">
<path d="M11.6731 54.9256V45.7065H13.0333V54.7961C13.0087 54.9991 13.0277 55.205 13.089 55.4001C13.1503 55.5952 13.2524 55.7749 13.3886 55.9275C13.5248 56.08 13.6919 56.2018 13.8788 56.2846C14.0657 56.3675 14.2682 56.4096 14.4726 56.4082C15.4802 56.4082 15.912 55.7317 15.912 54.8105V45.7065H17.2002V54.8321C17.2275 55.2064 17.1734 55.5821 17.0416 55.9335C16.9098 56.2848 16.7034 56.6035 16.4367 56.8675C16.1699 57.1315 15.8492 57.3345 15.4965 57.4627C15.1438 57.5909 14.7675 57.6412 14.3935 57.61C12.803 57.61 11.6731 56.7536 11.6731 54.9256Z" fill="#686058"/>
<path d="M20.151 45.7139H21.5904L24.5842 54.0118V45.7139H25.9084V57.4518H24.6058L21.432 48.4414H21.3817V57.4518H20.151V45.7139Z" fill="#686058"/>
<path d="M28.9382 45.7139H30.3056V57.4518H28.9382V45.7139Z" fill="#686058"/>
<path d="M33.3716 45.7139H36.1855C37.8336 45.7139 38.5893 46.779 38.5893 48.643C38.5893 50.1399 37.9991 51.1618 37.0275 51.3561V51.4209C38.2078 51.6872 38.69 52.7883 38.69 54.1917C38.69 56.545 37.6825 57.4518 36.2647 57.4518H33.386L33.3716 45.7139ZM35.7753 50.8812C36.6317 50.8812 37.2722 50.2694 37.2722 48.7869C37.2722 47.4267 36.7469 46.8797 35.9696 46.8797H34.739V50.8812H35.7753ZM35.9912 56.2787C36.862 56.2787 37.3226 55.5591 37.3226 54.1197C37.3226 52.6804 36.7037 52.0326 35.7897 52.0326H34.739V56.2787H35.9912Z" fill="#686058"/>
<path d="M43.2239 45.6782H45.0375L47.3909 57.4522H46.0594L45.3398 53.9761H42.7489L42.094 57.4881H40.8202L43.2239 45.6782ZM45.1239 52.8246L44.0803 47.2399H44.0372L42.9792 52.8246H45.1239Z" fill="#686058"/>
<path d="M49.96 45.7139H51.3274V57.4518H49.96V45.7139Z" fill="#686058"/>
<path d="M54.4005 45.7139H55.7679V56.2644H59.0784V57.4518H54.4005V45.7139Z" fill="#686058"/>
<path d="M60.6259 52.0903H63.4542V53.177H60.6259V52.0903Z" fill="#686058"/>
<path d="M66.0017 45.7139H68.5854C70.4493 45.7139 71.3705 46.8941 71.3705 48.974C71.3705 50.6365 70.7588 51.7016 69.8088 52.0182L71.4857 57.4518H70.1039L68.5422 52.3277H67.3691V57.4518H66.0017V45.7139ZM68.5566 51.277C69.5281 51.277 69.9959 50.4997 69.9959 49.1179C69.9959 47.9593 69.6505 46.8941 68.499 46.8941H67.3691V51.3058L68.5566 51.277Z" fill="#686058"/>
<path d="M73.947 54.8105V48.3334C73.9271 47.9544 73.9887 47.5754 74.1276 47.2222C74.2666 46.8689 74.4796 46.5496 74.7524 46.2856C75.0252 46.0217 75.3515 45.8193 75.7091 45.6921C76.0668 45.5649 76.4475 45.5159 76.8257 45.5483C78.4234 45.5483 79.6613 46.3903 79.6613 48.1967V54.7674C79.6941 55.1537 79.6422 55.5425 79.5091 55.9067C79.376 56.2708 79.1651 56.6016 78.8909 56.8757C78.6167 57.1499 78.286 57.3608 77.9219 57.4939C77.5577 57.627 77.1689 57.6789 76.7825 57.6461C75.0841 57.6101 73.947 56.6889 73.947 54.8105ZM78.3155 54.8105V48.1751C78.2835 47.795 78.1083 47.4412 77.8253 47.1854C77.5424 46.9296 77.1728 46.7908 76.7914 46.7972C76.41 46.8036 76.0453 46.9547 75.771 47.2199C75.4968 47.4851 75.3336 47.8445 75.3144 48.2255V54.8321C75.3001 55.0379 75.3284 55.2444 75.3973 55.4389C75.4663 55.6333 75.5745 55.8114 75.7152 55.9623C75.8559 56.1131 76.0262 56.2333 76.2154 56.3156C76.4046 56.3978 76.6086 56.4402 76.8149 56.4402C77.0212 56.4402 77.2253 56.3978 77.4145 56.3156C77.6037 56.2333 77.7739 56.1131 77.9147 55.9623C78.0554 55.8114 78.1636 55.6333 78.2325 55.4389C78.3015 55.2444 78.3297 55.0379 78.3155 54.8321V54.8105Z" fill="#686058"/>
<path d="M82.5255 45.7139H85.3107C86.858 45.7139 88.0454 46.4983 88.0454 48.1824V54.7818C88.0454 56.5954 86.858 57.4518 85.2819 57.4518H82.5255V45.7139ZM85.1955 56.2787C85.3961 56.2919 85.5972 56.2616 85.7849 56.1899C85.9727 56.1182 86.1428 56.0068 86.2836 55.8633C86.4243 55.7198 86.5325 55.5476 86.6005 55.3584C86.6686 55.1693 86.6951 54.9677 86.6781 54.7674V48.2903C86.6928 48.0938 86.6643 47.8964 86.5944 47.7121C86.5245 47.5278 86.4149 47.3611 86.2735 47.2238C86.1321 47.0865 85.9622 46.982 85.776 46.9175C85.5897 46.8531 85.3915 46.8304 85.1955 46.851H83.8929V56.2787H85.1955Z" fill="#686058"/>
<path d="M92.5652 45.6782H94.3788L96.7321 57.4522H95.3647L94.6883 53.9761H92.119L91.3993 57.4522H90.1327L92.5652 45.6782ZM94.458 52.8246L93.4216 47.2399H93.3712L92.3205 52.8246H94.458Z" fill="#686058"/>
<path d="M99.2291 45.7139H100.877L102.655 50.7516H102.691L104.519 45.7139H106.08V57.4518H104.864V48.096H104.828L103.101 52.9682H102.194L100.496 48.1104V57.4518H99.2723L99.2291 45.7139Z" fill="#686058"/>
<path d="M108.916 54.9759V48.2181C108.916 46.5844 110.053 45.5337 111.795 45.5337C113.536 45.5337 114.429 46.5268 114.429 47.9158V49.2472H113.205V48.1101C113.224 47.9164 113.2 47.7209 113.135 47.5376C113.069 47.3543 112.963 47.1879 112.826 47.0502C112.688 46.9126 112.522 46.8072 112.338 46.7415C112.155 46.6759 111.96 46.6518 111.766 46.6708C111.559 46.6537 111.352 46.6832 111.158 46.7573C110.964 46.8314 110.79 46.9481 110.647 47.0988C110.505 47.2495 110.398 47.4303 110.335 47.6278C110.272 47.8252 110.255 48.0344 110.283 48.2397V54.8103C110.255 55.0183 110.275 55.2299 110.34 55.4293C110.405 55.6288 110.514 55.811 110.659 55.9624C110.805 56.1139 110.982 56.2306 111.179 56.304C111.375 56.3774 111.586 56.4056 111.795 56.3864C111.984 56.4033 112.175 56.3791 112.355 56.3155C112.534 56.252 112.698 56.1505 112.834 56.018C112.971 55.8855 113.077 55.7251 113.146 55.5477C113.215 55.3704 113.245 55.1802 113.234 54.9903V53.8388H114.429V55.055C114.44 55.4026 114.378 55.7486 114.246 56.0703C114.114 56.3921 113.915 56.6822 113.663 56.9215C113.411 57.1609 113.11 57.344 112.782 57.459C112.454 57.5739 112.105 57.618 111.759 57.5883C110.067 57.6099 108.916 56.6743 108.916 54.9759Z" fill="#686058"/>
<path d="M117.041 54.8107V48.3336C117.02 47.9543 117.081 47.5748 117.22 47.221C117.358 46.8672 117.571 46.5473 117.844 46.2831C118.117 46.0189 118.444 45.8166 118.802 45.6898C119.16 45.5631 119.542 45.5149 119.92 45.5485C121.518 45.5485 122.748 46.3905 122.748 48.1969V54.7676C122.783 55.1542 122.732 55.5436 122.599 55.9083C122.466 56.2731 122.255 56.6043 121.981 56.8787C121.707 57.1532 121.375 57.3641 121.011 57.4967C120.646 57.6293 120.256 57.6804 119.87 57.6463C118.179 57.6103 117.041 56.6891 117.041 54.8107ZM121.403 54.8107V48.1753C121.396 47.7783 121.232 47.4002 120.946 47.1242C120.661 46.8482 120.278 46.6969 119.881 46.7036C119.684 46.7069 119.49 46.7489 119.31 46.8271C119.129 46.9054 118.966 47.0185 118.829 47.1598C118.553 47.4453 118.402 47.8287 118.409 48.2257V54.8323C118.409 55.2293 118.567 55.6101 118.847 55.8908C119.128 56.1715 119.509 56.3293 119.906 56.3293C120.303 56.3293 120.684 56.1715 120.964 55.8908C121.245 55.6101 121.403 55.2293 121.403 54.8323V54.8107Z" fill="#686058"/>
<path d="M125.152 52.0903H127.988V53.177H125.152V52.0903Z" fill="#686058"/>
<path d="M129.657 45.7065H130.982L132.068 54.2851H132.119L133.4 45.7065H134.753L136.034 54.2707H136.07L137.142 45.7065H138.358L136.739 57.5309H135.472L134.076 48.5565H134.026L132.658 57.5309H131.392L129.657 45.7065Z" fill="#686058"/>
<path d="M140.856 45.7139H145.512V46.8797H142.223V50.73H144.857V51.9031H142.223V56.2787H145.533V57.4518H140.856V45.7139Z" fill="#686058"/>
<path d="M147.016 54.6957L148.297 54.6453C148.398 55.7176 148.779 56.5237 149.736 56.5237C150.693 56.5237 151.024 55.6672 151.024 54.8756C150.967 54.0344 150.603 53.2435 150.002 52.6518L148.599 51.0973C147.793 50.3428 147.294 49.318 147.196 48.2186C147.165 47.8718 147.21 47.5225 147.326 47.1944C147.443 46.8663 147.628 46.5672 147.871 46.3173C148.113 46.0674 148.406 45.8726 148.731 45.7462C149.055 45.6197 149.403 45.5646 149.751 45.5845C151.046 45.5845 152.068 46.3042 152.183 48.3337H150.967C150.837 47.1966 150.456 46.6497 149.664 46.6497C148.873 46.6497 148.462 47.1247 148.462 48.089C148.59 48.9042 148.997 49.6497 149.614 50.1977L150.837 51.5795C151.721 52.4329 152.237 53.5972 152.277 54.8252C152.277 56.4661 151.355 57.6536 149.693 57.6536C148.03 57.6536 147.131 56.5596 147.016 54.6957Z" fill="#686058"/>
<path d="M155.868 46.8654H153.623V45.7139H159.452V46.8654H157.235V57.4518H155.868V46.8654Z" fill="#686058"/>
<path d="M161.928 45.7139H166.57V46.8654H163.288V50.766H165.893V51.9535H163.288V57.4518H161.928V45.7139Z" fill="#686058"/>
<path d="M168.808 45.7139H170.175V57.4518H168.808V45.7139Z" fill="#686058"/>
<path d="M173.248 45.7139H177.912V46.8797H174.616V50.73H177.25V51.9031H174.616V56.2787H177.926V57.4518H173.248V45.7139Z" fill="#686058"/>
<path d="M180.639 45.7139H181.999V56.2644H185.31V57.4518H180.639V45.7139Z" fill="#686058"/>
<path d="M186.814 45.7139H189.592C191.139 45.7139 192.327 46.4983 192.327 48.1824V54.7818C192.327 56.5954 191.139 57.4518 189.563 57.4518H186.814V45.7139ZM189.477 56.2787C189.678 56.2919 189.879 56.2616 190.066 56.1899C190.254 56.1182 190.424 56.0068 190.565 55.8633C190.706 55.7198 190.814 55.5476 190.882 55.3584C190.95 55.1693 190.977 54.9677 190.96 54.7674V48.2903C190.974 48.0938 190.946 47.8964 190.876 47.7121C190.806 47.5278 190.696 47.3611 190.555 47.2238C190.414 47.0865 190.244 46.982 190.057 46.9175C189.871 46.8531 189.673 46.8304 189.477 46.851H188.174V56.2787H189.477Z" fill="#686058"/>
<path d="M118.027 17.8049C117.48 14.4224 117.041 11.738 117.041 11.738L108.175 15.3364H108.132L108.297 15.9985C108.297 15.9985 110.55 15.1277 111.305 15.9625C111.457 16.1194 111.566 16.3127 111.622 16.5239C111.831 17.1932 112.14 18.575 112.702 21.6264C112.744 21.849 112.741 22.0778 112.693 22.2991C112.644 22.5205 112.552 22.7298 112.421 22.9146L112.385 22.9506L108.398 26.9808C108.24 25.9589 108.29 26.2611 108.398 26.9808C107.506 21.1658 105.951 11.7236 105.951 11.7236L97.0414 15.358L97.1997 16.0129C97.1997 16.0129 99.4595 15.1421 100.215 16.0129C100.368 16.1666 100.477 16.3577 100.532 16.5671C100.733 17.2364 101.05 18.6182 101.611 21.6696C101.659 21.9127 101.651 22.1635 101.588 22.403C101.524 22.6424 101.407 22.8642 101.244 23.0514L97.3077 27.0312C96.4153 21.2162 94.868 11.8172 94.868 11.8172L85.9584 15.4516L86.1239 16.1137C86.1239 16.1137 88.3765 15.2429 89.1322 16.1137C89.4848 16.5095 89.7295 16.3368 92.6658 33.9329V33.9833C92.709 34.3143 92.9033 36.495 90.6075 38.4453L91.3272 39.2729C91.3272 39.2729 98.4376 34.6166 97.7251 29.622L97.6603 29.219L102.194 24.6706C102.605 27.0024 103.123 29.9963 103.763 33.8393V33.8969C103.814 34.2568 103.979 36.4158 101.705 38.3517L102.389 39.1722C102.389 39.1722 109.492 34.5446 108.772 29.5069C108.772 29.3917 108.772 29.2622 108.722 29.1398L113.292 24.5843L116.825 21.0579C117.615 20.1598 118.043 19.0006 118.027 17.8049Z" fill="#686058"/>
</svg>
