<svg width="48" height="48" viewBox="0 0 48 48" fill="none" xmlns="http://www.w3.org/2000/svg">
<path d="M17 8C17 8.91925 17.1811 9.82951 17.5328 10.6788C17.8846 11.5281 18.4002 12.2997 19.0503 12.9497C19.7003 13.5998 20.4719 14.1154 21.3212 14.4672C22.1705 14.8189 23.0807 15 24 15C24.9193 15 25.8295 14.8189 26.6788 14.4672C27.5281 14.1154 28.2997 13.5998 28.9497 12.9497C29.5998 12.2997 30.1154 11.5281 30.4672 10.6788C30.8189 9.82951 31 8.91925 31 8C31 7.08075 30.8189 6.1705 30.4672 5.32122C30.1154 4.47194 29.5998 3.70026 28.9497 3.05025C28.2997 2.40024 27.5281 1.88463 26.6788 1.53284C25.8295 1.18106 24.9193 1 24 1C23.0807 1 22.1705 1.18106 21.3212 1.53284C20.4719 1.88463 19.7003 2.40024 19.0503 3.05025C18.4002 3.70026 17.8846 4.47194 17.5328 5.32122C17.1811 6.1705 17 7.08075 17 8V8Z" stroke="#EB9D87" stroke-width="2" stroke-linecap="round" stroke-linejoin="round"/>
<path d="M17.094 9.15424C18.4065 9.13949 19.7009 8.84604 20.8915 8.29334C22.0821 7.74064 23.1416 6.94129 24 5.94824C24.8586 6.94004 25.9181 7.73818 27.1083 8.28984C28.2985 8.84149 29.5922 9.13408 30.904 9.14824" stroke="#EB9D87" stroke-width="2" stroke-linecap="round" stroke-linejoin="round"/>
<path d="M28.434 19.4299L24 26.4119L19.604 19.4019" stroke="#EB9D87" stroke-width="2" stroke-linecap="round" stroke-linejoin="round"/>
<path d="M24 18C25.7102 17.9983 27.371 18.5735 28.7138 19.6325C30.0567 20.6915 31.0031 22.1725 31.4 23.836L35 37H29.086L26.978 47H20.978L18.87 37H13L16.6 23.836C16.9969 22.1725 17.9433 20.6915 19.2862 19.6325C20.629 18.5735 22.2898 17.9983 24 18V18Z" stroke="#EB9D87" stroke-width="2" stroke-linecap="round" stroke-linejoin="round"/>
</svg>
