<svg width="48" height="48" viewBox="0 0 48 48" fill="none" xmlns="http://www.w3.org/2000/svg">
<path d="M24 22V28" stroke="#1069C7" stroke-width="2" stroke-linecap="round" stroke-linejoin="round"/>
<path d="M28 47L29 35H34V28C34 25.3478 32.9464 22.8043 31.0711 20.9289C29.1957 19.0536 26.6522 18 24 18C21.3478 18 18.8043 19.0536 16.9289 20.9289C15.0536 22.8043 14 25.3478 14 28V35H19L20 47H28Z" stroke="#1069C7" stroke-width="2" stroke-linecap="round" stroke-linejoin="round"/>
<path d="M17.968 4.4458C19.052 5.57009 20.3516 6.46428 21.789 7.07492C23.2265 7.68556 24.7723 8.00012 26.334 7.9998C27.9157 8.00016 29.4808 7.67828 30.934 7.0538" stroke="#1069C7" stroke-width="2" stroke-linecap="round" stroke-linejoin="round"/>
<path d="M17 8C17 8.91925 17.1811 9.82951 17.5328 10.6788C17.8846 11.5281 18.4002 12.2997 19.0503 12.9497C19.7003 13.5998 20.4719 14.1154 21.3212 14.4672C22.1705 14.8189 23.0807 15 24 15C24.9193 15 25.8295 14.8189 26.6788 14.4672C27.5281 14.1154 28.2997 13.5998 28.9497 12.9497C29.5998 12.2997 30.1154 11.5281 30.4672 10.6788C30.8189 9.82951 31 8.91925 31 8C31 7.08075 30.8189 6.1705 30.4672 5.32122C30.1154 4.47194 29.5998 3.70026 28.9497 3.05025C28.2997 2.40024 27.5281 1.88463 26.6788 1.53284C25.8295 1.18106 24.9193 1 24 1C23.0807 1 22.1705 1.18106 21.3212 1.53284C20.4719 1.88463 19.7003 2.40024 19.0503 3.05025C18.4002 3.70026 17.8846 4.47194 17.5328 5.32122C17.1811 6.1705 17 7.08075 17 8V8Z" stroke="#1069C7" stroke-width="2" stroke-linecap="round" stroke-linejoin="round"/>
</svg>
