<svg width="131" height="12" viewBox="0 0 131 12" fill="none" xmlns="http://www.w3.org/2000/svg">
<g clip-path="url(#clip0)">
<path d="M4.92611 11.0473H0.606114C0.48352 11.046 0.36129 11.0337 0.240877 11.0107C0.168929 11.0012 0.103519 10.964 0.0585425 10.907C0.0135656 10.8501 -0.007434 10.7778 4.57081e-06 10.7056C4.57081e-06 10.6192 0.0458228 10.508 0.261823 10.4726L0.752732 10.3941C0.923388 10.3674 1.09034 10.3208 1.25019 10.2553C1.31623 10.2337 1.37502 10.1943 1.42007 10.1414C1.46511 10.0885 1.49467 10.0242 1.50546 9.95554V9.93852C1.50546 9.92936 1.51724 9.85212 1.52771 9.50652C1.53688 9.23423 1.54473 8.87423 1.54997 8.40296C1.5552 7.93168 1.57091 7.44339 1.57091 6.87787C1.57091 6.31234 1.58793 5.73503 1.59186 5.14594C1.59579 4.55685 1.5984 3.98216 1.5984 3.42187V1.93867C1.60324 1.798 1.58556 1.65746 1.54604 1.52237C1.51909 1.43454 1.46614 1.35695 1.39419 1.29983C1.31596 1.24429 1.22665 1.20633 1.13237 1.18856C1.01586 1.16499 0.87055 1.14405 0.718695 1.12572C0.674766 1.12331 0.631039 1.11806 0.587786 1.11001C0.521387 1.10206 0.456008 1.08714 0.392732 1.0655C0.334611 1.04659 0.278834 1.02111 0.226477 0.989574C0.19875 0.975749 0.175249 0.954723 0.158436 0.928698C0.141624 0.902673 0.132118 0.872607 0.130914 0.841647C0.131501 0.78174 0.152616 0.723847 0.190734 0.677629C0.228852 0.63141 0.281668 0.599662 0.340368 0.587683C0.480949 0.544286 0.626644 0.519636 0.773677 0.514374C0.948097 0.505024 1.12289 0.505024 1.29731 0.514374C1.4688 0.523538 1.6128 0.527465 1.7267 0.527465C2.14953 0.527465 2.5763 0.509138 2.99259 0.471174C3.40888 0.433211 3.84742 0.413574 4.28335 0.413574C4.69159 0.416458 5.09853 0.459871 5.49819 0.543174C5.91006 0.625649 6.30722 0.769508 6.67637 0.969938C7.03111 1.16206 7.33666 1.43356 7.56917 1.76325C7.81024 2.12204 7.93293 2.54732 7.92 2.97939C7.9377 3.48642 7.75363 3.97979 7.40815 4.35132C7.0938 4.67816 6.70928 4.92928 6.28364 5.08572C6.3366 5.10763 6.39081 5.12643 6.44597 5.14201C6.59389 5.18652 6.70779 5.22187 6.77586 5.25067C7.32506 5.45249 7.81012 5.79786 8.18051 6.25081C8.54346 6.71625 8.73362 7.29322 8.71855 7.88325C8.72997 8.36693 8.62821 8.84659 8.42139 9.28398C8.23243 9.66492 7.95991 9.9983 7.62415 10.2592C7.27652 10.5224 6.88202 10.7169 6.46168 10.8326C6.00342 10.9588 5.53097 11.0261 5.05571 11.0329C5.01316 11.0424 4.96971 11.0472 4.92611 11.0473ZM3.40364 5.63554C3.31233 5.63559 3.22242 5.65807 3.14182 5.70099C3.1037 5.72587 3.07356 5.76119 3.05498 5.80275C3.03641 5.8443 3.0302 5.89033 3.0371 5.93532V8.83888C3.0375 9.0649 3.05368 9.29061 3.08553 9.51437C3.11233 9.73613 3.22057 9.94001 3.38924 10.0864C3.549 10.2193 3.74625 10.2989 3.95346 10.3142C4.168 10.3412 4.38393 10.3556 4.60015 10.3574C5.45106 10.3574 6.08989 10.1401 6.49833 9.71074C6.90677 9.28136 7.11491 8.71714 7.11491 8.03248C7.1213 7.61993 7.01493 7.21346 6.80728 6.85692C6.65932 6.59087 6.45408 6.36104 6.2064 6.18405C5.9696 6.02146 5.70906 5.89649 5.43404 5.81357C5.14946 5.72861 4.85603 5.67677 4.55957 5.6591C4.25324 5.64077 3.94691 5.6303 3.6432 5.6303L3.40364 5.63554ZM4.21266 1.05372C4.10968 1.05372 3.9971 1.05634 3.87491 1.06157C3.75659 1.06546 3.63919 1.08393 3.52539 1.11656C3.42213 1.14445 3.32523 1.19201 3.24 1.25663C3.16516 1.31894 3.11809 1.40839 3.1091 1.50536C3.09044 1.6096 3.07907 1.71502 3.07506 1.82085C3.07506 1.9295 3.0672 2.03423 3.0672 2.13765V4.86056C3.0672 4.87365 3.07637 4.9103 3.15884 4.97314C3.25558 5.03027 3.36754 5.05632 3.47957 5.04776H3.96262C4.28595 5.04944 4.60824 5.01118 4.92219 4.93387C5.20501 4.86633 5.47185 4.74403 5.70764 4.57387C5.93618 4.4016 6.1202 4.17717 6.24437 3.91932C6.38477 3.61477 6.45287 3.28189 6.44335 2.94667C6.44335 2.33139 6.25222 1.85619 5.8752 1.53547C5.46255 1.20434 4.94425 1.03328 4.41557 1.05372H4.21266Z" fill="#686058"/>
<path d="M12.5804 11.0473C12.4783 11.0473 12.3709 11.0473 12.2636 11.0329C12.1863 11.0329 12.0554 10.9806 12.0554 10.7489C12.0554 10.6782 12.0934 10.5813 12.2727 10.5237C12.3958 10.4844 12.5345 10.4465 12.7034 10.4085C12.8673 10.3714 13.0284 10.3224 13.1852 10.2619C13.3237 10.2119 13.4434 10.1205 13.5281 10.0001C13.6154 9.83626 13.6654 9.65524 13.6748 9.46989C13.7048 9.19252 13.7192 8.91368 13.718 8.63469C13.718 8.32967 13.718 8.01025 13.7036 7.68822C13.6892 7.36618 13.6892 7.09782 13.6892 6.85302C13.6892 6.13302 13.6892 5.38291 13.6748 4.55818C13.6656 3.79498 13.6604 3.02262 13.6604 2.26335V1.88109C13.6599 1.84191 13.6555 1.80288 13.6473 1.76458C13.6289 1.52895 13.553 1.38364 13.4143 1.31164C13.2603 1.23302 13.0937 1.18207 12.922 1.16109C12.727 1.13622 12.5633 1.11265 12.422 1.08909C12.202 1.05375 12.1601 0.918909 12.1601 0.812872C12.1573 0.764115 12.1698 0.715698 12.1959 0.67439C12.2219 0.633081 12.2602 0.600944 12.3055 0.582472C12.4013 0.544887 12.5016 0.519808 12.6039 0.507854C12.7224 0.492474 12.842 0.487219 12.9613 0.492145C13.0835 0.497381 13.1869 0.5 13.2716 0.5C13.5884 0.5 13.9143 0.506545 14.239 0.520945C14.5636 0.535345 14.8935 0.54189 15.2169 0.54189C15.8557 0.54189 16.5024 0.54189 17.1399 0.520945C17.7775 0.499999 18.4215 0.5 19.0643 0.5H19.2214C19.3294 0.499783 19.4372 0.509423 19.5434 0.528799C19.5959 0.532823 19.646 0.552591 19.6871 0.58552C19.7282 0.61845 19.7584 0.66301 19.7738 0.713381C19.81 0.89138 19.8293 1.0724 19.8314 1.25404C19.8314 1.34044 19.8314 1.44255 19.8249 1.56298C19.8183 1.68342 19.817 1.8104 19.817 1.99629C19.8175 2.17754 19.8057 2.35861 19.7817 2.53825C19.7712 2.61025 19.7398 2.83149 19.5827 2.84982C19.5207 2.84697 19.461 2.82544 19.4115 2.78806C19.362 2.75068 19.3249 2.69919 19.3052 2.64036C19.2396 2.50145 19.1819 2.35897 19.1324 2.2136C19.0761 2.05389 19.0119 1.89549 18.9412 1.74102C18.8852 1.60543 18.7863 1.49189 18.6598 1.41767C18.5487 1.36223 18.43 1.32341 18.3076 1.30247C18.1316 1.26707 17.9537 1.24129 17.7748 1.22524C17.5759 1.20691 17.369 1.19513 17.1609 1.18989C16.9527 1.18465 16.7472 1.18989 16.5587 1.18989H15.9343C15.7704 1.17801 15.6072 1.22133 15.4708 1.31294C15.3658 1.39753 15.2861 1.5094 15.2404 1.63629C15.188 1.78501 15.1584 1.94081 15.1527 2.0984C15.1423 2.27382 15.1383 2.444 15.1383 2.60109C15.1383 2.92444 15.1383 3.24647 15.1449 3.56982C15.1514 3.89316 15.1527 4.21651 15.1527 4.53985V4.86713C15.1507 4.95891 15.1586 5.05065 15.1763 5.14073C15.212 5.17693 15.2575 5.20195 15.3072 5.21273C15.3849 5.23177 15.4642 5.24317 15.5441 5.24676C15.6332 5.24676 15.7169 5.24676 15.806 5.24676C15.895 5.24676 15.9644 5.23891 16.0233 5.23891C16.2851 5.23891 16.5377 5.23891 16.8087 5.23236C17.0677 5.22779 17.3262 5.20637 17.5824 5.16822C17.6961 5.1579 17.8062 5.12293 17.905 5.06573C18.0038 5.00853 18.0889 4.93048 18.1545 4.83702C18.2786 4.6342 18.3489 4.40304 18.3587 4.16545V4.14451C18.3875 4.08611 18.4194 4.0293 18.4543 3.97433C18.4771 3.93998 18.5086 3.9123 18.5457 3.89414C18.5827 3.87597 18.6239 3.86795 18.665 3.87091C18.6923 3.8684 18.7199 3.87149 18.746 3.88C18.7721 3.88851 18.7961 3.90225 18.8167 3.92039C18.8373 3.93853 18.854 3.96068 18.8657 3.98549C18.8775 4.01029 18.884 4.03723 18.8849 4.06465C18.8949 4.16558 18.8997 4.26695 18.8993 4.36836C18.8993 4.55818 18.8993 4.76109 18.8849 4.96924C18.8705 5.17738 18.8719 5.37244 18.8719 5.56618C18.8719 5.75993 18.8719 5.95891 18.8849 6.15527C18.898 6.35164 18.8993 6.55978 18.8993 6.7496C18.8993 6.79673 18.8993 6.85433 18.9072 6.92371C18.9112 6.99667 18.9086 7.06984 18.8993 7.14233C18.8916 7.21107 18.8659 7.27655 18.8247 7.33215C18.8016 7.36093 18.772 7.38379 18.7383 7.39882C18.7046 7.41385 18.6678 7.42061 18.631 7.41855C18.5836 7.41704 18.5379 7.4005 18.5004 7.37132C18.463 7.34215 18.4359 7.30184 18.4228 7.25622C18.3795 7.15625 18.3474 7.05174 18.3273 6.94465C18.3024 6.83469 18.2815 6.72473 18.2618 6.61476C18.2527 6.53984 18.2315 6.46689 18.199 6.39876L18.1911 6.38175C18.1779 6.30455 18.1475 6.23131 18.1022 6.16742C18.0569 6.10353 17.9978 6.05062 17.9293 6.01258C17.7639 5.92023 17.5828 5.85942 17.3952 5.83324C17.1786 5.80056 16.9596 5.78655 16.7407 5.79135C16.5076 5.79135 16.3021 5.7992 16.1215 5.7992C16.0756 5.7992 16.0154 5.7992 15.9408 5.7992L15.6986 5.8136C15.6148 5.8136 15.5337 5.82538 15.4538 5.83455C15.3966 5.8405 15.3398 5.84968 15.2836 5.86204C15.2666 5.86204 15.2313 5.8712 15.2103 5.94975C15.1912 6.0312 15.1776 6.11386 15.1697 6.19716C15.1626 6.28953 15.1626 6.38232 15.1697 6.47469C15.1697 6.57025 15.1697 6.63833 15.1697 6.67629V8.9384C15.1697 9.04313 15.1697 9.15833 15.1776 9.28531C15.1819 9.41187 15.1959 9.53791 15.2195 9.66233C15.2402 9.78058 15.2768 9.8955 15.3281 10.004C15.3718 10.1001 15.4459 10.1792 15.5389 10.2292C15.6597 10.2762 15.7867 10.3053 15.9159 10.3156C16.1044 10.3391 16.3087 10.3548 16.5155 10.3653C16.7223 10.3758 16.9331 10.381 17.1321 10.3863C17.3311 10.3915 17.4711 10.3863 17.5562 10.3863H17.9961C18.127 10.3863 18.2579 10.3863 18.4045 10.3719C18.5511 10.3575 18.6991 10.3509 18.8352 10.3365C18.9621 10.3242 19.088 10.3036 19.2122 10.275C19.3085 10.2537 19.4008 10.2175 19.4858 10.1676C19.6293 10.0674 19.749 9.9369 19.8367 9.78538C19.9505 9.60473 20.0579 9.42276 20.1548 9.24604C20.2516 9.06931 20.3498 8.90829 20.4362 8.77738C20.5383 8.6216 20.6352 8.54567 20.7321 8.54567C20.9114 8.54567 20.9651 8.63207 20.9795 8.70538C20.9953 8.79177 20.9824 8.88094 20.9428 8.95935C20.9428 8.97636 20.9337 9.01171 20.9153 9.09811C20.9057 9.15648 20.8894 9.21357 20.8669 9.26829C20.8669 9.28662 20.8381 9.38349 20.8015 9.54713C20.7648 9.71076 20.7229 9.89011 20.6797 10.0708C20.6365 10.2514 20.5841 10.5001 20.5174 10.8039L20.5095 10.8235C20.4652 10.8881 20.4049 10.9402 20.3344 10.9746C20.264 11.009 20.1859 11.0246 20.1076 11.0199H13.4051C13.2742 11.0199 13.1433 11.0199 13.0045 11.0329C12.8657 11.046 12.7217 11.0473 12.5804 11.0473Z" fill="#686058"/>
<path d="M34.0365 11.7031C33.9399 11.7035 33.8433 11.6987 33.7472 11.6887C33.6503 11.6796 33.5691 11.6691 33.5024 11.6599C32.7339 11.5378 32.019 11.1902 31.4484 10.6611C30.8912 10.1302 30.4615 9.47984 30.1917 8.759C30.0346 8.46445 29.884 8.14634 29.7453 7.82038C29.6179 7.51739 29.4628 7.22684 29.2819 6.95245C29.1209 6.70807 28.9189 6.49328 28.6849 6.31754C28.4432 6.14885 28.1534 6.06296 27.8589 6.07274C27.6966 6.07274 27.5971 6.10285 27.5604 6.15784C27.5099 6.29452 27.4906 6.4408 27.5041 6.58591V9.5222C27.4937 9.70355 27.5232 9.88497 27.5905 10.0537C27.6387 10.1584 27.7196 10.2448 27.8209 10.2998C27.9374 10.3577 28.0633 10.3945 28.1927 10.4085C28.3419 10.4268 28.5147 10.4556 28.7072 10.4935H28.7229C28.7514 10.5016 28.7811 10.5043 28.8106 10.5014C28.8876 10.5011 28.9643 10.5117 29.0384 10.5328C29.0837 10.5435 29.1234 10.5708 29.1496 10.6093C29.1758 10.6479 29.1866 10.6949 29.1798 10.741C29.1798 10.9413 29.0816 11.0119 28.9991 11.0368C28.8544 11.0721 28.7055 11.0875 28.5566 11.0826C28.2189 11.0826 27.8733 11.0656 27.529 11.0329C26.9074 10.9666 26.2808 10.9618 25.6583 11.0185C25.3677 11.0473 25.0718 11.0617 24.7786 11.0617C24.6861 11.0701 24.5929 11.0553 24.5076 11.0185C24.45 10.9818 24.4238 10.8954 24.4238 10.7344C24.4239 10.69 24.4393 10.647 24.4674 10.6126C24.4956 10.5782 24.5348 10.5547 24.5783 10.5459C24.6748 10.5167 24.7732 10.4944 24.8728 10.4791C24.9907 10.4608 25.115 10.4386 25.2486 10.415C25.3741 10.3916 25.4949 10.3473 25.6059 10.2841C25.7159 10.2227 25.8094 10.1356 25.8782 10.0301C25.9552 9.89732 25.9917 9.74486 25.983 9.59158V6.65791C25.983 5.87245 25.9895 5.05558 26.0039 4.24787C26.017 3.46242 26.0248 2.65602 26.0248 1.83915C26.0335 1.69557 25.9974 1.55284 25.9214 1.43071C25.8573 1.33789 25.7657 1.26742 25.6596 1.22911C25.5434 1.18698 25.4217 1.16184 25.2983 1.15449L24.9972 1.13093H24.9226C24.8177 1.12472 24.7142 1.10402 24.615 1.0694C24.5689 1.05412 24.5293 1.02396 24.5022 0.983671C24.4752 0.943381 24.4624 0.895249 24.4657 0.846854C24.4657 0.643945 24.5704 0.577182 24.6582 0.556236C24.8701 0.513708 25.0875 0.504872 25.3022 0.530054C25.4066 0.540226 25.5115 0.545033 25.6164 0.544454H26.8522C27.2135 0.544454 27.5787 0.544454 27.9361 0.523509C28.2935 0.502563 28.664 0.502563 29.0253 0.502563C29.3686 0.505874 29.7106 0.546698 30.0451 0.624309C30.413 0.708167 30.7617 0.860971 31.0727 1.07464C31.4015 1.30484 31.6744 1.60591 31.8712 1.95565C32.0991 2.39012 32.2092 2.87664 32.1907 3.36685C32.1929 3.66925 32.1252 3.96807 31.993 4.24002C31.8639 4.50568 31.6928 4.74879 31.4864 4.96002C31.2783 5.17394 31.0464 5.36325 30.7952 5.52424C30.5844 5.65915 30.3658 5.78155 30.1406 5.89078C30.3284 6.01281 30.487 6.17459 30.6054 6.36467C30.8005 6.66605 30.9754 6.98005 31.129 7.3046C31.3035 7.66765 31.4903 8.05034 31.6893 8.45267C31.883 8.84809 32.1048 9.22914 32.353 9.59289C32.5846 9.93818 32.8581 10.2535 33.1672 10.5315C33.4568 10.7934 33.8104 10.974 34.1923 11.0551C34.2948 11.1018 34.4018 11.1378 34.5117 11.1625C34.6923 11.2018 34.7198 11.3157 34.7198 11.3811C34.7062 11.4811 34.6547 11.5721 34.5758 11.6351L34.5549 11.6482C34.386 11.6935 34.2111 11.7121 34.0365 11.7031ZM28.2765 1.06809C27.9636 1.06809 27.7528 1.12176 27.6651 1.2278C27.5603 1.36517 27.5087 1.5358 27.5198 1.70824V2.1926C27.5198 2.54605 27.5198 2.95449 27.5054 3.47682C27.495 3.94155 27.491 4.37354 27.491 4.75842C27.491 4.90242 27.491 5.02024 27.4832 5.12496C27.4772 5.20178 27.4856 5.27903 27.508 5.35275C27.5188 5.37912 27.5355 5.40266 27.5568 5.4215C27.5782 5.44035 27.6036 5.45401 27.6311 5.4614C27.7475 5.49286 27.868 5.50611 27.9885 5.50067C28.3396 5.50239 28.6902 5.47171 29.0358 5.40904C29.3353 5.35831 29.6208 5.24501 29.8736 5.07653C30.1122 4.90863 30.3016 4.67992 30.4221 4.41413C30.571 4.06989 30.6429 3.69728 30.6328 3.32235C30.64 2.98802 30.579 2.65574 30.4535 2.34576C30.3418 2.07992 30.1744 1.84111 29.9626 1.6454C29.7488 1.45181 29.4968 1.3051 29.223 1.21471C28.9175 1.11476 28.5978 1.06523 28.2765 1.06809Z" fill="#686058"/>
<path d="M41.6198 11.0027C40.9227 11.0098 40.2288 10.9055 39.5646 10.6937C38.9636 10.5021 38.4131 10.1788 37.9531 9.74726C37.4889 9.29793 37.131 8.75045 36.9058 8.14493C36.644 7.42145 36.5176 6.65599 36.5327 5.88675C36.5203 5.08787 36.6534 4.29341 36.9254 3.54217C37.1694 2.88247 37.5484 2.28098 38.0382 1.77621C38.5263 1.28583 39.115 0.907099 39.7635 0.666096C40.4789 0.403596 41.2362 0.274049 41.9982 0.283842C42.4365 0.287948 42.8726 0.345984 43.2968 0.456642C43.7184 0.558127 44.1202 0.729357 44.4854 0.96326C44.493 0.97108 44.5023 0.977075 44.5125 0.980792C44.5228 0.984508 44.5337 0.98585 44.5446 0.984715C44.5554 0.983581 44.5659 0.98 44.5751 0.974242C44.5844 0.968485 44.5922 0.960701 44.598 0.951478C44.6627 0.882141 44.7206 0.806739 44.7708 0.726314C44.8274 0.630132 44.8904 0.537852 44.9593 0.450096C44.9892 0.40519 45.0294 0.36809 45.0765 0.341898C45.1237 0.315707 45.1764 0.301186 45.2303 0.299551C45.2971 0.299551 45.3822 0.332278 45.4136 0.48806C45.4348 0.60466 45.4449 0.723009 45.4437 0.841514C45.4437 0.972423 45.4358 1.11119 45.4214 1.26042C45.407 1.40966 45.4005 1.52224 45.4005 1.62566C45.4005 1.86391 45.4005 2.11395 45.3861 2.36922C45.3717 2.6245 45.3625 2.85882 45.3442 3.11148C45.3345 3.18718 45.3042 3.25874 45.2565 3.31831C45.2207 3.34819 45.1775 3.36795 45.1315 3.37554C45.0854 3.38314 45.0382 3.37829 44.9947 3.36151C44.97 3.35415 44.9445 3.35019 44.9187 3.34973C44.8756 3.34661 44.8342 3.33163 44.7991 3.30644C44.764 3.28126 44.7365 3.24686 44.7198 3.20704C44.6691 3.11272 44.6292 3.01305 44.6006 2.90988C44.5692 2.79861 44.5391 2.67817 44.5077 2.54202C44.4831 2.42608 44.4508 2.31193 44.4108 2.20035C44.3232 1.99995 44.1927 1.8212 44.0286 1.67671C43.8454 1.51308 43.6395 1.37683 43.4172 1.27221C43.1806 1.15795 42.9321 1.07015 42.6763 1.01039C42.423 0.951887 42.1639 0.92246 41.9039 0.922678C41.2166 0.922678 40.6406 1.05359 40.1929 1.32195C39.7507 1.57984 39.3792 1.94324 39.1116 2.3797C38.8319 2.8461 38.6373 3.3585 38.5369 3.89301C38.4239 4.4691 38.3673 5.05486 38.3681 5.64195C38.3659 6.24412 38.4274 6.84482 38.5513 7.4341C38.6593 7.968 38.8591 8.47913 39.1417 8.94479C39.4009 9.36768 39.7573 9.72266 40.1811 9.98028C40.649 10.2482 41.1818 10.3814 41.7206 10.3651C42.206 10.3813 42.6911 10.3266 43.1606 10.2028C43.4443 10.1291 43.6993 9.97174 43.8924 9.75119C44.0521 9.54124 44.1468 9.28911 44.1647 9.02595C44.1935 8.7314 44.2079 8.38581 44.2079 7.997C44.2079 7.48384 44.1974 7.07279 44.1791 6.77562C44.1774 6.55535 44.1329 6.3375 44.0482 6.13417C44.0191 6.07284 43.9757 6.01935 43.9218 5.97814C43.8678 5.93693 43.8048 5.90919 43.7379 5.89722C43.536 5.85939 43.3307 5.84271 43.1253 5.84748C43.0099 5.84866 42.8946 5.83901 42.781 5.81868C42.692 5.80166 42.5859 5.73097 42.5859 5.49271C42.5844 5.4536 42.5931 5.41476 42.6113 5.38008C42.6294 5.34539 42.6563 5.31607 42.6894 5.29504C42.7522 5.25687 42.8214 5.23027 42.8936 5.2165C42.9661 5.20124 43.0396 5.19118 43.1135 5.18639C43.1868 5.18639 43.2444 5.17853 43.2955 5.17853C43.5795 5.17853 43.8191 5.18901 44.0181 5.20864C44.2171 5.22828 44.4488 5.23613 44.7302 5.23613C45.0008 5.23799 45.2712 5.22619 45.5406 5.20079C45.7723 5.17722 46.0498 5.16544 46.3627 5.16544C46.4776 5.16586 46.5923 5.17549 46.7057 5.19424C46.7726 5.2034 46.8334 5.23807 46.8753 5.29101C46.9173 5.34395 46.9372 5.41106 46.9308 5.47831C46.9353 5.52986 46.9215 5.58135 46.8919 5.62373C46.8622 5.66611 46.8185 5.69667 46.7685 5.71002C46.6648 5.73865 46.5579 5.75405 46.4504 5.75584C46.3242 5.76021 46.1983 5.77157 46.0734 5.78988C45.9529 5.80695 45.8396 5.85727 45.7461 5.93519C45.7212 5.94828 45.6937 5.97184 45.6636 6.05431C45.633 6.13891 45.6124 6.22677 45.6021 6.31613C45.5877 6.42479 45.5759 6.53999 45.5667 6.66304C45.5576 6.7861 45.5523 6.90261 45.5523 7.00079V7.28486C45.5523 7.40791 45.5523 7.57417 45.5602 7.78231L45.5746 8.43031C45.5746 8.65417 45.5838 8.87017 45.589 9.08486C45.5942 9.29955 45.5955 9.46188 45.5955 9.58493C45.5955 9.6517 45.5955 9.73417 45.589 9.82973C45.59 9.92257 45.5559 10.0124 45.4934 10.0811C45.2879 10.328 45.015 10.5099 44.708 10.6047C44.3553 10.7256 43.9925 10.8149 43.6241 10.8718C43.2505 10.9324 42.8737 10.9704 42.4956 10.9857C42.1369 11.0027 41.8411 11.0027 41.6198 11.0027Z" fill="#686058"/>
<path d="M60.4918 11.0472H60.336C60.1058 11.0472 59.8758 11.0328 59.6474 11.004C59.0975 10.9448 58.5428 10.9444 57.9927 11.0027C57.6681 11.0302 57.3382 11.0446 57.0018 11.0446C56.9052 11.0447 56.812 11.0093 56.7399 10.9451C56.7013 10.9135 56.6705 10.8735 56.6498 10.8281C56.6291 10.7827 56.6192 10.7331 56.6208 10.6833C56.6208 10.6073 56.6535 10.4738 56.8682 10.4424C56.9991 10.4228 57.1562 10.4084 57.3199 10.3992C57.4674 10.393 57.6137 10.3697 57.7558 10.3298C57.8631 10.2997 57.9129 10.2212 57.9129 10.085C57.9125 10.0588 57.9086 10.0329 57.9011 10.0078C57.8919 9.97505 57.8828 9.94494 57.8736 9.91876C57.8448 9.82057 57.7925 9.67527 57.7178 9.48545L57.4482 8.79425C57.3443 8.53243 57.2261 8.23832 57.0934 7.91192C56.9607 7.58552 56.8242 7.25519 56.6837 6.92094C56.6378 6.8293 56.5973 6.7429 56.5632 6.65912C56.548 6.61425 56.5255 6.57222 56.4965 6.53476C56.412 6.46018 56.3041 6.41756 56.1914 6.41432C56.0396 6.40123 55.8825 6.39337 55.728 6.39337H55.457C55.3431 6.39337 55.1952 6.39337 55.0093 6.38683C54.6559 6.37767 54.2736 6.37374 53.877 6.39337C53.7345 6.39915 53.5927 6.41578 53.4528 6.44312C53.2918 6.82014 53.136 7.21156 52.9894 7.60428C52.8428 7.99701 52.7158 8.36356 52.615 8.67774C52.5142 8.99192 52.4291 9.26552 52.3663 9.48938C52.3248 9.61427 52.2945 9.74264 52.2759 9.87294C52.2623 9.94281 52.2733 10.0152 52.3069 10.078C52.3405 10.1407 52.3948 10.1899 52.4605 10.2172C52.6181 10.2756 52.7828 10.313 52.9501 10.3285C53.1216 10.3458 53.2921 10.3724 53.4607 10.4084C53.5202 10.4178 53.5758 10.4437 53.6213 10.4833C53.6667 10.5229 53.7001 10.5744 53.7176 10.6321C53.7351 10.6897 53.736 10.7511 53.7202 10.8093C53.7044 10.8674 53.6725 10.9199 53.6282 10.9608C53.5646 11.0211 53.4802 11.0544 53.3926 11.0537C53.0821 11.0532 52.7719 11.0366 52.4631 11.004C52.1588 10.9713 51.8529 10.9547 51.5468 10.9542C51.352 10.953 51.1574 10.9648 50.9642 10.9896C50.7663 11.0148 50.5669 11.027 50.3673 11.0262C50.3294 11.0277 50.2918 11.0197 50.2577 11.0031C50.2237 10.9864 50.1943 10.9615 50.1722 10.9307C50.1329 10.8752 50.1119 10.8089 50.112 10.7409C50.105 10.6831 50.1151 10.6246 50.1409 10.5726C50.1667 10.5205 50.2072 10.477 50.2573 10.4476C50.3502 10.4048 50.4484 10.3744 50.5493 10.3573C50.6625 10.3379 50.7741 10.3099 50.8831 10.2735C50.9994 10.2308 51.0968 10.1483 51.158 10.0405C51.2066 9.96386 51.2478 9.88277 51.281 9.79832C51.3386 9.66741 51.3975 9.5365 51.4578 9.3925C51.518 9.2485 51.5782 9.10843 51.6279 8.9749C51.6777 8.84138 51.7209 8.73403 51.7497 8.66596C51.9539 8.14232 52.1568 7.62785 52.3532 7.14872C52.5495 6.66959 52.7629 6.14334 52.9711 5.63017C53.3202 4.76617 53.6693 3.9061 54.0183 3.04996C54.3674 2.19381 54.7165 1.33374 55.0656 0.469738C55.0821 0.418006 55.1055 0.368702 55.135 0.32312C55.1593 0.295804 55.1898 0.274842 55.2241 0.262063C55.2583 0.249285 55.2951 0.245078 55.3314 0.249811C55.3706 0.249011 55.4095 0.257768 55.4446 0.275329C55.4797 0.292889 55.51 0.318725 55.533 0.350611C55.57 0.40078 55.6008 0.455294 55.6246 0.512938C55.8419 1.0549 56.0645 1.60603 56.2922 2.16632C56.52 2.72792 56.7413 3.27774 56.9599 3.8197C57.3526 4.85257 57.7767 5.88807 58.2087 6.89868C58.6407 7.9093 59.1068 8.93694 59.5846 9.93185C59.6145 10.0063 59.6593 10.0738 59.7163 10.1303C59.7732 10.1868 59.8411 10.2311 59.9158 10.2604C60.063 10.3161 60.2145 10.3599 60.3687 10.3913C60.518 10.4201 60.6541 10.4516 60.7719 10.4856C60.8355 10.5012 60.8914 10.5389 60.9297 10.5918C60.9681 10.6448 60.9864 10.7097 60.9814 10.7749C60.9817 10.8292 60.9632 10.8819 60.9291 10.9241C60.895 10.9663 60.8473 10.9955 60.7942 11.0066C60.6962 11.0361 60.5941 11.0498 60.4918 11.0472ZM53.7605 5.68908H54.0655C54.2269 5.68908 54.4704 5.68646 54.7959 5.68123C55.1193 5.68123 55.5722 5.67468 56.1574 5.67468C56.1775 5.66325 56.1998 5.65612 56.2229 5.65374H56.2359C56.1142 5.32516 55.9925 4.9861 55.8733 4.64705C55.7398 4.27265 55.6167 3.92094 55.5042 3.59192C55.3903 3.26465 55.2934 2.98581 55.2122 2.75803C55.1638 2.62057 55.1298 2.53156 55.1062 2.47396C54.9936 2.73577 54.8963 2.96225 54.8143 3.15337C54.7187 3.37723 54.6245 3.60632 54.5302 3.84457C54.4359 4.08283 54.326 4.34857 54.2029 4.64312C54.0799 4.93766 53.9346 5.26756 53.7605 5.68908Z" fill="#686058"/>
<path d="M77.3896 11.0618H77.2482C76.9682 11.0615 76.6884 11.0449 76.4104 11.012C75.8345 10.9459 75.253 10.9459 74.6771 11.012C74.3728 11.0447 74.0669 11.0613 73.7608 11.0618C73.6651 11.0594 73.5697 11.0498 73.4754 11.033C73.279 11.0003 73.2489 10.8772 73.2489 10.8052C73.2475 10.7557 73.2601 10.7067 73.2854 10.6641C73.3106 10.6214 73.3475 10.5869 73.3916 10.5643C73.4662 10.5224 73.5317 10.4832 73.5867 10.4452L73.6011 10.436H73.6181C73.8207 10.4418 74.023 10.4184 74.2189 10.3667C74.3455 10.3351 74.4578 10.2623 74.5384 10.1598C74.6144 10.0458 74.662 9.91512 74.6771 9.77887C74.703 9.57571 74.7148 9.37101 74.7125 9.16622L74.5279 4.42207C74.5174 4.17465 74.5109 3.9508 74.507 3.75051C74.503 3.55022 74.4991 3.38396 74.4991 3.25044C74.512 3.10801 74.4914 2.96455 74.4389 2.83153C74.4134 2.8625 74.3902 2.89532 74.3695 2.92971C74.326 3.00385 74.2867 3.08033 74.2517 3.1588C74.215 3.24389 74.1784 3.32636 74.147 3.40622C74.1155 3.48607 74.0854 3.55022 74.0671 3.58818C73.6285 4.58178 73.1965 5.55182 72.7829 6.45247C72.3692 7.35313 71.9464 8.33364 71.5405 9.33247C71.4934 9.44505 71.4384 9.59429 71.3704 9.78018C71.3023 9.96607 71.2316 10.1415 71.1491 10.3195C71.0667 10.4976 70.9881 10.6455 70.9122 10.7738C70.8232 10.923 70.7446 10.9937 70.6648 10.9937C70.5974 10.9906 70.5328 10.9663 70.4801 10.9242C70.4274 10.8821 70.3894 10.8244 70.3715 10.7594C70.3244 10.6552 70.2855 10.5475 70.255 10.4373C69.9448 9.55109 69.6136 8.66484 69.2706 7.80738C68.9276 6.94993 68.5506 6.07807 68.1566 5.22978C68.1186 5.14338 68.044 4.96796 67.9353 4.6996C67.8267 4.43124 67.7088 4.15371 67.5805 3.86047C67.4523 3.56724 67.3331 3.30542 67.2205 3.07502C67.1766 2.97869 67.1231 2.88703 67.0608 2.80142C67.0543 2.85378 67.0451 2.95196 67.036 3.13131C67.0216 3.41276 67.0072 3.78585 66.9928 4.22047C66.9784 4.65509 66.9679 5.17218 66.9574 5.70891C66.9469 6.24564 66.9417 6.79022 66.9365 7.31255C66.9312 7.83487 66.9273 8.31924 66.9221 8.76694C66.9168 9.21465 66.9155 9.5524 66.9155 9.79196C66.9058 9.91221 66.9434 10.0315 67.0203 10.1245C67.0985 10.2061 67.1937 10.2696 67.2991 10.3104C67.4202 10.3584 67.5469 10.391 67.6761 10.4072C67.8188 10.4256 67.9497 10.4452 68.0688 10.4635C68.1789 10.4784 68.2856 10.5121 68.3843 10.563C68.4315 10.5864 68.4709 10.6229 68.4976 10.6683C68.5243 10.7136 68.5373 10.7657 68.5349 10.8183C68.5349 10.8968 68.5061 11.0291 68.3058 11.0461C68.1827 11.0552 68.0911 11.0605 68.0243 11.0605C67.7808 11.0605 67.5334 11.0513 67.2886 11.0317C66.7478 10.9937 66.2049 10.9937 65.664 11.0317C65.3643 11.0513 65.0592 11.0605 64.7595 11.0605C64.6712 11.0573 64.5834 11.0451 64.4976 11.0238C64.3248 10.9859 64.2895 10.8929 64.2895 10.8183C64.2817 10.7429 64.3019 10.6673 64.3463 10.606C64.3908 10.5446 64.4563 10.5018 64.5304 10.4858C64.6613 10.4531 64.8184 10.4243 64.9912 10.3994C65.1613 10.375 65.3293 10.3378 65.4939 10.2881C65.5706 10.2619 65.6403 10.2183 65.6973 10.1606C65.7543 10.1029 65.7972 10.0327 65.8224 9.9556C65.8801 9.80782 65.9213 9.65418 65.9455 9.49742C65.9743 9.32593 65.9979 9.15967 66.0162 8.99996C66.1209 7.87938 66.2165 6.73785 66.3003 5.60942C66.384 4.48098 66.4312 3.33422 66.4312 2.22149C66.4312 1.90469 66.3592 1.66906 66.2191 1.51851C66.079 1.36796 65.8342 1.25669 65.4965 1.19255L65.2831 1.15066C65.1875 1.13102 65.0907 1.11007 64.9899 1.08651C64.8948 1.06439 64.8025 1.03145 64.7149 0.988328C64.6671 0.97129 64.6266 0.938221 64.6004 0.894736C64.5742 0.851251 64.5638 0.800029 64.5711 0.749767C64.5783 0.699504 64.6027 0.653298 64.6402 0.618993C64.6776 0.584687 64.7258 0.564396 64.7765 0.561565C64.8679 0.547869 64.9602 0.540433 65.0527 0.53931C65.2094 0.539094 65.366 0.549152 65.5213 0.569419C65.9096 0.608032 66.3008 0.608032 66.6891 0.569419C66.9208 0.551092 67.1629 0.540619 67.4104 0.540619C67.4737 0.540016 67.5371 0.542638 67.6002 0.548474C67.6383 0.555462 67.6744 0.570831 67.7059 0.59347C67.7374 0.616108 67.7634 0.645452 67.7822 0.679383C67.9695 0.938279 68.1161 1.22436 68.2168 1.52767C68.3189 1.83138 68.4328 2.12986 68.5558 2.41393C68.8569 3.11953 69.1384 3.76753 69.4146 4.39589C69.7052 5.05044 69.9945 5.73247 70.2733 6.40665C70.3397 6.56898 70.4156 6.75924 70.5011 6.97742C70.5875 7.19604 70.6713 7.4068 70.7629 7.61102C70.8546 7.81524 70.9227 7.9828 70.9947 8.12811C71.0797 8.2996 71.1256 8.31007 71.1256 8.31007C71.1256 8.31007 71.1753 8.28127 71.2015 8.2276C71.2395 8.15298 71.2722 8.08229 71.2997 8.01684C71.8377 6.89756 72.3469 5.75473 72.8182 4.6132C73.2895 3.47167 73.804 2.32229 74.3394 1.20956C74.4099 1.03352 74.5042 0.867916 74.6195 0.717346C74.6564 0.67536 74.7019 0.641902 74.753 0.619296C74.8041 0.596689 74.8595 0.585477 74.9154 0.586437H75.2139C75.3419 0.584829 75.4699 0.589635 75.5974 0.600837C75.7057 0.611683 75.8145 0.616491 75.9234 0.615237C76.1315 0.615237 76.3357 0.615237 76.5321 0.600837C76.7285 0.586437 76.9392 0.586437 77.1448 0.586437C77.2381 0.590048 77.3303 0.607701 77.4184 0.638801C77.477 0.656494 77.5269 0.695405 77.5584 0.747934C77.5898 0.800464 77.6006 0.862838 77.5885 0.922874C77.5883 0.970009 77.5747 1.01612 77.5495 1.05593C77.5243 1.09574 77.4884 1.12766 77.4459 1.14804C77.3567 1.19734 77.2597 1.23099 77.1592 1.24753C77.0533 1.26756 76.9461 1.27981 76.8384 1.28418C76.7337 1.28418 76.6525 1.28418 76.5949 1.28418C76.452 1.27534 76.3098 1.30954 76.1865 1.38236C76.0938 1.44394 76.0217 1.53197 75.9797 1.63502C75.9322 1.75679 75.9048 1.88543 75.8985 2.01596C75.8894 2.16127 75.8854 2.31313 75.8854 2.46891V2.82498C75.9024 3.88535 75.9365 4.94964 75.9836 5.98775C76.0307 7.02585 76.0831 8.08229 76.1407 9.20942C76.1485 9.37305 76.1669 9.55894 76.197 9.77495C76.2024 9.86327 76.2281 9.94916 76.2722 10.0259C76.3162 10.1027 76.3774 10.1682 76.4509 10.2174C76.5232 10.2538 76.5991 10.2823 76.6774 10.3025C76.7913 10.3365 76.9131 10.3693 77.0453 10.402C77.1775 10.4347 77.3071 10.4688 77.4288 10.5015C77.5353 10.5281 77.6388 10.5653 77.7378 10.6128C77.7754 10.632 77.8065 10.6618 77.8272 10.6986C77.848 10.7354 77.8574 10.7775 77.8543 10.8196C77.8568 10.846 77.8541 10.8726 77.8463 10.898C77.8385 10.9233 77.8258 10.9469 77.8089 10.9673C77.792 10.9877 77.7713 11.0046 77.7478 11.017C77.7244 11.0294 77.6987 11.0371 77.6723 11.0395C77.5788 11.0541 77.4842 11.0615 77.3896 11.0618Z" fill="#686058"/>
<path d="M86.5204 11.3473C85.7854 11.354 85.0565 11.2143 84.3761 10.9362C83.74 10.6755 83.1653 10.2849 82.6887 9.78944C82.2125 9.28829 81.8393 8.69851 81.5904 8.05358C81.3223 7.35353 81.1891 6.60911 81.1977 5.85955C81.191 5.10208 81.3274 4.35017 81.5995 3.64326C81.8537 2.98368 82.2364 2.38118 82.7254 1.87075C83.2132 1.36753 83.7967 0.966944 84.4416 0.692567C85.1271 0.405879 85.8638 0.261574 86.6068 0.268421C87.3394 0.263838 88.0664 0.397062 88.7498 0.661148C89.4053 0.914733 90.0065 1.29106 90.521 1.76995C91.0321 2.25136 91.442 2.82993 91.7267 3.47177C92.0293 4.16684 92.181 4.91823 92.1718 5.67628C92.175 6.42577 92.0263 7.16814 91.7345 7.85853C91.4514 8.52979 91.0426 9.14075 90.5302 9.65853C90.0122 10.1754 89.4015 10.5902 88.7302 10.8812C88.0341 11.1888 87.2814 11.3475 86.5204 11.3473ZM86.417 0.909876C86.1648 0.910681 85.9133 0.934784 85.6656 0.981876C84.9691 1.11278 84.4154 1.36675 84.0174 1.73722C83.6256 2.1009 83.3263 2.55284 83.1443 3.05548C82.9609 3.57889 82.8666 4.12937 82.8654 4.68398C82.8589 5.24649 82.9084 5.80826 83.0134 6.36093C83.1127 6.93462 83.276 7.49537 83.5003 8.03264C83.7183 8.56892 84.0245 9.06493 84.4062 9.50013C84.7779 9.91948 85.2423 10.2463 85.7625 10.4545C86.2861 10.6678 86.9145 10.7163 87.6187 10.5854C88.323 10.4545 88.8558 10.2083 89.2525 9.82347C89.6489 9.44019 89.9502 8.96946 90.1322 8.44893C90.3206 7.9064 90.4205 7.33709 90.4281 6.76282C90.4376 6.19271 90.3937 5.62295 90.2971 5.061C90.1865 4.46521 90.0018 3.88558 89.7473 3.33562C89.5108 2.81567 89.1857 2.34081 88.7864 1.93228C88.4022 1.54755 87.9359 1.25484 87.4224 1.07613C87.099 0.964484 86.7591 0.908274 86.417 0.909876Z" fill="#686058"/>
<path d="M103.025 11.0617C102.646 11.0617 102.265 11.05 101.893 11.0264C101.182 10.9793 100.468 10.9793 99.7566 11.0264C99.4215 11.05 99.0785 11.0617 98.7369 11.0617C98.6564 11.0613 98.576 11.0565 98.496 11.0473C98.4318 11.0395 98.3258 11.0002 98.3258 10.8196C98.3195 10.7625 98.332 10.705 98.3616 10.6558C98.3912 10.6066 98.4361 10.5684 98.4894 10.5473C98.5819 10.5108 98.6806 10.4926 98.7801 10.4936C98.8371 10.4954 98.8941 10.491 98.9502 10.4805C99.1737 10.4634 99.3939 10.4163 99.6048 10.3404C99.745 10.289 99.8673 10.1981 99.9569 10.0786C100.042 9.95111 100.097 9.80545 100.117 9.65317C100.147 9.43634 100.161 9.21754 100.159 8.99862V2.10102C100.159 2.05389 100.159 1.97011 100.159 1.8392C100.157 1.75157 100.15 1.66412 100.138 1.57738C100.126 1.5224 100.025 1.47397 99.8574 1.44647C99.6492 1.41307 99.4386 1.39687 99.2278 1.39804H98.3468C98.1383 1.39775 97.931 1.42819 97.7315 1.48837C97.5136 1.55797 97.3153 1.67819 97.1529 1.8392C97.0826 1.92555 97.0244 2.02113 96.9801 2.12328C96.9041 2.27644 96.8243 2.43484 96.7379 2.60109C96.6515 2.76735 96.5677 2.92182 96.4878 3.05404C96.391 3.21506 96.3255 3.28051 96.2627 3.28051C96.1742 3.28705 96.0863 3.26251 96.014 3.21113C95.9792 3.17771 95.9529 3.13661 95.937 3.09114C95.921 3.04566 95.916 2.99708 95.9223 2.94931C95.9316 2.724 95.9703 2.50087 96.0375 2.2856C96.1298 1.91208 96.1911 1.53159 96.2208 1.148C96.2304 1.04415 96.2395 0.932875 96.2483 0.814184C96.2562 0.699979 96.2791 0.587309 96.3164 0.479057C96.3479 0.379367 96.4042 0.289294 96.48 0.217239C96.5693 0.140942 96.6848 0.102438 96.802 0.109893C96.8355 0.110019 96.8684 0.118756 96.8975 0.135264C96.9266 0.151771 96.951 0.175493 96.9683 0.204148C97.0023 0.252584 97.0416 0.306257 97.0874 0.366475C97.1379 0.432179 97.1979 0.48998 97.2654 0.537966C97.3566 0.595125 97.4616 0.626354 97.5692 0.628293C98.1203 0.655784 98.7081 0.678039 99.3142 0.692439C100.361 0.717311 101.409 0.719929 102.372 0.692439C102.802 0.683275 103.244 0.678039 103.681 0.678039C103.823 0.678039 103.967 0.678039 104.112 0.678039C104.257 0.678039 104.401 0.66102 104.54 0.642693C104.636 0.631654 104.728 0.592502 104.802 0.530111C104.871 0.467573 104.934 0.398283 104.989 0.323275C105.044 0.249966 105.09 0.180584 105.128 0.120366C105.145 0.086744 105.17 0.0583706 105.202 0.0383016C105.234 0.0182327 105.271 0.00722872 105.308 0.00647494C105.385 -0.00278208 105.462 0.0143985 105.527 0.0551443C105.592 0.0958901 105.641 0.157731 105.666 0.230329C105.713 0.35206 105.716 0.486398 105.674 0.609966C105.599 0.838435 105.555 1.07566 105.543 1.31557C105.521 1.60749 105.492 1.90335 105.458 2.19397C105.43 2.44795 105.382 2.69926 105.314 2.94538C105.244 3.17971 105.124 3.29884 104.954 3.29884C104.897 3.30668 104.839 3.29252 104.791 3.25923C104.744 3.22594 104.712 3.176 104.7 3.11949C104.679 3.00053 104.677 2.87923 104.692 2.75949C104.706 2.62858 104.717 2.48066 104.727 2.31309C104.737 2.16592 104.715 2.01835 104.66 1.88109C104.609 1.77118 104.521 1.68304 104.41 1.63237C104.263 1.55636 104.105 1.50296 103.942 1.47397C103.751 1.44124 103.549 1.41767 103.344 1.40327C103.017 1.38143 102.69 1.37662 102.363 1.38887C102.204 1.40024 102.045 1.40024 101.887 1.38887C101.867 1.38764 101.848 1.39064 101.83 1.39765C101.812 1.40466 101.796 1.41552 101.783 1.42946C101.737 1.48724 101.708 1.55654 101.699 1.62975C101.671 1.78829 101.66 1.94926 101.664 2.11018L101.636 3.84997C101.617 4.67338 101.619 5.51644 101.636 6.35687C101.654 7.19731 101.663 8.03251 101.643 8.86902C101.643 9.01957 101.643 9.17011 101.651 9.32197C101.656 9.47219 101.672 9.62184 101.699 9.76968C101.708 9.8726 101.742 9.97179 101.798 10.0581C101.855 10.1443 101.933 10.2149 102.024 10.2632C102.206 10.3499 102.401 10.406 102.601 10.4295L103.163 10.4936C103.41 10.5224 103.461 10.6481 103.461 10.7554C103.461 10.9387 103.412 11.0395 103.313 11.0539C103.218 11.0624 103.122 11.065 103.025 11.0617Z" fill="#686058"/>
<path d="M115.887 11.0618C115.508 11.0618 115.127 11.05 114.755 11.0264C114.043 10.9793 113.33 10.9793 112.618 11.0264C112.283 11.05 111.94 11.0618 111.599 11.0618C111.518 11.0614 111.438 11.0566 111.358 11.0474C111.294 11.0395 111.188 11.0003 111.188 10.8196C111.181 10.7627 111.194 10.7053 111.223 10.6561C111.252 10.6069 111.297 10.5687 111.35 10.5473C111.443 10.5112 111.541 10.493 111.641 10.4936C111.698 10.4954 111.755 10.491 111.812 10.4806C112.035 10.4634 112.256 10.4163 112.467 10.3405C112.606 10.2891 112.728 10.1981 112.817 10.0787C112.901 9.95203 112.955 9.80782 112.974 9.65713C113.005 9.44028 113.019 9.2215 113.016 9.00259V2.10106C113.016 2.05393 113.016 1.97015 113.01 1.83924C113.009 1.75161 113.002 1.66415 112.989 1.57742C112.976 1.51982 112.876 1.4727 112.709 1.44652C112.501 1.41316 112.29 1.39697 112.079 1.39808H111.198C110.99 1.39779 110.782 1.42823 110.583 1.48841C110.37 1.55977 110.177 1.67992 110.019 1.83924C109.948 1.92559 109.89 2.02117 109.846 2.12332C109.77 2.27648 109.689 2.43488 109.604 2.60113C109.518 2.76739 109.432 2.92317 109.354 3.05408C109.255 3.2151 109.19 3.28055 109.127 3.28055C109.039 3.28678 108.952 3.26225 108.88 3.21117C108.845 3.17769 108.819 3.13663 108.802 3.09119C108.786 3.04576 108.781 2.99721 108.787 2.94935C108.797 2.72399 108.836 2.50088 108.903 2.28564C108.995 1.91205 109.056 1.53157 109.085 1.14804C109.094 1.04462 109.105 0.933351 109.114 0.814224C109.121 0.700687 109.143 0.58852 109.178 0.480406C109.21 0.381021 109.267 0.291101 109.342 0.218588C109.432 0.142454 109.548 0.103995 109.665 0.111242C109.699 0.111617 109.731 0.120459 109.76 0.136942C109.789 0.153426 109.814 0.177012 109.831 0.205497C109.864 0.253933 109.905 0.307606 109.95 0.367824C110.002 0.431874 110.062 0.487912 110.13 0.534079C110.221 0.591223 110.327 0.62244 110.435 0.624406C110.986 0.651897 111.572 0.674151 112.18 0.688551C113.227 0.713424 114.274 0.716042 115.237 0.688551C115.667 0.679388 116.11 0.674151 116.552 0.674151C116.692 0.674151 116.836 0.674151 116.983 0.674151C117.13 0.674151 117.272 0.657133 117.411 0.638806C117.505 0.62735 117.594 0.589701 117.668 0.530151C117.738 0.468632 117.802 0.400218 117.859 0.325933C117.916 0.246079 117.962 0.180624 117.997 0.123024C118.014 0.0897602 118.039 0.0614285 118.069 0.0409489C118.1 0.0204694 118.136 0.00858303 118.173 0.00651491C118.249 -0.00256478 118.326 0.0146699 118.392 0.0553714C118.457 0.0960729 118.506 0.157806 118.532 0.230369C118.576 0.353021 118.576 0.487355 118.532 0.610006C118.457 0.838446 118.413 1.07568 118.401 1.31561C118.377 1.60492 118.348 1.90077 118.316 2.19401C118.288 2.44805 118.239 2.69938 118.17 2.94542C118.102 3.17975 117.98 3.29888 117.812 3.29888C117.754 3.30672 117.696 3.29256 117.649 3.25927C117.602 3.22598 117.569 3.17604 117.558 3.11953C117.538 2.99907 117.537 2.87621 117.556 2.75561C117.569 2.6247 117.581 2.47939 117.592 2.30921C117.601 2.16193 117.578 2.01434 117.524 1.87721C117.473 1.76703 117.384 1.67877 117.274 1.62848C117.124 1.55405 116.964 1.50285 116.8 1.47662C116.602 1.44312 116.403 1.41952 116.203 1.40593C115.876 1.38408 115.549 1.37927 115.222 1.39153C115.064 1.4029 114.904 1.4029 114.746 1.39153C114.726 1.39071 114.707 1.39388 114.689 1.40087C114.671 1.40785 114.655 1.41849 114.641 1.43212C114.596 1.49039 114.567 1.55946 114.557 1.63241C114.53 1.79109 114.519 1.95198 114.523 2.11284L114.494 3.85262C114.476 4.67604 114.479 5.5191 114.502 6.35953C114.526 7.19997 114.528 8.03255 114.509 8.87168C114.509 9.02222 114.509 9.17277 114.517 9.32462C114.521 9.47489 114.537 9.62457 114.565 9.77233C114.574 9.87497 114.608 9.97383 114.664 10.06C114.721 10.1461 114.798 10.2169 114.888 10.2659C115.069 10.3511 115.263 10.4063 115.462 10.4295L116.022 10.4936C116.269 10.5224 116.322 10.6481 116.322 10.7555C116.322 10.9387 116.272 11.0395 116.174 11.0539C116.079 11.0623 115.983 11.0649 115.887 11.0618Z" fill="#686058"/>
<path d="M122.505 11.0473C122.401 11.0473 122.295 11.0473 122.187 11.0329C122.109 11.0329 121.98 10.9806 121.98 10.7489C121.98 10.6468 122.052 10.5708 122.196 10.5237C122.319 10.4844 122.458 10.4465 122.626 10.4085C122.79 10.3716 122.951 10.3226 123.108 10.2619C123.247 10.2119 123.366 10.1205 123.451 10.0001C123.54 9.83674 123.59 9.65545 123.598 9.46989C123.628 9.19253 123.642 8.91368 123.641 8.63469C123.641 8.33229 123.641 8.01418 123.627 7.68822C123.612 7.36225 123.612 7.09258 123.612 6.85302C123.612 6.13302 123.612 5.38291 123.598 4.55818C123.589 3.80284 123.578 3.02655 123.578 2.26727V1.88109C123.578 1.84148 123.573 1.80202 123.565 1.76327C123.547 1.52895 123.471 1.38364 123.332 1.31164C123.178 1.23285 123.011 1.18188 122.84 1.16109C122.645 1.13622 122.481 1.11265 122.341 1.08909C122.12 1.05375 122.079 0.918909 122.079 0.812872C122.077 0.762985 122.091 0.713665 122.118 0.672183C122.146 0.630701 122.187 0.599252 122.234 0.582472C122.329 0.544995 122.429 0.519918 122.531 0.507854C122.649 0.492474 122.769 0.487219 122.888 0.492145C123.01 0.497381 123.113 0.5 123.198 0.5C123.517 0.5 123.841 0.506545 124.166 0.520945C124.491 0.535345 124.82 0.54189 125.144 0.54189C125.783 0.54189 126.429 0.54189 127.067 0.520945C127.704 0.499999 128.348 0.5 128.993 0.5H129.148C129.256 0.500295 129.363 0.510372 129.469 0.530109C129.522 0.534132 129.572 0.5539 129.613 0.586829C129.654 0.619759 129.684 0.66432 129.699 0.71469C129.736 0.892603 129.756 1.07368 129.757 1.25534C129.757 1.34175 129.757 1.44385 129.751 1.56429C129.744 1.68473 129.743 1.81171 129.743 1.9976C129.743 2.17885 129.731 2.35993 129.707 2.53956C129.697 2.61156 129.665 2.8328 129.508 2.85113H129.502C129.44 2.8481 129.38 2.8265 129.331 2.78915C129.281 2.75179 129.244 2.7004 129.224 2.64167C129.159 2.50266 129.101 2.3602 129.051 2.21491C128.996 2.05782 128.932 1.89811 128.862 1.74233C128.805 1.6069 128.705 1.49349 128.579 1.41898C128.468 1.36334 128.349 1.32452 128.227 1.30378C128.051 1.26838 127.873 1.2426 127.694 1.22654C127.495 1.20822 127.288 1.19644 127.08 1.1912C126.872 1.18596 126.666 1.1912 126.478 1.1912H125.856C125.692 1.17932 125.529 1.22264 125.393 1.31425C125.288 1.39921 125.208 1.51096 125.162 1.6376C125.11 1.78631 125.08 1.94212 125.074 2.09971C125.064 2.27513 125.06 2.44531 125.06 2.6024C125.06 2.92575 125.06 3.24778 125.06 3.57113C125.06 3.89447 125.068 4.21782 125.068 4.54116V4.86844C125.066 4.96022 125.074 5.05196 125.091 5.14204C125.127 5.17824 125.173 5.20326 125.222 5.21404C125.301 5.23253 125.38 5.24392 125.461 5.24807C125.547 5.24807 125.633 5.24807 125.716 5.24807C125.798 5.24807 125.876 5.24022 125.933 5.24022C126.195 5.24022 126.448 5.24022 126.719 5.23367C126.978 5.2291 127.236 5.20768 127.492 5.16953C127.606 5.15921 127.716 5.12424 127.815 5.06704C127.914 5.00984 127.999 4.93179 128.064 4.83833C128.189 4.6356 128.259 4.40439 128.269 4.16676V4.14582C128.297 4.08822 128.329 4.03193 128.364 3.97564C128.387 3.94129 128.419 3.91361 128.456 3.89544C128.493 3.87727 128.534 3.86926 128.575 3.87222C128.604 3.8667 128.633 3.8675 128.662 3.87454C128.69 3.88159 128.716 3.89472 128.739 3.91302C128.762 3.93133 128.781 3.95437 128.794 3.98056C128.807 4.00674 128.814 4.03543 128.815 4.06465C128.824 4.16558 128.829 4.26695 128.829 4.36836C128.829 4.55818 128.829 4.76109 128.815 4.96924C128.8 5.17738 128.801 5.37244 128.801 5.56618C128.801 5.75993 128.801 5.95891 128.815 6.15527C128.828 6.35164 128.829 6.55978 128.829 6.7496C128.829 6.79673 128.829 6.85433 128.837 6.92371C128.841 6.99667 128.838 7.06984 128.829 7.14233C128.821 7.21107 128.795 7.27655 128.754 7.33215C128.731 7.36077 128.701 7.38351 128.668 7.39853C128.634 7.41354 128.597 7.4204 128.561 7.41855C128.513 7.41684 128.468 7.40023 128.43 7.37108C128.393 7.34193 128.366 7.30174 128.352 7.25622C128.31 7.15918 128.278 7.05778 128.257 6.95382C128.232 6.84385 128.211 6.73389 128.191 6.62393C128.182 6.549 128.161 6.47605 128.129 6.40793L128.122 6.3896C128.108 6.31282 128.077 6.24006 128.032 6.17649C127.987 6.11291 127.928 6.06008 127.86 6.02175C127.694 5.92957 127.513 5.86878 127.325 5.8424C127.108 5.81033 126.889 5.79632 126.67 5.80051C126.439 5.80051 126.232 5.80836 126.051 5.80836C126.005 5.80836 125.945 5.80836 125.87 5.80836L125.628 5.82276C125.544 5.82276 125.463 5.83455 125.383 5.84371C125.326 5.84966 125.269 5.85884 125.213 5.8712C125.196 5.8712 125.161 5.88036 125.14 5.95891C125.121 6.04036 125.107 6.12303 125.099 6.20633C125.092 6.2987 125.092 6.39148 125.099 6.48385C125.099 6.57942 125.099 6.64749 125.099 6.68545V8.9384C125.099 9.04313 125.099 9.15833 125.107 9.28531C125.111 9.41187 125.125 9.53791 125.149 9.66233C125.17 9.78058 125.206 9.8955 125.258 10.004C125.301 10.1001 125.375 10.1792 125.468 10.2292C125.589 10.2762 125.716 10.3053 125.845 10.3156C126.034 10.3391 126.238 10.3548 126.445 10.3653C126.652 10.3758 126.863 10.381 127.062 10.3863H127.486H127.926C128.057 10.3863 128.187 10.3863 128.334 10.3719C128.481 10.3575 128.629 10.3509 128.766 10.3365C128.893 10.3242 129.018 10.3036 129.142 10.275C129.238 10.2534 129.33 10.2172 129.415 10.1676C129.559 10.0671 129.679 9.93671 129.768 9.78538C129.881 9.60473 129.987 9.42276 130.084 9.24604C130.181 9.06931 130.272 8.90829 130.359 8.77738C130.461 8.6216 130.558 8.54567 130.655 8.54567C130.834 8.54567 130.888 8.63207 130.903 8.70538C130.918 8.79177 130.905 8.88091 130.866 8.95935C130.866 8.97636 130.857 9.01171 130.838 9.09811C130.829 9.15648 130.812 9.21357 130.79 9.26829C130.79 9.27615 130.773 9.33505 130.724 9.54713C130.687 9.71338 130.646 9.89011 130.603 10.0708C130.56 10.2514 130.507 10.5001 130.44 10.8039L130.433 10.8235C130.388 10.8881 130.328 10.9402 130.257 10.9746C130.187 11.009 130.109 11.0246 130.031 11.0199H123.328C123.197 11.0199 123.066 11.0199 122.928 11.0329C122.789 11.046 122.645 11.0473 122.505 11.0473Z" fill="#686058"/>
</g>
<defs>
<clipPath id="clip0">
<rect width="130.909" height="12" fill="white"/>
</clipPath>
</defs>
</svg>
