<svg width="82" height="28" viewBox="0 0 82 28" fill="none" xmlns="http://www.w3.org/2000/svg">
<g clip-path="url(#clip0)">
<path d="M73.832 17.3687H74.6009C76.8977 17.3687 81.3532 14.6678 81.3532 9.44337C81.3532 6.703 79.5691 1.51801 72.8266 1.51801H71.555V2.58261V24.0126C69.6525 17.8813 64.7139 1.99116 64.5956 1.59686H63.4818C63.3536 1.99116 58.1686 18.0883 56.2168 24.1211V1.63629H54.9452C54.758 1.85316 48.6168 8.77306 47.1185 10.4488C45.63 8.77306 39.479 1.8433 39.2917 1.63629H38.0201V25.5504C37.4188 25.6588 36.778 25.7278 36.1077 25.7278C29.4047 25.7278 24.3478 20.6808 24.3478 13.9975C24.3478 5.93413 31.4846 2.46432 35.605 2.27703V1.62644C29.8483 1.85316 23.7761 6.496 23.648 13.8693C21.775 7.83661 19.912 1.83344 19.8331 1.59686H18.7291C18.6502 1.83344 16.7182 7.83661 14.7664 13.8792C14.6777 9.40394 12.4992 6.53543 10.6657 4.90896C8.35911 2.86847 5.26388 1.64615 2.38551 1.64615H1.68564H0.443604V26.4573H2.39537C5.71732 26.4573 9.887 24.5252 12.4401 21.1343C11.5135 24.0225 10.8333 26.1221 10.7545 26.3784H11.4445C11.5923 25.925 14.1355 18.108 14.1355 18.108H24.2197C24.3183 18.4235 24.4267 18.729 24.545 19.0346C25.1857 21.1145 26.684 26.0137 26.8023 26.3784H27.5318C27.4628 26.1517 26.9009 24.3379 26.1024 21.7848C28.4485 24.8604 32.1549 26.4671 35.7331 26.4671C44.2401 26.4671 47.148 19.2712 47.769 17.3884H38.7495V2.01088C38.7495 2.01088 46.5862 11.0403 46.803 11.2867H47.4536C47.6705 11.0403 55.5071 2.01088 55.5071 2.01088V26.3685H56.1971H56.2267V26.2897C56.5323 25.3434 58.8882 18.0982 58.8882 18.0982H69.0118C69.0118 18.0982 71.4071 25.9052 71.555 26.3685H72.2844H72.314V16.8759C72.8069 17.4476 80.1211 26.0925 80.3281 26.3291H81.3631C80.4858 25.3138 73.832 17.3687 73.832 17.3687ZM2.32637 25.7278H1.10405V25.3729L1.09419 19.8429C1.08434 13.9778 1.07448 5.93413 1.10405 2.69104V2.33617H2.47423C6.11162 2.33617 14.0961 5.29339 14.0961 14.0665C14.0863 21.1835 7.11707 25.7278 2.32637 25.7278ZM14.4017 17.3687L14.451 17.2702L19.1924 2.00102H19.4191L24.0127 17.3589H14.4017V17.3687ZM46.665 18.0587L46.458 18.5516C46.4284 18.6108 44.0922 23.9732 38.7495 25.3828V18.0587H46.665ZM59.1544 17.3687L59.2036 17.2702L63.9451 2.00102H64.1718L68.7653 17.3589H59.1544V17.3687ZM73.0237 16.7181H72.314L72.3041 16.8759V2.58261V2.20802H72.3534H73.0237H73.7335C77.5384 2.20802 80.6238 5.45111 80.6238 9.44337C80.6238 13.5342 77.4793 16.7083 73.6152 16.7083H73.0237V16.7181Z" fill="#686058"/>
</g>
<defs>
<clipPath id="clip0">
<rect width="81.8658" height="27.7683" fill="white"/>
</clipPath>
</defs>
</svg>
