<svg width="91" height="21" viewBox="0 0 91 21" fill="none" xmlns="http://www.w3.org/2000/svg">
<path d="M12.5125 11.0501L8.20625 10.6438C5.44375 10.4001 4.95625 9.75007 4.95625 8.61257C4.95625 6.74382 7.8 6.50007 9.50625 6.50007C12.675 6.50007 14.4625 7.39382 15.1937 9.50632L15.275 9.66882L17.7125 9.01882L17.6313 8.77507C16.575 5.85007 13.8937 4.38757 9.5875 4.38757C5.0375 4.38757 2.4375 6.01257 2.4375 8.77507C2.4375 11.2126 3.98125 12.4313 7.3125 12.7563L11.8625 13.1626C14.7062 13.4063 15.275 14.2188 15.275 15.2751C15.275 16.8188 13.8125 17.5501 10.5625 17.5501C6.9875 17.5501 4.95625 16.4938 4.225 14.1376L4.14375 13.9751L1.625 14.5438L1.70625 14.7876C2.7625 18.2001 5.525 19.7438 10.4812 19.7438C13.8125 19.7438 17.7937 18.9313 17.7937 15.1938C17.7125 12.6751 16.1687 11.4563 12.5125 11.0501Z" fill="#686058"/>
<path d="M36.5625 16.0875L36.1563 15.6812C36.075 15.6 35.9938 15.5188 35.9125 15.4375L32.825 12.1875L25.7563 4.95625V4.875H22.9938V19.175H25.1875V7.8L25.675 8.2875L25.7563 8.36875L36.2375 19.0938L36.3188 19.175H38.8375V4.875H36.5625V16.0875Z" fill="#686058"/>
<path d="M47.9375 9.42493H45.5V19.2562H47.9375V9.42493Z" fill="#686058"/>
<path d="M63.7 4.875H54.4375V19.175H56.875V14.1375H63.1312C66.7062 14.1375 68.9 12.2688 68.9 9.425C69.0625 6.6625 66.95 4.875 63.7 4.875ZM63.2938 12.1062H56.875V6.9875H63.2125C65.2438 6.9875 66.3812 7.88125 66.3812 9.50625C66.4625 11.05 65.2438 12.1062 63.2938 12.1062Z" fill="#686058"/>
<path d="M87.0188 4.875V10.8063H75.8876V4.875H73.4501V19.175H75.8876V13H86.9376V19.2563H89.3751V4.875H87.0188Z" fill="#686058"/>
<path d="M46.7187 0C44.7687 0 43.225 1.54375 43.225 3.49375C43.225 5.44375 44.7687 6.9875 46.7187 6.9875C48.6687 6.9875 50.2125 5.44375 50.2125 3.49375C50.2125 1.54375 48.5875 0 46.7187 0ZM46.7187 5.11875C45.825 5.11875 45.0937 4.3875 45.0937 3.49375C45.0937 2.6 45.825 1.86875 46.7187 1.86875C47.6125 1.86875 48.3437 2.6 48.3437 3.49375C48.3437 4.3875 47.6125 5.11875 46.7187 5.11875Z" fill="#686058"/>
</svg>
