<svg width="123" height="21" viewBox="0 0 123 21" fill="none" xmlns="http://www.w3.org/2000/svg">
<path d="M15.5295 4.31433H12.3447V1.21338H22.1733V4.31433H19.0266V20.7639H15.5295V4.31433Z" fill="#686058"/>
<path d="M38.5925 4.31433H35.4077V1.21338H45.2363V4.31433H42.082V20.7639H38.5925V4.31433Z" fill="#686058"/>
<path d="M50.0209 4.31433H46.8438V1.21338H56.6646V4.31433H53.518V20.7639H50.0209V4.31433Z" fill="#686058"/>
<path d="M66.7906 1.21338V4.261H61.6172V9.09148H65.922V12.2229H61.6172V17.6324H66.9506V20.7639H58.1963V1.21338H66.7906Z" fill="#686058"/>
<path d="M80.7866 1.21338H84.2838V8.96195H87.5142V1.21338H91.0114V20.7639H87.5142V12.2458H84.2838V20.7639H80.7866V1.21338Z" fill="#686058"/>
<path d="M101.716 1.21338V4.261H96.543V9.09148H100.855V12.2229H96.543V17.6324H101.876V20.7639H93.1296V1.21338H101.716Z" fill="#686058"/>
<path d="M116.55 20.7639H114.707L112.87 11.461C112.314 8.61909 112.025 6.98862 111.735 5.31243C111.789 7.49147 111.819 9.30481 111.819 12.0858V20.7639H108.825V1.21338H113.503L114.844 8.17719C115.293 10.4629 115.476 11.7734 115.712 13.2439C115.949 11.7734 116.101 10.4629 116.55 8.17719L117.891 1.21338H122.463V20.7639H119.415V12.0629C119.415 9.28195 119.469 7.49147 119.522 5.28957C119.232 6.91243 118.92 8.62671 118.394 11.2477L116.55 20.7639Z" fill="#686058"/>
<path d="M106.951 1.20569H103.453V20.7562H106.951V1.20569Z" fill="#686058"/>
<path d="M72.1466 9.30481H73.5943C74.7752 9.30481 75.1943 8.61909 75.1943 7.36195V5.67814C75.1943 4.33719 74.7752 3.83433 73.5943 3.83433H72.1466V9.30481ZM72.1466 20.7334H68.7104V1.21338H74.859C77.3809 1.21338 78.6685 2.341 78.6685 4.91624V7.04195C78.6685 9.09147 77.5943 9.93719 76.7028 10.1962C77.7238 10.5924 78.6685 11.4305 78.6685 13.4267V18.3943C78.6354 19.1519 78.7439 19.909 78.9885 20.6267V20.7639H75.5676C75.2702 20.0569 75.1525 19.2874 75.2247 18.5239V14.0058C75.2247 12.6648 74.7828 12.0858 73.6247 12.0858H72.1771L72.1466 20.7334Z" fill="#686058"/>
<path d="M28.5277 21C25.0306 21 23.7734 19.0267 23.7734 16.1848V1.21338H27.3011V16.1315C27.3011 17.2667 27.7506 17.9448 28.8249 17.9448C29.8992 17.9448 30.3487 17.2896 30.3487 16.1315V1.21338H33.8687V16.1848C33.8687 18.9734 32.5811 21 29.0839 21H28.5277Z" fill="#686058"/>
<path d="M0.999958 17.0305V13.7162H4.44377V16.3981C4.41711 16.608 4.43753 16.8212 4.50355 17.0222C4.56957 17.2232 4.67953 17.407 4.82545 17.5602C4.97137 17.7135 5.14958 17.8322 5.34713 17.908C5.54469 17.9837 5.75664 18.0145 5.96758 17.9981C6.96567 17.9981 7.49139 17.3429 7.49139 16.1086V15.8724C7.49139 14.5848 7.07234 13.9296 6.02091 12.9848L3.46853 10.6991C1.94472 9.30479 1.07615 8.01717 1.07615 5.86098V5.31241C1.07615 2.37146 2.72948 0.977173 5.83043 0.977173H6.38663C9.25139 0.977173 10.9047 2.21146 10.9047 4.7867V7.36194H7.59805V5.46479C7.59805 4.28384 7.12567 3.81146 6.17329 3.81146C5.22091 3.81146 4.64948 4.28384 4.64948 5.3886V5.57146C4.64948 6.69908 5.0152 7.27813 6.08948 8.25336L8.61901 10.5391C10.379 12.1467 11.1409 13.3276 11.1409 15.6362V16.1924C11.1409 18.8743 9.74663 20.9467 6.24948 20.9467H5.67044C2.62282 20.9467 0.969482 19.4991 0.969482 17.0077" fill="#686058"/>
</svg>
