<svg width="127" height="15" viewBox="0 0 127 15" fill="none" xmlns="http://www.w3.org/2000/svg">
<g clip-path="url(#clip0)">
<path d="M126.356 0H112.367C112.183 0 112.091 0.092029 112.091 0.276087V14.2645C112.091 14.4486 112.183 14.5406 112.367 14.5406H113.38C113.564 14.5406 113.656 14.4486 113.656 14.2645V8.19058C113.656 8.09855 113.748 8.00652 113.84 8.00652H119.822C120.006 8.00652 120.098 7.91449 120.098 7.73043V6.81015C120.098 6.62609 120.006 6.53406 119.822 6.53406H113.84C113.748 6.53406 113.656 6.44203 113.656 6.35V1.74855C113.656 1.65652 113.748 1.56449 113.84 1.56449H126.356C126.54 1.56449 126.632 1.47246 126.632 1.28841V0.368116C126.632 0.092029 126.54 0 126.356 0Z" fill="#686058"/>
<path d="M30.1856 14.4485C30.1856 14.5405 30.1856 14.5405 30.1856 14.5405C30.1856 14.6325 30.0936 14.6325 30.0016 14.6325H28.8972C28.8052 14.6325 28.6211 14.6325 28.6211 14.5405C28.6211 14.5405 28.5291 14.4485 28.5291 14.3564L28.4371 14.2644L27.2407 11.8716H18.682L17.4856 14.2644L17.3936 14.5405C17.3936 14.6325 17.2095 14.6325 17.1175 14.6325H16.0132C15.9211 14.6325 15.8291 14.5405 15.8291 14.5405V14.4485L15.9211 14.2644C16.0132 14.1724 16.0132 13.9883 16.1052 13.8963L22.6392 0.920192C22.6392 0.828163 22.7313 0.736134 22.7313 0.644105L22.8233 0.460047L22.9153 0.275989C22.9153 0.18396 23.0074 0.18396 23.0074 0.18396C23.0994 0.18396 23.0994 0.18396 23.0994 0.275989L23.1914 0.460047L23.3755 0.920192L29.9095 13.8963C29.9095 13.9883 30.0016 14.0803 30.0936 14.1724L30.1856 14.4485ZM23.0074 3.58903C23.0074 3.497 22.9153 3.497 23.0074 3.58903C22.9153 3.497 22.9153 3.58903 22.8233 3.58903L19.4182 10.3992H26.3204L23.0074 3.58903Z" fill="#686058"/>
<path d="M69.5738 0.460047C69.5738 0.368018 69.5738 0.368018 69.5738 0.275989C69.5738 0.275989 69.4818 0.18396 69.3898 0.18396H68.2854C68.1934 0.18396 68.0093 0.275989 68.0093 0.275989L67.8253 0.552076L62.4876 11.1354L62.3956 11.2274C62.3956 11.2274 62.3035 11.2274 62.3035 11.1354L57.0579 0.644105C56.9659 0.552076 56.9659 0.460047 56.8738 0.368018C56.8738 0.275989 56.6898 0.275989 56.5977 0.275989H55.4934C55.4014 0.275989 55.4014 0.275989 55.4014 0.368018V0.460047V14.2644C55.4014 14.4485 55.4934 14.5405 55.6775 14.5405H56.5977C56.7818 14.5405 56.8738 14.4485 56.8738 14.2644V3.40497L62.1195 13.8043C62.1195 13.8963 62.2115 13.9883 62.3035 14.0803L62.3956 14.1724L62.4876 14.3564C62.4876 14.4485 62.5796 14.4485 62.5796 14.4485C62.6717 14.4485 62.6717 14.4485 62.6717 14.3564L62.7637 14.1724L62.9477 13.7122L68.1014 3.40497V14.2644C68.1014 14.4485 68.1934 14.5405 68.3775 14.5405H69.2977C69.4818 14.5405 69.5738 14.4485 69.5738 14.2644V0.460047Z" fill="#686058"/>
<path d="M48.7753 0.092029H47.855C47.6709 0.092029 47.5789 0.184058 47.5789 0.368116V11.3196C47.5789 11.4116 47.5789 11.4116 47.5789 11.4116H47.4869L35.6151 0.368116C35.5231 0.276087 35.4311 0.184058 35.4311 0.184058C35.247 0 35.0629 0 34.9709 0C34.7869 0 34.6948 0.092029 34.6948 0.184058V14.2645C34.6948 14.3565 34.7869 14.4486 34.9709 14.4486H35.8912C36.0753 14.4486 36.1673 14.3565 36.1673 14.2645V3.22101C36.1673 3.12899 36.1673 3.12899 36.1673 3.12899H36.2593L48.1311 14.1725L48.3151 14.2645L48.4071 14.3565C48.4071 14.3565 48.5912 14.4486 48.6832 14.4486C48.8673 14.4486 48.9593 14.3565 48.9593 14.2645V0.368116C48.9593 0.184058 48.8673 0.092029 48.7753 0.092029Z" fill="#686058"/>
<path d="M14.5406 0.092029C14.4486 0 14.4486 0 14.3565 0H13.2522C13.1601 0 12.9761 0.092029 12.9761 0.092029C12.8841 0.184058 12.8841 0.276087 12.792 0.368116L7.36232 11.2275L7.27029 11.3196C7.27029 11.3196 7.17826 11.3196 7.17826 11.2275L1.74855 0.460145C1.74855 0.368116 1.65652 0.184058 1.65652 0.092029C1.56449 0.092029 1.38043 0 1.28841 0H0.184058C0.092029 0 0.092029 0 0 0.092029C0 0.184058 0 0.184058 0 0.276087V0.368116C0 0.460145 0.092029 0.552174 0.092029 0.644203C0.092029 0.736232 0.184058 0.736232 0.184058 0.828261L6.81015 13.8043L6.9942 14.2645L7.08623 14.4486C7.08623 14.5406 7.17826 14.5406 7.17826 14.5406C7.27029 14.5406 7.27029 14.5406 7.27029 14.4486L7.36232 14.2645L7.45435 14.0804L7.73043 13.8043L14.2645 0.828261C14.3565 0.736232 14.4486 0.552174 14.4486 0.368116L14.5406 0.276087C14.5406 0.184058 14.5406 0.092029 14.5406 0.092029Z" fill="#686058"/>
<path d="M100.312 0C104.361 0 107.582 3.22101 107.582 7.27029C107.582 9.11087 106.846 10.9514 105.557 12.2399C104.269 13.6203 102.52 14.3565 100.68 14.4486H99.8514C98.0108 14.3565 96.2623 13.5283 94.9739 12.2399C93.6854 10.8594 92.9492 9.11087 92.9492 7.27029C92.9492 5.33768 93.6855 3.4971 95.0659 2.11667C96.5384 0.736232 98.3789 0 100.312 0ZM100.312 14.4486C100.496 14.4486 100.588 14.4486 100.68 14.4486H99.8514C100.035 14.4486 100.22 14.4486 100.312 14.4486ZM104.361 11.2275C105.465 10.1232 106.017 8.74275 106.017 7.17826C106.017 5.7058 105.465 4.23333 104.361 3.12899C103.256 2.02464 101.876 1.47246 100.312 1.47246C98.747 1.47246 97.3666 2.02464 96.2623 3.12899C95.1579 4.23333 94.6057 5.61377 94.6057 7.17826C94.6057 8.65072 95.1579 10.1232 96.2623 11.2275C97.3666 12.3319 98.747 12.8841 100.312 12.8841C101.876 12.8841 103.256 12.3319 104.361 11.2275Z" fill="#686058"/>
<path d="M81.5376 0C85.5869 0 88.8079 3.22101 88.8079 7.27029C88.8079 9.11087 88.0717 10.9514 86.7833 12.2399C85.4949 13.6203 83.7463 14.3565 81.9057 14.4486H81.0775C79.2369 14.3565 77.4883 13.5283 76.1999 12.2399C74.9115 10.8594 74.1753 9.11087 74.1753 7.27029C74.1753 5.33768 74.9115 3.4971 76.292 2.11667C77.7644 0.736232 79.605 0 81.5376 0ZM81.5376 14.4486C81.7217 14.4486 81.8137 14.4486 81.9057 14.4486H81.0775C81.2615 14.4486 81.4456 14.4486 81.5376 14.4486ZM85.5869 11.3196C86.6912 10.2152 87.2434 8.83478 87.2434 7.27029C87.2434 5.7058 86.6912 4.32536 85.5869 3.22101C84.4825 2.11667 83.1021 1.56449 81.5376 1.56449C80.0651 1.56449 78.5927 2.11667 77.4883 3.22101C76.384 4.32536 75.8318 5.7058 75.8318 7.27029C75.8318 8.83478 76.384 10.2152 77.4883 11.3196C78.5927 12.4239 79.9731 12.9761 81.5376 12.9761C83.1021 12.9761 84.5746 12.3319 85.5869 11.3196Z" fill="#686058"/>
<path d="M81.5378 1.56445C83.1023 1.56445 84.4828 2.11663 85.5871 3.22097C86.6915 4.32532 87.2436 5.70576 87.2436 7.27025C87.2436 8.74271 86.6915 10.2152 85.5871 11.3195C84.4828 12.4239 83.1023 12.976 81.5378 12.976C78.4088 12.976 75.832 10.3992 75.832 7.27025C75.832 5.70576 76.3842 4.32532 77.4885 3.22097C78.5929 2.11663 80.0654 1.56445 81.5378 1.56445ZM85.5871 11.2275C86.6915 10.2152 87.2436 8.74271 87.2436 7.27025C87.2436 5.79779 86.6915 4.32532 85.5871 3.313C84.4828 2.20866 83.1023 1.65648 81.5378 1.65648C79.9733 1.65648 78.5929 2.20866 77.4885 3.313C76.3842 4.32532 75.832 5.79779 75.832 7.27025C75.832 8.74271 76.3842 10.2152 77.4885 11.2275C78.5929 12.3318 79.9733 12.884 81.5378 12.884C83.1023 12.884 84.4828 12.3318 85.5871 11.2275Z" fill="#686058"/>
</g>
<defs>
<clipPath id="clip0">
<rect width="127" height="14.7246" fill="white"/>
</clipPath>
</defs>
</svg>
