<svg width="54" height="23" viewBox="0 0 54 23" fill="none" xmlns="http://www.w3.org/2000/svg">
<g clip-path="url(#clip0)">
<path d="M53.7594 18.4822C53.6278 18.1569 53.427 17.8642 53.1712 17.6242C52.9188 17.383 52.6214 17.1938 52.2959 17.0677C51.6128 16.8205 50.8645 16.8205 50.1813 17.0677C49.8558 17.1939 49.5584 17.383 49.3059 17.6242C49.0501 17.8642 48.8494 18.157 48.7178 18.4822C48.4564 19.1809 48.4564 19.9506 48.7178 20.6494C48.9923 21.3135 49.5184 21.8422 50.1813 22.1198C50.5177 22.2529 50.8766 22.3196 51.2383 22.3161C51.6002 22.3197 51.9594 22.2531 52.2959 22.1198C52.9588 21.8421 53.4848 21.3135 53.7594 20.6494C54.0208 19.9506 54.0208 19.1809 53.7594 18.4822Z" fill="#686058"/>
<path d="M39.7546 22.092H44.124L44.1241 22.0919V7.02356H39.7546V22.092Z" fill="#686058"/>
<path d="M43.9002 0.721661C43.6473 0.497358 43.352 0.325909 43.0319 0.217336C42.6795 0.101491 42.3104 0.0446853 41.9395 0.0492091C41.5681 0.0445134 41.1985 0.103724 40.8472 0.224208C40.5251 0.33845 40.2296 0.517057 39.9788 0.749205C39.7373 0.968526 39.5442 1.23561 39.4116 1.53361C39.2836 1.83465 39.2192 2.15893 39.2225 2.48602C39.2192 2.81312 39.2836 3.13735 39.4116 3.43833C39.5442 3.73638 39.7373 4.00346 39.9788 4.22267C40.2296 4.45482 40.5251 4.63348 40.8472 4.74767C41.1985 4.86821 41.5681 4.92748 41.9395 4.92284C42.3112 4.92765 42.6809 4.86735 43.0319 4.74463C43.355 4.62747 43.6505 4.44514 43.9002 4.20893C44.144 3.9821 44.3373 3.70644 44.4674 3.3999C44.5961 3.08323 44.6604 2.74406 44.6564 2.40219C44.6599 2.08414 44.5955 1.76902 44.4674 1.47783C44.3342 1.18836 44.1408 0.93056 43.9002 0.721661Z" fill="#686058"/>
<path d="M34.3762 10.5526C34.0279 9.97297 33.6015 9.44391 33.1091 8.98047C32.6063 8.51228 32.0434 8.11309 31.4353 7.7935C30.8027 7.45988 30.1297 7.20929 29.4329 7.04786C27.9468 6.7163 26.4059 6.7163 24.9198 7.04786C24.2198 7.20963 23.5433 7.46016 22.9069 7.7935C22.2953 8.11257 21.729 8.51188 21.2231 8.98081C20.2236 9.91645 19.5067 11.1137 19.1539 12.4366C18.799 13.8286 18.799 15.2876 19.1539 16.6796C19.5066 18.0025 20.2235 19.1998 21.2231 20.1353C21.7292 20.604 22.2956 21.0032 22.9072 21.3221C23.5436 21.6556 24.2201 21.9062 24.9201 22.0679C25.661 22.2363 26.4186 22.3196 27.1783 22.3161C27.9369 22.3196 28.6933 22.2362 29.4329 22.0676C30.1297 21.9062 30.8027 21.6556 31.4353 21.3219C32.0434 21.0023 32.6063 20.6032 33.1091 20.135C33.6015 19.6716 34.0279 19.1427 34.3762 18.5631C34.73 17.9761 34.9987 17.3418 35.1744 16.6793C35.5291 15.2872 35.5291 13.8283 35.1744 12.4362C34.9987 11.7738 34.73 11.1396 34.3762 10.5526ZM30.7466 16.2698C30.5736 16.7641 30.298 17.2162 29.9378 17.5965C29.593 17.9639 29.174 18.2539 28.7087 18.4474C27.7224 18.8256 26.6311 18.8256 25.6448 18.4474C25.1767 18.2536 24.7545 17.9637 24.4054 17.5965C24.0413 17.2174 23.762 16.7651 23.5862 16.2698C23.2221 15.1574 23.2221 13.958 23.5862 12.8457C23.762 12.3503 24.0412 11.898 24.4054 11.5189C24.7544 11.1517 25.1766 10.8618 25.6448 10.6681C26.1326 10.4745 26.6535 10.3782 27.1783 10.3844C27.7021 10.3779 28.2221 10.4743 28.7087 10.6681C29.1741 10.8615 29.593 11.1515 29.9378 11.5189C30.298 11.8992 30.5736 12.3513 30.7466 12.8457C31.1062 13.9587 31.1062 15.1567 30.7466 16.2698Z" fill="#686058"/>
<path d="M9.9452 14.3637H9.94502L8.72043 17.2748L7.57756 14.4674H7.57767L4.54703 7.02332H0.0422363V7.03374L3.16479 14.4674L6.36774 22.0921H10.8776L10.8773 22.092L14.094 14.4674H14.0943L17.2352 7.02332H13.0338L9.9452 14.3637Z" fill="#686058"/>
</g>
<defs>
<clipPath id="clip0">
<rect width="54" height="22.3902" fill="white"/>
</clipPath>
</defs>
</svg>
