<svg width="88" height="88" viewBox="0 0 88 88" fill="none" xmlns="http://www.w3.org/2000/svg">
<path d="M71.5 14.667H86.1667" stroke="#F4F5F4" stroke-width="1.5" stroke-linecap="square"/>
<path d="M69.6667 7.3335L82.5001 1.8335" stroke="#F4F5F4" stroke-width="1.5" stroke-linecap="square"/>
<path d="M69.6667 22L82.5001 27.5" stroke="#F4F5F4" stroke-width="1.5" stroke-linecap="square"/>
<path d="M27.5001 5.5H51.3334C51.8196 5.5 52.286 5.69315 52.6298 6.03697C52.9736 6.38079 53.1667 6.8471 53.1667 7.33333V22C53.1667 22.4862 52.9736 22.9525 52.6298 23.2964C52.286 23.6402 51.8196 23.8333 51.3334 23.8333H9.16675C9.16675 18.971 11.0983 14.3079 14.5365 10.8697C17.9746 7.43154 22.6378 5.5 27.5001 5.5V5.5Z" stroke="#F4F5F4" stroke-width="1.5" stroke-linecap="square"/>
<path d="M23.8334 23.8335H38.5V38.5002H23.8334V23.8335Z" stroke="#F4F5F4" stroke-width="1.5" stroke-linecap="square"/>
<path d="M41.657 86.1667H20.6764C15.6789 86.1667 10.8861 84.1814 7.35236 80.6477C3.81861 77.1139 1.83337 72.3211 1.83337 67.3237V67.3237C1.83349 62.9156 3.37874 58.647 6.20037 55.2603L19.0667 39.82C19.4107 39.407 19.8412 39.0748 20.3278 38.8466C20.8145 38.6185 21.3453 38.5002 21.8827 38.5H40.4507C40.9881 38.5002 41.519 38.6185 42.0056 38.8466C42.4922 39.0748 42.9228 39.407 43.2667 39.82L56.133 55.2603C58.9547 58.647 60.4999 62.9156 60.5 67.3237C60.5 72.3211 58.5148 77.1139 54.9811 80.6477C51.4473 84.1814 46.6545 86.1667 41.657 86.1667V86.1667Z" stroke="#F4F5F4" stroke-width="1.5" stroke-linecap="square"/>
<path d="M51.3334 34.8335C48.416 34.8335 45.6181 33.6746 43.5552 31.6117C41.4923 29.5488 40.3334 26.7509 40.3334 23.8335" stroke="#F4F5F4" stroke-width="1.5" stroke-linecap="square"/>
<path d="M60.5 9.16699V20.167" stroke="#F4F5F4" stroke-width="1.5" stroke-linecap="square"/>
</svg>
