<svg width="88" height="88" viewBox="0 0 88 88" fill="none" xmlns="http://www.w3.org/2000/svg">
<path d="M2.17798 71.6177L8.33431 80.8943" stroke="#F4F5F4" stroke-width="1.5" stroke-linecap="round" stroke-linejoin="round"/>
<path d="M36.2229 30.3052L59.6199 65.5528" stroke="#F4F5F4" stroke-width="1.5" stroke-linecap="round" stroke-linejoin="round"/>
<path d="M58.3916 63.6976L7.10225 79.039L3.40991 73.473L37.4512 32.1606L58.3916 63.6976Z" stroke="#F4F5F4" stroke-width="1.5" stroke-linecap="round" stroke-linejoin="round"/>
<path d="M33.792 71.0527C34.4918 71.8555 35.0195 72.7932 35.3427 73.8079C35.6659 74.8227 35.7776 75.8929 35.671 76.9524C35.5643 78.012 35.2417 79.0385 34.7228 79.9685C34.204 80.8985 33.5 81.7123 32.6544 82.3596C31.8087 83.0069 30.8394 83.4739 29.8061 83.7319C28.7729 83.9899 27.6978 84.0334 26.6471 83.8596C25.5965 83.6859 24.5926 83.2986 23.6974 82.7217C22.8023 82.1448 22.0349 81.3905 21.4427 80.5054L18.2271 75.6617" stroke="#F4F5F4" stroke-width="1.5" stroke-linecap="round" stroke-linejoin="round"/>
<path d="M13.156 45.6868L10.6957 43.0798C10.3749 42.7396 10.1963 42.2897 10.1963 41.8222C10.1963 41.3546 10.3749 40.9047 10.6957 40.5645L17.2957 33.5978L15.0957 24.2625C14.9883 23.8071 15.0591 23.3278 15.2936 22.9229C15.5281 22.5179 15.9085 22.218 16.357 22.0845L25.553 19.3455L28.292 10.1495C28.4231 9.70672 28.7165 9.32972 29.1134 9.09384C29.5104 8.85797 29.9818 8.78058 30.4334 8.87716L39.765 11.0955L46.7317 4.49549C47.0719 4.17474 47.5218 3.99609 47.9894 3.99609C48.4569 3.99609 48.9068 4.17474 49.247 4.49549L56.2137 11.0955L65.549 8.89549C66.0045 8.78807 66.4837 8.85887 66.8887 9.09337C67.2936 9.32788 67.5935 9.70834 67.727 10.1568L70.466 19.3528L79.662 22.0918C80.1152 22.2253 80.4994 22.5287 80.7344 22.9386C80.9694 23.3485 81.0371 23.8332 80.9234 24.2918L78.738 33.5868L85.338 40.5535C85.6588 40.8937 85.8374 41.3436 85.8374 41.8112C85.8374 42.2787 85.6588 42.7286 85.338 43.0688L78.738 50.0355L80.9564 59.3672C81.0648 59.8231 80.9945 60.3033 80.76 60.7091C80.5254 61.1148 80.1443 61.4153 79.695 61.5488L70.499 64.2878L67.76 73.4838C67.6258 73.9324 67.325 74.3126 66.9193 74.5465C66.5136 74.7804 66.0338 74.8501 65.5784 74.7415L56.2467 72.5415L49.28 79.1415C48.9398 79.4622 48.4899 79.6409 48.0224 79.6409C47.5548 79.6409 47.1049 79.4622 46.7647 79.1415L45.441 77.8912" stroke="#F4F5F4" stroke-width="1.5" stroke-linecap="square"/>
</svg>
