<svg width="88" height="88" viewBox="0 0 88 88" fill="none" xmlns="http://www.w3.org/2000/svg">
<path d="M31.1667 38.5C31.1667 40.4449 31.9394 42.3102 33.3146 43.6854C34.6899 45.0607 36.5552 45.8333 38.5001 45.8333H49.5001C51.445 45.8333 53.3103 45.0607 54.6855 43.6854C56.0608 42.3102 56.8334 40.4449 56.8334 38.5" stroke="#F4F5F4" stroke-width="1.5" stroke-linecap="round" stroke-linejoin="round"/>
<path d="M85.1584 30.9723C85.5277 30.7872 85.8237 30.4828 85.9984 30.1084C86.1731 29.7339 86.2161 29.3115 86.1206 28.9095C86.0251 28.5076 85.7966 28.1497 85.4722 27.8938C85.1478 27.638 84.7465 27.4992 84.3334 27.5H3.66672C3.25357 27.4992 2.85226 27.638 2.52786 27.8938C2.20346 28.1497 1.97499 28.5076 1.87949 28.9095C1.78399 29.3115 1.82705 29.7339 2.00171 30.1084C2.17636 30.4828 2.47236 30.7872 2.84172 30.9723C11.6298 35.4955 21.2926 38.0635 31.1667 38.5H56.8334C66.7072 38.0616 76.3696 35.4937 85.1584 30.9723V30.9723Z" stroke="#F4F5F4" stroke-width="1.5" stroke-linecap="round" stroke-linejoin="round"/>
<path d="M69.6667 1.8335H51.3333L44 27.5002H62.3333L69.6667 1.8335Z" stroke="#F4F5F4" stroke-width="1.5" stroke-linecap="round" stroke-linejoin="round"/>
<path d="M67.4116 9.73145L73.3333 27.5001" stroke="#F4F5F4" stroke-width="1.5" stroke-linecap="round" stroke-linejoin="round"/>
<path d="M53.1667 77.9792C52.0514 77.3352 51.1254 76.4089 50.4817 75.2935C49.838 74.178 49.4995 72.9127 49.5001 71.6248V45.8335H38.5001V71.6248C38.5007 72.9127 38.1621 74.178 37.5185 75.2935C36.8748 76.4089 35.9487 77.3352 34.8334 77.9792C33.7181 78.6231 32.792 79.5494 32.1484 80.6649C31.5047 81.7803 31.1661 83.0456 31.1667 84.3335V86.1668H56.8334V84.3335C56.834 83.0456 56.4955 81.7803 55.8518 80.6649C55.2081 79.5494 54.2821 78.6231 53.1667 77.9792V77.9792Z" stroke="#F4F5F4" stroke-width="1.5" stroke-linecap="round" stroke-linejoin="round"/>
</svg>
