<svg width="88" height="88" viewBox="0 0 88 88" fill="none" xmlns="http://www.w3.org/2000/svg">
<path d="M38.5 47.6665C39.8673 48.8869 41.6471 49.5422 43.4793 49.4998H44.5207C46.353 49.5429 48.1331 48.8875 49.5 47.6665" stroke="#F4F5F4" stroke-width="1.5" stroke-linecap="round" stroke-linejoin="round"/>
<path d="M40.3333 36.6663C39.9455 36.0572 39.3996 35.565 38.7538 35.2421C38.108 34.9192 37.3866 34.7778 36.6667 34.833C35.9467 34.7778 35.2254 34.9192 34.5796 35.2421C33.9338 35.565 33.3878 36.0572 33 36.6663" stroke="#F4F5F4" stroke-width="1.5" stroke-linecap="round" stroke-linejoin="round"/>
<path d="M54.9998 36.6663C54.612 36.0572 54.0661 35.565 53.4203 35.2421C52.7745 34.9192 52.0531 34.7778 51.3332 34.833C50.6133 34.7778 49.8919 34.9192 49.2461 35.2421C48.6003 35.565 48.0543 36.0572 47.6665 36.6663" stroke="#F4F5F4" stroke-width="1.5" stroke-linecap="round" stroke-linejoin="round"/>
<path d="M86.1666 86.1665V82.4999C86.1658 79.5119 85.2525 76.5954 83.5488 74.1407C81.845 71.6861 79.4322 69.8103 76.6332 68.7645L57.0386 62.1865" stroke="#F4F5F4" stroke-width="1.5" stroke-linecap="round" stroke-linejoin="round"/>
<path d="M30.9613 62.1865L11.3666 68.7682C8.56818 69.8138 6.15578 71.689 4.45211 74.1429C2.74844 76.5968 1.83474 79.5125 1.83325 82.4999V86.1665" stroke="#F4F5F4" stroke-width="1.5" stroke-linecap="round" stroke-linejoin="round"/>
<path d="M27.5 63.3489V74.4589C27.5002 74.7492 27.5694 75.0353 27.7018 75.2937C27.8343 75.5521 28.0262 75.7753 28.2617 75.945C28.4973 76.1147 28.7698 76.2261 29.0569 76.2698C29.3439 76.3136 29.6372 76.2886 29.9127 76.1969L44 71.4999L30.9613 62.1865" stroke="#F4F5F4" stroke-width="1.5" stroke-linecap="round" stroke-linejoin="round"/>
<path d="M60.5 63.3486V74.4586C60.4998 74.749 60.4306 75.0351 60.2982 75.2935C60.1657 75.5518 59.9738 75.7751 59.7382 75.9448C59.5027 76.1145 59.2302 76.2258 58.9431 76.2696C58.6561 76.3134 58.3628 76.2884 58.0873 76.1966L44 71.4996L57.0387 62.1826" stroke="#F4F5F4" stroke-width="1.5" stroke-linecap="round" stroke-linejoin="round"/>
<path d="M44 86.1701V71.5034" stroke="#F4F5F4" stroke-width="1.5" stroke-linecap="round" stroke-linejoin="round"/>
<path d="M21.6334 27.5C21.6816 28.7285 21.8041 29.9529 22 31.1667C18.799 32.7653 19.8 39.9667 23.7564 41.756C24.3052 42.0045 24.7844 42.3844 25.1514 42.8621C25.5185 43.3399 25.7622 43.9007 25.861 44.495C27.5 54.1897 38.8997 60.5 44 60.5C49.1004 60.5 60.5 54.186 62.139 44.495C62.2378 43.9007 62.4815 43.3399 62.8486 42.8621C63.2157 42.3844 63.6949 42.0045 64.2437 41.756C68.2 39.9667 69.201 32.769 66 31.1667C66.196 29.9529 66.3185 28.7285 66.3667 27.5" stroke="#F4F5F4" stroke-width="1.5" stroke-linecap="round" stroke-linejoin="round"/>
<path d="M63.3966 12.8808C61.6012 9.32555 58.7953 6.38008 55.3312 4.4145C51.8671 2.44891 47.8994 1.55087 43.9266 1.83318C39.9471 1.55007 35.973 2.45125 32.5049 4.42313C29.0368 6.39501 26.23 9.34936 24.4382 12.9138" stroke="#F4F5F4" stroke-width="1.5" stroke-linecap="round" stroke-linejoin="round"/>
<path d="M67.5546 23.7159L66.4546 15.9829C66.3294 15.1095 65.8933 14.3106 65.2265 13.7327C64.5598 13.1549 63.707 12.8368 62.8246 12.8369H25.179C24.2966 12.8368 23.4438 13.1549 22.7771 13.7327C22.1103 14.3106 21.6743 15.1095 21.549 15.9829L20.449 23.7159" stroke="#F4F5F4" stroke-width="1.5" stroke-linecap="round" stroke-linejoin="round"/>
<path d="M16.5 27.4998C16.5 23.4482 28.8127 20.1665 44 20.1665C59.1873 20.1665 71.5 23.4482 71.5 27.4998H16.5Z" stroke="#F4F5F4" stroke-width="1.5" stroke-linecap="round" stroke-linejoin="round"/>
<path d="M20.966 38.8667C20.0809 43.4289 17.5377 47.5017 13.827 50.2994C13.568 50.4542 13.3512 50.6706 13.1958 50.9294C13.0405 51.1881 12.9514 51.4812 12.9366 51.7826C12.9217 52.0841 12.9815 52.3845 13.1106 52.6573C13.2397 52.9301 13.4341 53.1668 13.6767 53.3464C16.7196 55.7209 20.5089 56.9337 24.365 56.7674" stroke="#F4F5F4" stroke-width="1.5" stroke-linecap="round" stroke-linejoin="round"/>
<path d="M67.1292 38.665C67.9946 43.3037 70.56 47.4525 74.3232 50.2994C74.582 50.4545 74.7985 50.6712 74.9535 50.9301C75.1085 51.189 75.1972 51.4822 75.2117 51.7836C75.2262 52.0851 75.1661 52.3854 75.0367 52.658C74.9072 52.9306 74.7125 53.1671 74.4698 53.3464C71.4272 55.7215 67.6377 56.9344 63.7815 56.7674" stroke="#F4F5F4" stroke-width="1.5" stroke-linecap="round" stroke-linejoin="round"/>
</svg>
