<svg width="88" height="88" viewBox="0 0 88 88" fill="none" xmlns="http://www.w3.org/2000/svg">
<path d="M1.84802 86.167H86.1814" stroke="#F4F5F4" stroke-width="1.5" stroke-miterlimit="9.56677" stroke-linecap="square"/>
<path d="M16.5 69.6668C16.5 69.1806 16.3068 68.7143 15.963 68.3705C15.6192 68.0266 15.1529 67.8335 14.6667 67.8335H7.33333C6.8471 67.8335 6.38079 68.0266 6.03697 68.3705C5.69315 68.7143 5.5 69.1806 5.5 69.6668V86.1668H16.5V69.6668Z" stroke="#F4F5F4" stroke-width="1.5" stroke-miterlimit="9.56677" stroke-linecap="square"/>
<path d="M38.5 51.3333C38.5 50.8471 38.3068 50.3808 37.963 50.037C37.6192 49.6932 37.1529 49.5 36.6667 49.5H29.3333C28.8471 49.5 28.3808 49.6932 28.037 50.037C27.6932 50.3808 27.5 50.8471 27.5 51.3333V86.1667H38.5V51.3333Z" stroke="#F4F5F4" stroke-width="1.5" stroke-miterlimit="9.56677" stroke-linecap="square"/>
<path d="M60.5 58.6668C60.5 58.1806 60.3068 57.7143 59.963 57.3705C59.6192 57.0266 59.1529 56.8335 58.6667 56.8335H51.3333C50.8471 56.8335 50.3808 57.0266 50.037 57.3705C49.6932 57.7143 49.5 58.1806 49.5 58.6668V86.1668H60.5V58.6668Z" stroke="#F4F5F4" stroke-width="1.5" stroke-miterlimit="9.56677" stroke-linecap="square"/>
<path d="M82.5 33.0003C82.5 32.5141 82.3068 32.0478 81.963 31.704C81.6192 31.3601 81.1529 31.167 80.6667 31.167H73.3333C72.8471 31.167 72.3808 31.3601 72.037 31.704C71.6932 32.0478 71.5 32.5141 71.5 33.0003V86.167H82.5V33.0003Z" stroke="#F4F5F4" stroke-width="1.5" stroke-miterlimit="9.56677" stroke-linecap="square"/>
<path d="M5.51465 42.167C5.51465 42.8893 5.65691 43.6045 5.93331 44.2718C6.20971 44.939 6.61484 45.5454 7.12556 46.0561C7.63628 46.5668 8.2426 46.9719 8.90989 47.2483C9.57718 47.5247 10.2924 47.667 11.0146 47.667C11.7369 47.667 12.4521 47.5247 13.1194 47.2483C13.7867 46.9719 14.393 46.5668 14.9037 46.0561C15.4145 45.5454 15.8196 44.939 16.096 44.2718C16.3724 43.6045 16.5146 42.8893 16.5146 42.167C16.5146 41.4447 16.3724 40.7295 16.096 40.0622C15.8196 39.3949 15.4145 38.7886 14.9037 38.2779C14.393 37.7672 13.7867 37.3621 13.1194 37.0857C12.4521 36.8093 11.7369 36.667 11.0146 36.667C10.2924 36.667 9.57718 36.8093 8.90989 37.0857C8.2426 37.3621 7.63628 37.7672 7.12556 38.2779C6.61484 38.7886 6.20971 39.3949 5.93331 40.0622C5.65691 40.7295 5.51465 41.4447 5.51465 42.167V42.167Z" stroke="#F4F5F4" stroke-width="1.5" stroke-miterlimit="9.56677" stroke-linecap="square"/>
<path d="M27.5146 23.8335C27.5146 25.2922 28.0941 26.6911 29.1256 27.7226C30.157 28.754 31.556 29.3335 33.0146 29.3335C34.4733 29.3335 35.8723 28.754 36.9037 27.7226C37.9352 26.6911 38.5146 25.2922 38.5146 23.8335C38.5146 22.3748 37.9352 20.9759 36.9037 19.9444C35.8723 18.913 34.4733 18.3335 33.0146 18.3335C31.556 18.3335 30.157 18.913 29.1256 19.9444C28.0941 20.9759 27.5146 22.3748 27.5146 23.8335Z" stroke="#F4F5F4" stroke-width="1.5" stroke-miterlimit="9.56677" stroke-linecap="square"/>
<path d="M49.5146 31.167C49.5146 32.6257 50.0941 34.0246 51.1256 35.0561C52.157 36.0875 53.556 36.667 55.0146 36.667C56.4733 36.667 57.8723 36.0875 58.9037 35.0561C59.9352 34.0246 60.5146 32.6257 60.5146 31.167C60.5146 29.7083 59.9352 28.3094 58.9037 27.2779C57.8723 26.2465 56.4733 25.667 55.0146 25.667C53.556 25.667 52.157 26.2465 51.1256 27.2779C50.0941 28.3094 49.5146 29.7083 49.5146 31.167V31.167Z" stroke="#F4F5F4" stroke-width="1.5" stroke-miterlimit="9.56677" stroke-linecap="square"/>
<path d="M71.5146 7.3335C71.5146 8.79219 72.0941 10.1911 73.1256 11.2226C74.157 12.254 75.556 12.8335 77.0146 12.8335C78.4733 12.8335 79.8723 12.254 80.9037 11.2226C81.9352 10.1911 82.5146 8.79219 82.5146 7.3335C82.5146 5.87481 81.9352 4.47586 80.9037 3.44441C79.8723 2.41296 78.4733 1.8335 77.0146 1.8335C75.556 1.8335 74.157 2.41296 73.1256 3.44441C72.0941 4.47586 71.5146 5.87481 71.5146 7.3335V7.3335Z" stroke="#F4F5F4" stroke-width="1.5" stroke-miterlimit="9.56677" stroke-linecap="square"/>
<path d="M15.6383 38.3168L28.7906 27.3535" stroke="#F4F5F4" stroke-width="1.5" stroke-miterlimit="9.56677" stroke-linecap="square"/>
<path d="M38.2323 25.5713L49.797 29.425" stroke="#F4F5F4" stroke-width="1.5" stroke-miterlimit="9.56677" stroke-linecap="square"/>
<path d="M72.6147 10.6333L58.8317 26.7116" stroke="#F4F5F4" stroke-width="1.5" stroke-miterlimit="9.56677" stroke-linecap="square"/>
</svg>
