<svg width="144" height="22" viewBox="0 0 144 22" fill="none" xmlns="http://www.w3.org/2000/svg">
<g clip-path="url(#clip0)">
<path d="M56.0302 5.21156C57.3333 5.21156 58.4408 4.10398 58.4408 2.7358C58.4408 1.43277 57.3333 0.325195 56.0302 0.325195C54.7272 0.325195 53.6196 1.43277 53.6196 2.7358C53.6848 4.10398 54.7272 5.21156 56.0302 5.21156Z" fill="#686058"/>
<path d="M51.2743 13.9421V21.2391H47.6258V13.9421C47.6258 12.8997 47.2349 11.9224 46.5182 11.2058C45.8667 10.4891 44.8894 10.0982 43.847 10.0982C42.8046 10.0982 41.8924 10.5543 41.1758 11.2058C40.5243 11.9224 40.0682 12.8346 40.0682 13.9421V21.2391H36.4849V13.9421C36.4849 12.8997 36.094 11.9224 35.3773 11.2058C34.6606 10.4891 33.7485 10.0982 32.7061 10.0982C31.6637 10.0982 30.7515 10.5543 30.0349 11.2058C29.3834 11.9224 28.9273 12.8346 28.9273 13.9421V21.2391H25.2788V6.71031H28.9273V7.49213C30.0349 6.77546 31.2727 6.44971 32.7061 6.44971C34.7258 6.44971 36.4849 7.16637 37.9182 8.66486C38.0485 8.79516 38.1788 8.92546 38.244 9.05577C38.3743 8.92546 38.5046 8.79516 38.5697 8.66486C40.0031 7.16637 41.7621 6.44971 43.7818 6.44971C45.8015 6.44971 47.5606 7.16637 48.994 8.66486C50.4273 10.1633 51.2743 11.9224 51.2743 13.9421Z" fill="#686058"/>
<path d="M54.0757 21.2387H58.0499V6.70996H54.0757V21.2387Z" fill="#686058"/>
<mask id="mask0" mask-type="alpha" maskUnits="userSpaceOnUse" x="0" y="0" width="135" height="22">
<path fill-rule="evenodd" clip-rule="evenodd" d="M0 0.325195H134.798V21.4343H0V0.325195Z" fill="white"/>
</mask>
<g mask="url(#mask0)">
<path d="M18.1121 21.2394H22.0212V0.912109H18.1121V21.2394Z" fill="#686058"/>
</g>
<mask id="mask1" mask-type="alpha" maskUnits="userSpaceOnUse" x="0" y="0" width="135" height="22">
<path fill-rule="evenodd" clip-rule="evenodd" d="M0 0.325195H134.798V21.4343H0V0.325195Z" fill="white"/>
</mask>
<g mask="url(#mask1)">
<path d="M10.0985 16.6785C9.447 17.3952 8.46973 17.7861 7.42731 17.7861C6.38488 17.7861 5.47276 17.33 4.75609 16.6785C4.10458 15.9618 3.64852 15.0497 3.64852 13.9421C3.64852 12.8997 4.03943 11.9224 4.75609 11.2058C5.47276 10.4891 6.38488 10.0982 7.42731 10.0982C8.46973 10.0982 9.447 10.5543 10.0985 11.2058C10.8152 11.9224 11.2061 12.8346 11.2061 13.9421C11.2061 15.0497 10.75 15.9618 10.0985 16.6785ZM11.2061 6.71031V7.49213C10.0985 6.77546 8.86064 6.44971 7.42731 6.44971C5.40761 6.44971 3.64852 7.16637 2.21519 8.66486C0.781852 10.1633 0.0651855 11.9224 0.0651855 14.0073C0.0651855 16.0921 0.781852 17.8512 2.21519 19.3497C3.64852 20.8482 5.40761 21.5649 7.42731 21.5649C8.86064 21.5649 10.0985 21.2391 11.2061 20.5224V21.3043H14.8546V6.71031H11.2061Z" fill="#686058"/>
</g>
<mask id="mask2" mask-type="alpha" maskUnits="userSpaceOnUse" x="0" y="0" width="135" height="22">
<path fill-rule="evenodd" clip-rule="evenodd" d="M0 0.325195H134.798V21.4343H0V0.325195Z" fill="white"/>
</mask>
<g mask="url(#mask2)">
<path d="M71.7971 5.21156C73.1001 5.21156 74.2077 4.10398 74.2077 2.7358C74.2077 1.43277 73.1001 0.325195 71.7971 0.325195C70.494 0.325195 69.3865 1.43277 69.3865 2.7358C69.3865 4.10398 70.494 5.21156 71.7971 5.21156Z" fill="#686058"/>
</g>
<mask id="mask3" mask-type="alpha" maskUnits="userSpaceOnUse" x="0" y="0" width="135" height="22">
<path fill-rule="evenodd" clip-rule="evenodd" d="M0 0.325195H134.798V21.4343H0V0.325195Z" fill="white"/>
</mask>
<g mask="url(#mask3)">
<path d="M130.108 12.1828L128.283 11.7267C126.98 11.4661 126.785 11.0752 126.785 10.7494C126.785 9.83731 128.153 9.707 128.544 9.707C130.173 9.707 131.02 10.554 131.346 11.0752L131.606 11.4661L134.473 9.51155L134.212 9.12064C133.691 8.27367 132.127 6.38428 128.479 6.38428C125.026 6.38428 122.876 8.14337 122.876 10.8797C122.876 13.2252 124.309 14.6585 127.111 15.31L128.935 15.7009C130.238 16.0267 130.824 16.2873 130.824 17.004C130.824 18.0464 129.456 18.1116 128.87 18.1116C126.85 18.1116 125.742 16.6131 125.482 16.2873L125.221 15.8964L122.55 18.1116L122.745 18.4373C123.202 19.154 124.961 21.4343 128.87 21.4343C130.564 21.4343 132.062 20.9782 133.105 20.0661C134.147 19.2191 134.733 18.0464 134.733 16.7434C134.799 13.6161 132.127 12.6388 130.108 12.1828Z" fill="#686058"/>
</g>
<path d="M136.948 2.01904V21.2387H140.858V10.6842H143.203V6.70995H140.858L140.792 2.01904H136.948Z" fill="#686058"/>
<path d="M69.8425 21.2387H73.7516V6.70996H69.8425V21.2387Z" fill="#686058"/>
<mask id="mask4" mask-type="alpha" maskUnits="userSpaceOnUse" x="69" y="0" width="66" height="22">
<path fill-rule="evenodd" clip-rule="evenodd" d="M69.4146 0.325195H134.827V21.4343H69.4146V0.325195Z" fill="white"/>
</mask>
<g mask="url(#mask4)">
<path d="M102.707 6.70996L99.1237 17.2645L95.5403 6.70996H91.8918L96.8434 21.2387H101.469L106.355 6.70996H102.707Z" fill="#686058"/>
</g>
<mask id="mask5" mask-type="alpha" maskUnits="userSpaceOnUse" x="69" y="0" width="66" height="22">
<path fill-rule="evenodd" clip-rule="evenodd" d="M69.4146 0.325195H134.827V21.4343H69.4146V0.325195Z" fill="white"/>
</mask>
<g mask="url(#mask5)">
<path d="M113.978 10.0979C115.021 10.0979 115.998 10.554 116.65 11.2055C116.975 11.5312 117.301 11.9873 117.497 12.4434H110.46C110.656 11.9873 110.916 11.5312 111.307 11.2055C111.959 10.554 112.936 10.0979 113.978 10.0979ZM121.34 13.9419C121.34 11.857 120.624 10.0979 119.19 8.59943C117.757 7.10094 115.998 6.38428 113.978 6.38428C111.959 6.38428 110.2 7.10094 108.766 8.59943C107.333 10.0979 106.616 11.857 106.616 13.9419C106.616 16.0267 107.333 17.7858 108.766 19.2843C110.2 20.7828 111.959 21.4994 113.978 21.4994C115.998 21.4994 117.757 20.7828 119.19 19.2843L116.65 16.6782C115.998 17.3949 115.021 17.7858 113.978 17.7858C112.936 17.7858 111.959 17.3297 111.307 16.6782C110.981 16.3525 110.656 15.8964 110.46 15.4403H121.34V13.9419Z" fill="#686058"/>
</g>
<mask id="mask6" mask-type="alpha" maskUnits="userSpaceOnUse" x="69" y="0" width="66" height="22">
<path fill-rule="evenodd" clip-rule="evenodd" d="M69.4146 0.325195H134.827V21.4343H69.4146V0.325195Z" fill="white"/>
</mask>
<g mask="url(#mask6)">
<path d="M71.8252 5.21156C73.1282 5.21156 74.2358 4.10398 74.2358 2.7358C74.2358 1.43277 73.1282 0.325195 71.8252 0.325195C70.5221 0.325195 69.4146 1.43277 69.4146 2.80095C69.4146 4.10398 70.5221 5.21156 71.8252 5.21156Z" fill="#686058"/>
</g>
<mask id="mask7" mask-type="alpha" maskUnits="userSpaceOnUse" x="69" y="0" width="66" height="22">
<path fill-rule="evenodd" clip-rule="evenodd" d="M69.4146 0.325195H134.827V21.4343H69.4146V0.325195Z" fill="white"/>
</mask>
<g mask="url(#mask7)">
<path d="M130.071 12.1828L128.311 11.7267C127.008 11.4661 126.813 11.0752 126.813 10.7494C126.813 9.83731 128.181 9.707 128.572 9.707C130.201 9.707 131.048 10.554 131.374 11.0752L131.634 11.4661L134.501 9.51155L134.24 9.12064C133.719 8.27367 132.155 6.38428 128.507 6.38428C125.054 6.38428 122.904 8.14337 122.904 10.8797C122.904 13.2252 124.337 14.6585 127.139 15.31L128.963 15.7009C130.266 16.0267 130.852 16.2873 130.852 17.004C130.852 18.0464 129.484 18.1116 128.898 18.1116C126.878 18.1116 125.771 16.6131 125.51 16.2873L125.249 15.8964L122.578 18.1116L122.774 18.4373C123.23 19.154 124.989 21.4343 128.898 21.4343C130.592 21.4343 132.09 20.9782 133.133 20.0661C134.175 19.2191 134.761 18.0464 134.761 16.7434C134.827 13.6161 132.09 12.6388 130.071 12.1828Z" fill="#686058"/>
</g>
<path d="M136.948 2.01904V21.2387H140.858V10.6842H143.203V6.70995H140.858L140.792 2.01904H136.948Z" fill="#686058"/>
<path d="M91.5379 13.9421V21.2391H87.8894V13.9421C87.8894 12.8997 87.4985 11.9224 86.7818 11.2058C86.0652 10.4891 85.1531 10.0982 84.1106 10.0982C83.0682 10.0982 82.1561 10.5543 81.4394 11.2058C80.7879 11.9224 80.3318 12.8346 80.3318 13.9421V21.2391H76.6833V6.71031H80.3318V7.49213C81.4394 6.77546 82.6773 6.44971 84.1106 6.44971C86.1303 6.44971 87.8894 7.16637 89.3228 8.66486C90.8212 10.0982 91.5379 11.9224 91.5379 13.9421Z" fill="#686058"/>
<mask id="mask8" mask-type="alpha" maskUnits="userSpaceOnUse" x="91" y="6" width="31" height="16">
<path fill-rule="evenodd" clip-rule="evenodd" d="M91.9048 6.42188H121.353V21.4719H91.9048V6.42188Z" fill="white"/>
</mask>
<g mask="url(#mask8)">
<path d="M102.72 6.68311L99.1366 17.2376L95.5533 6.68311H91.9048L96.7911 21.2119H101.417L106.368 6.68311H102.72Z" fill="#686058"/>
</g>
<mask id="mask9" mask-type="alpha" maskUnits="userSpaceOnUse" x="91" y="6" width="31" height="16">
<path fill-rule="evenodd" clip-rule="evenodd" d="M91.9048 6.42188H121.353V21.4719H91.9048V6.42188Z" fill="white"/>
</mask>
<g mask="url(#mask9)">
<path d="M113.991 10.1355C115.034 10.1355 116.011 10.5916 116.662 11.2431C116.988 11.5688 117.314 12.0249 117.509 12.481H110.473C110.669 12.0249 110.929 11.634 111.32 11.2431C111.972 10.5264 112.949 10.1355 113.991 10.1355ZM121.353 13.9795C121.353 11.8946 120.637 10.1355 119.203 8.63703C117.77 7.13854 116.011 6.42188 113.991 6.42188C111.972 6.42188 110.212 7.13854 108.779 8.63703C107.346 10.1355 106.629 11.8946 106.629 13.9795C106.629 16.0643 107.346 17.8234 108.779 19.3219C110.212 20.8204 111.972 21.537 113.991 21.537C116.011 21.537 117.77 20.8204 119.203 19.3219L116.662 16.7158C116.011 17.4325 115.034 17.8234 113.991 17.8234C112.949 17.8234 111.972 17.3673 111.32 16.7158C110.994 16.3901 110.669 15.934 110.473 15.4779H121.353V13.9795Z" fill="#686058"/>
</g>
</g>
<defs>
<clipPath id="clip0">
<rect width="143.333" height="21.5" fill="white"/>
</clipPath>
</defs>
</svg>
