<svg width="113" height="27" viewBox="0 0 113 27" fill="none" xmlns="http://www.w3.org/2000/svg">
<g clip-path="url(#clip0)">
<path d="M108.275 15.2689C110.414 14.6721 111.906 13.18 111.906 10.743V10.6932C111.906 9.40009 111.458 8.3059 110.662 7.46039C109.668 6.51541 108.176 5.96831 106.286 5.96831H99.4718V20.8891H102.158V15.7165H105.49L109.22 20.8891H112.353C112.403 20.8891 108.275 15.2689 108.275 15.2689ZM102.158 13.379V8.35563H106.037C108.026 8.35563 109.17 9.20114 109.17 10.8424V10.8922C109.17 12.3842 107.927 13.379 106.037 13.379H102.158ZM82.5616 8.3059V20.8891H94.0009V18.5515H84.9987V14.5229H91.912V12.1853H84.9987V8.3059H94.0009V5.96831H82.5616V8.3059ZM69.7795 5.96831H67.1435V20.8891H77.588V18.5018H69.7795V5.96831ZM49.7359 8.40537H54.61V20.8891H57.3455V8.40537H62.2196V5.96831H49.7857V8.40537H49.7359ZM42.1761 5.96831H44.7623V20.8891H42.5739L34.4173 10.2953V20.8891H31.831V5.96831H34.268L42.2258 16.3134L42.1761 5.96831ZM18.5018 20.9886L13.379 9.0022L8.25616 20.9886H5.52069L12.1356 5.86884H14.6224L21.2372 20.9886H18.5018ZM0 26.8574H26.8574V0H0V26.8574Z" fill="#686058"/>
</g>
<defs>
<clipPath id="clip0">
<rect width="113" height="26.8574" fill="white"/>
</clipPath>
</defs>
</svg>
