<svg width="134" height="30" viewBox="0 0 134 30" fill="none" xmlns="http://www.w3.org/2000/svg">
<path d="M30.82 19.5643C31.021 19.9663 31.3225 20.3013 31.6575 20.5693C32.026 20.8373 32.428 21.0048 32.897 21.1388C33.366 21.2728 33.8685 21.3398 34.371 21.3398C34.706 21.3398 35.0745 21.3063 35.4765 21.2393C35.8785 21.1723 36.247 21.0718 36.582 20.9043C36.917 20.7368 37.2185 20.5023 37.453 20.2343C37.6875 19.9328 37.788 19.5643 37.788 19.1288C37.788 18.6598 37.6205 18.2578 37.319 17.9563C37.0175 17.6548 36.6155 17.4203 36.113 17.2193C35.6105 17.0183 35.0745 16.8508 34.438 16.7168C33.8015 16.5828 33.165 16.4153 32.5285 16.2143C31.8585 16.0468 31.222 15.8458 30.619 15.6113C29.9825 15.3768 29.4465 15.0753 28.944 14.6733C28.4415 14.2713 28.0395 13.8358 27.738 13.2663C27.4365 12.6968 27.269 12.0268 27.269 11.1893C27.269 10.2848 27.47 9.51429 27.8385 8.84429C28.2405 8.17429 28.743 7.63829 29.346 7.16929C29.9825 6.73379 30.686 6.39879 31.4565 6.19779C32.2605 5.99679 33.031 5.86279 33.835 5.86279C34.773 5.86279 35.644 5.96329 36.4815 6.16429C37.319 6.36529 38.0895 6.70029 38.726 7.16929C39.396 7.63829 39.8985 8.20779 40.3005 8.94479C40.7025 9.64829 40.87 10.5193 40.87 11.5578H37.118C37.0845 11.0218 36.984 10.5863 36.783 10.2513C36.582 9.91629 36.3475 9.64829 36.046 9.44729C35.7445 9.24629 35.376 9.11229 34.974 9.01179C34.572 8.94479 34.1365 8.87779 33.6675 8.87779C33.366 8.87779 33.031 8.91129 32.7295 8.97829C32.428 9.04529 32.1265 9.14579 31.892 9.31329C31.624 9.48079 31.423 9.68179 31.2555 9.91629C31.088 10.1508 31.021 10.4858 31.021 10.8543C31.021 11.1893 31.088 11.4908 31.222 11.6918C31.356 11.8928 31.624 12.0938 31.9925 12.2948C32.3945 12.4623 32.9305 12.6633 33.6005 12.8308C34.2705 12.9983 35.175 13.2328 36.2805 13.5343C36.6155 13.6013 37.051 13.7353 37.654 13.9028C38.2235 14.0703 38.8265 14.3383 39.396 14.7403C39.9655 15.1088 40.468 15.6113 40.9035 16.2478C41.339 16.8843 41.54 17.6883 41.54 18.6933C41.54 19.4973 41.3725 20.2343 41.071 20.9378C40.7695 21.6413 40.3005 22.2108 39.664 22.7133C39.061 23.2158 38.2905 23.6178 37.3525 23.8858C36.448 24.1538 35.376 24.3213 34.17 24.3213C33.1985 24.3213 32.2605 24.1873 31.356 23.9528C30.4515 23.7183 29.6475 23.3498 28.944 22.8138C28.2405 22.3113 27.7045 21.6413 27.269 20.8708C26.867 20.0668 26.666 19.1288 26.666 18.0568H30.418C30.5185 18.6598 30.619 19.1623 30.82 19.5643Z" fill="#686058"/>
<path d="M47.1346 6.29688V23.9179H43.6171V6.29688H47.1346Z" fill="#686058"/>
<path d="M49.7476 15.0743C49.7811 14.2368 50.0156 13.5668 50.3506 13.0308C50.7191 12.4948 51.1881 12.0593 51.7241 11.7243C52.2936 11.3893 52.8966 11.1548 53.6001 11.0208C54.3036 10.8868 55.0071 10.8198 55.7106 10.8198C56.3471 10.8198 57.0171 10.8533 57.6536 10.9538C58.3236 11.0543 58.9266 11.2218 59.4626 11.4898C59.9986 11.7578 60.4341 12.1263 60.8026 12.5953C61.1711 13.0643 61.3051 13.7008 61.3051 14.4713V21.1043C61.3051 21.6738 61.3386 22.2433 61.4056 22.7458C61.4726 23.2818 61.5731 23.6838 61.7406 23.9183H58.1896C58.1226 23.7173 58.0556 23.5163 58.0221 23.3153C57.9886 23.1143 57.9551 22.9133 57.9216 22.6788C57.3521 23.2483 56.7156 23.6503 55.9451 23.8848C55.1746 24.1193 54.4041 24.2198 53.6336 24.2198C53.0306 24.2198 52.4611 24.1528 51.9251 23.9853C51.3891 23.8513 50.9536 23.6168 50.5516 23.2818C50.1496 22.9803 49.8481 22.5783 49.6136 22.1093C49.3791 21.6403 49.2786 21.0708 49.2786 20.4008C49.2786 19.6638 49.4126 19.0943 49.6471 18.6253C49.9151 18.1563 50.2166 17.7878 50.6186 17.4863C51.0206 17.2183 51.4896 16.9838 51.9921 16.8498C52.4946 16.7158 53.0306 16.6153 53.5666 16.5148C54.1026 16.4478 54.6051 16.3808 55.1076 16.3138C55.6101 16.2803 56.0791 16.1798 56.4811 16.0793C56.8831 15.9788 57.1846 15.8448 57.4191 15.6438C57.6536 15.4428 57.7541 15.1748 57.7541 14.8063C57.7541 14.4378 57.6871 14.1363 57.5531 13.9018C57.4191 13.6673 57.2516 13.4998 57.0506 13.3993C56.8496 13.2653 56.6151 13.1983 56.3471 13.1648C56.0791 13.1313 55.7776 13.0978 55.4761 13.0978C54.7726 13.0978 54.2366 13.2318 53.8346 13.5333C53.4326 13.8348 53.1981 14.3373 53.1311 15.0073H49.7476V15.0743ZM57.8546 17.6873C57.7206 17.8213 57.5196 17.9218 57.2851 17.9888C57.0506 18.0558 56.8161 18.1228 56.5816 18.1898C56.3136 18.2233 56.0456 18.2903 55.7776 18.3238C55.5096 18.3573 55.2081 18.3908 54.9401 18.4578C54.6721 18.4913 54.4041 18.5583 54.1696 18.6588C53.9016 18.7258 53.7006 18.8598 53.4996 18.9938C53.2986 19.1278 53.1646 19.2953 53.0306 19.5298C52.9301 19.7308 52.8631 20.0323 52.8631 20.3338C52.8631 20.6353 52.9301 20.9033 53.0306 21.1378C53.1311 21.3388 53.2986 21.5063 53.4996 21.6403C53.7006 21.7743 53.9351 21.8413 54.2031 21.9083C54.4711 21.9418 54.7391 21.9753 55.0071 21.9753C55.7106 21.9753 56.2466 21.8748 56.6151 21.6403C56.9836 21.4058 57.2851 21.1378 57.4526 20.8028C57.6201 20.4678 57.7541 20.1663 57.7876 19.8313C57.8211 19.4963 57.8546 19.2283 57.8546 19.0273V17.6873Z" fill="#686058"/>
<path d="M67 20.7358C67.1675 21.0038 67.3685 21.2383 67.603 21.4058C67.8375 21.5733 68.139 21.7073 68.4405 21.7743C68.7755 21.8413 69.1105 21.9083 69.4455 21.9083C69.68 21.9083 69.948 21.8748 70.216 21.8078C70.484 21.7408 70.7185 21.6738 70.953 21.5398C71.1875 21.4058 71.355 21.2383 71.5225 21.0373C71.6565 20.8363 71.757 20.5683 71.757 20.2668C71.757 19.7308 71.422 19.3288 70.7185 19.0943C70.015 18.8263 69.0435 18.5583 67.804 18.2903C67.3015 18.1898 66.799 18.0558 66.2965 17.8883C65.794 17.7208 65.392 17.5198 64.99 17.2853C64.6215 17.0173 64.32 16.7158 64.0855 16.3138C63.851 15.9118 63.7505 15.4428 63.7505 14.9068C63.7505 14.0693 63.918 13.3993 64.2195 12.8968C64.5545 12.3608 64.9565 11.9588 65.4925 11.6573C66.0285 11.3558 66.598 11.1548 67.268 11.0208C67.938 10.8868 68.608 10.8198 69.278 10.8198C69.9815 10.8198 70.6515 10.8868 71.288 11.0208C71.9245 11.1548 72.5275 11.3893 73.03 11.6908C73.5325 11.9923 73.968 12.4278 74.303 12.9303C74.638 13.4328 74.839 14.1028 74.906 14.9068H71.5895C71.556 14.2368 71.288 13.7678 70.819 13.5333C70.35 13.2988 69.814 13.1648 69.1775 13.1648C68.9765 13.1648 68.7755 13.1648 68.541 13.1983C68.3065 13.2318 68.1055 13.2653 67.9045 13.3658C67.7035 13.4328 67.5695 13.5668 67.4355 13.7343C67.3015 13.9018 67.2345 14.1028 67.2345 14.3708C67.2345 14.6723 67.335 14.9403 67.5695 15.1413C67.804 15.3423 68.1055 15.5098 68.474 15.6103C68.8425 15.7443 69.278 15.8448 69.747 15.9453C70.216 16.0458 70.7185 16.1463 71.1875 16.2803C71.69 16.3808 72.1925 16.5483 72.695 16.7158C73.164 16.8833 73.5995 17.0843 74.0015 17.3858C74.37 17.6538 74.6715 17.9888 74.906 18.3908C75.1405 18.7928 75.241 19.2953 75.241 19.8983C75.241 20.7358 75.0735 21.4393 74.7385 22.0088C74.4035 22.5783 73.968 23.0473 73.432 23.3823C72.896 23.7173 72.2595 23.9853 71.556 24.1193C70.8525 24.2533 70.149 24.3203 69.412 24.3203C68.675 24.3203 67.938 24.2533 67.2345 24.0858C66.531 23.9518 65.8945 23.6838 65.3585 23.3488C64.8225 23.0138 64.3535 22.5448 63.985 21.9753C63.6165 21.4058 63.449 20.7023 63.4155 19.8313H66.732C66.7655 20.1663 66.866 20.4678 67 20.7358Z" fill="#686058"/>
<path d="M80.8355 6.29688V12.9299H80.9025C81.338 12.1929 81.9075 11.6569 82.611 11.3219C83.3145 10.9869 83.9845 10.8194 84.621 10.8194C85.559 10.8194 86.3295 10.9534 86.9325 11.1879C87.5355 11.4559 88.0046 11.7909 88.3396 12.2599C88.6746 12.7289 88.9425 13.2649 89.0765 13.9014C89.2105 14.5379 89.2775 15.2749 89.2775 16.0454V23.8844H85.76V16.7154C85.76 15.6769 85.5925 14.8729 85.2575 14.3704C84.9225 13.8679 84.353 13.5999 83.5155 13.5999C82.544 13.5999 81.874 13.8679 81.4385 14.4374C81.003 15.0069 80.802 15.9449 80.802 17.2514V23.9514H77.2845V6.29688H80.8355Z" fill="#686058"/>
<path d="M95.9775 20.1328V23.9183H92.125V20.1328H95.9775Z" fill="#686058"/>
<path d="M105.827 11.1549V13.4999H103.247V19.8314C103.247 20.4344 103.348 20.8029 103.549 21.0039C103.75 21.2049 104.152 21.3054 104.721 21.3054C104.922 21.3054 105.123 21.3054 105.291 21.2719C105.458 21.2719 105.659 21.2384 105.793 21.2049V23.9184C105.492 23.9519 105.157 23.9854 104.822 24.0189C104.453 24.0189 104.118 24.0524 103.75 24.0524C103.214 24.0524 102.678 24.0189 102.209 23.9519C101.74 23.8849 101.304 23.7174 100.936 23.5164C100.567 23.3154 100.266 23.0139 100.065 22.6119C99.8635 22.2099 99.7295 21.7074 99.7295 21.0709V13.4999H97.619V11.1549H99.7295V7.33594H103.247V11.1549H105.827Z" fill="#686058"/>
<path d="M111.253 20.8698C111.789 21.3723 112.526 21.6403 113.531 21.6403C114.235 21.6403 114.838 21.4728 115.374 21.1043C115.876 20.7358 116.211 20.3673 116.312 19.9653H119.394C118.891 21.5063 118.154 22.5783 117.116 23.2483C116.111 23.9183 114.871 24.2198 113.397 24.2198C112.392 24.2198 111.488 24.0523 110.684 23.7508C109.88 23.4158 109.21 22.9803 108.64 22.3773C108.071 21.7743 107.635 21.0708 107.334 20.2668C107.032 19.4293 106.865 18.5248 106.865 17.5533C106.865 16.6153 107.032 15.7108 107.334 14.8733C107.635 14.0358 108.104 13.3323 108.674 12.7293C109.243 12.1263 109.947 11.6573 110.751 11.3223C111.555 10.9873 112.426 10.8198 113.397 10.8198C114.469 10.8198 115.441 11.0208 116.245 11.4563C117.049 11.8918 117.719 12.4278 118.221 13.1313C118.724 13.8348 119.126 14.6388 119.36 15.5433C119.595 16.4478 119.662 17.3858 119.595 18.3908H110.382C110.449 19.5298 110.751 20.3338 111.253 20.8698ZM115.24 14.1363C114.804 13.6673 114.168 13.4328 113.33 13.4328C112.761 13.4328 112.292 13.5333 111.923 13.7008C111.555 13.9018 111.253 14.1363 111.019 14.4043C110.784 14.6723 110.65 14.9738 110.55 15.3088C110.449 15.6103 110.416 15.9118 110.382 16.1463H116.077C115.943 15.2753 115.642 14.6053 115.24 14.1363Z" fill="#686058"/>
<path d="M125.022 11.1548V12.9303H125.089C125.524 12.1933 126.094 11.6573 126.831 11.3223C127.534 10.9873 128.271 10.8198 129.008 10.8198C129.946 10.8198 130.717 10.9538 131.32 11.1883C131.923 11.4563 132.392 11.7913 132.727 12.2603C133.062 12.7293 133.33 13.2653 133.464 13.9018C133.598 14.5383 133.665 15.2753 133.665 16.0458V23.8848H130.147V16.7158C130.147 15.6773 129.98 14.8733 129.645 14.3708C129.31 13.8683 128.74 13.6003 127.903 13.6003C126.931 13.6003 126.261 13.8683 125.826 14.4378C125.39 15.0073 125.189 15.9453 125.189 17.2518V23.9518H121.672V11.1548H125.022Z" fill="#686058"/>
<path d="M6.83394 16.1132L8.54244 14.3713L14.5054 8.44175L10.7199 4.65625L0.267944 15.1082L4.05344 18.8937L6.83394 16.1132Z" fill="#686058"/>
<path d="M16.2158 10.1442L10.2701 16.0898L15.2209 21.0406L21.1666 15.095L16.2158 10.1442Z" fill="#686058"/>
<path d="M8.54577 17.8345L5.77429 20.606L10.7251 25.5567L13.4965 22.7852L8.54577 17.8345Z" fill="#686058"/>
</svg>
