<svg width="76" height="34" viewBox="0 0 76 34" fill="none" xmlns="http://www.w3.org/2000/svg">
<g clip-path="url(#clip0)">
<path d="M31.2678 25.7325H36.0851V7.77979H31.2678V25.7325Z" fill="#686058"/>
<path d="M44.3134 25.7323H39.4961V7.77952H44.1788V10.0087C45.2559 8.13858 47.4103 7.30078 49.3252 7.30078C53.7536 7.30078 55.7882 10.4874 55.7882 14.422V25.7323H50.9559V15.2598C50.9559 13.2551 49.9835 11.6842 47.6646 11.6842C45.5552 11.6842 44.3134 13.3299 44.3134 15.4094V25.7323Z" fill="#686058"/>
<path d="M28.3206 12.0881V7.77945H24.73V4.84717L19.9725 6.89677L19.9426 20.4361C19.9426 23.907 22.1119 25.9865 25.5977 25.9865C27.019 25.9865 27.8867 25.7322 28.3206 25.5527V21.5432C28.0662 21.6031 27.4229 21.6779 26.8395 21.6779C25.4631 21.6779 24.73 21.1692 24.73 19.5984V12.0881H28.3206Z" fill="#686058"/>
<path d="M31.2678 2.06457V4.74252H36.13V0L31.2678 2.06457Z" fill="#686058"/>
<path d="M67.1134 20.7652C64.6 20.7652 62.8197 19.0148 62.8197 16.2022C62.8197 13.4344 64.7197 11.6841 67.1134 11.6841C69.4323 11.6841 71.3174 13.4344 71.3174 16.2022C71.3174 18.9848 69.5819 20.7652 67.1134 20.7652ZM71.3622 7.77933V9.90374C70.7339 8.69193 69.1032 7.4502 66.2756 7.4502C61.3685 7.4502 57.9575 11.4596 57.9575 16.2022C57.9575 21.2439 61.5182 24.9242 66.2756 24.9242C68.8489 24.9242 70.5245 23.8022 71.2426 22.6352V23.9518C71.2426 27.4077 69.537 28.9486 66.4851 28.9486C64.6898 28.9486 63.3433 28.0659 62.6851 26.7195L58.6158 28.4549C59.8725 30.9833 62.7449 33.2124 66.6347 33.2124C73.352 33.2124 76 28.7242 76 23.8022V7.77933H71.3622Z" fill="#686058"/>
<path d="M10.7717 12.118L7.55512 11.4299C6.08898 11.1606 5.25118 10.3078 5.25118 9.11096C5.25118 7.67474 6.65748 6.55269 8.4378 6.55269C10.6071 6.55269 12.4323 7.77946 12.8362 9.88891L17.2047 8.04875C15.4244 3.29127 11.026 2.4834 8.39291 2.4834C3.81496 2.4834 0.23937 5.61017 0.23937 9.61962C0.23937 11.5495 0.987402 13.1503 2.3937 14.3173L2.40866 14.3023L2.42362 14.3322C3.41102 15.1401 4.72756 15.7535 6.34331 16.1125L9.33543 16.8007C11.5346 17.2645 11.9984 18.4165 11.9984 19.3141C11.9984 20.5858 10.9811 21.8724 8.70709 21.8724C5.93937 21.8724 4.65276 20.1968 4.35354 18.596L0 20.4511C0.867717 22.8598 3.35118 25.9865 8.76693 25.9865C14.5866 25.9865 17.2346 22.2614 17.2346 18.8054C17.2346 15.4094 14.8709 12.9708 10.7717 12.118Z" fill="#686058"/>
</g>
<defs>
<clipPath id="clip0">
<rect width="76" height="33.2126" fill="white"/>
</clipPath>
</defs>
</svg>
