<svg width="145" height="17" viewBox="0 0 145 17" fill="none" xmlns="http://www.w3.org/2000/svg">
<g clip-path="url(#clip0)">
<path d="M32.58 0.304199H28.9226V15.406H32.58V0.304199Z" fill="#686058"/>
<path d="M113.332 15.406L120.623 0.304199H116.869L111.551 11.315L106.258 0.304199H102.504L109.794 15.406H113.332Z" fill="#686058"/>
<path d="M17.7336 15.406L25.5057 0.304199H21.5595L15.7606 11.315L5.02895 0.304199H0L14.3168 15.406H17.7336Z" fill="#686058"/>
<path d="M127.24 0.304199L119.468 15.406H123.438L129.213 4.39523L139.968 15.406H144.973L130.656 0.304199H127.24Z" fill="#686058"/>
<path d="M42.2291 5.5641V15.406H38.5957V0.304199H42.2291L51.4448 10.1227V0.304199H55.0781V15.406H51.4448L42.2291 5.5641Z" fill="#686058"/>
<path d="M64.3659 5.5641V15.406H60.7085V0.304199H64.3659L73.5577 10.1227V0.304199H77.2148V15.406H73.5577L64.3659 5.5641Z" fill="#686058"/>
<path d="M91.2912 12.7173C94.5153 12.7173 96.6088 11.0107 96.6088 7.92495C96.6088 4.956 94.6115 3.2962 91.2912 3.2962C87.9703 3.2962 85.9737 4.956 85.9737 7.92495C85.9737 11.0341 88.0424 12.7173 91.2912 12.7173ZM82.2438 7.87818C82.2438 2.82866 85.6362 0 91.2912 0C96.9456 0 100.339 2.82866 100.339 7.87818C100.339 13.1381 96.8012 16.0369 91.2912 16.0369C85.7806 16.0369 82.2438 13.1381 82.2438 7.87818Z" fill="#686058"/>
</g>
<defs>
<clipPath id="clip0">
<rect width="145" height="16.0369" fill="white"/>
</clipPath>
</defs>
</svg>
