<svg width="88" height="88" viewBox="0 0 88 88" fill="none" xmlns="http://www.w3.org/2000/svg">
<path d="M27.4999 86.1667H1.83325V31.1667H5.49992H23.8333H27.4999V86.1667Z" stroke="#F4F5F4" stroke-width="1.5"/>
<path d="M23.8333 31.1669V16.5L54.2666 2.97754L56.8333 1.84375V38.5002" stroke="#F4F5F4" stroke-width="1.5"/>
<path d="M20.1665 86.1668V77.0001V75.1667L18.3332 75.1668H10.9998L9.1665 75.1668V77.0001V86.1668" stroke="#F4F5F4" stroke-width="1.5"/>
<path d="M1.83325 42.1667H16.4999" stroke="#F4F5F4" stroke-width="1.5"/>
<path d="M45.8333 20.1667H56.8333" stroke="#F4F5F4" stroke-width="1.5"/>
<path d="M38.5 27.5002H56.8333" stroke="#F4F5F4" stroke-width="1.5"/>
<path d="M1.83325 49.5002H9.16659" stroke="#F4F5F4" stroke-width="1.5"/>
<path d="M31.9165 13.2405V1.8335H30.4165V13.2405H31.9165Z" fill="#F4F5F4"/>
<path d="M27.5 86.1667H51.3333" stroke="#F4F5F4" stroke-width="1.5"/>
<path d="M45.8333 62.4398C45.8333 66.8441 47.5828 71.068 50.6971 74.1823C53.8114 77.2966 58.0353 79.0462 62.4396 79.0462C66.8439 79.0462 71.0677 77.2966 74.182 74.1823C77.2963 71.068 79.0459 66.8441 79.0459 62.4398C79.0459 58.0356 77.2963 53.8117 74.182 50.6974C71.0677 47.5831 66.8439 45.8335 62.4396 45.8335C58.0353 45.8335 53.8114 47.5831 50.6971 50.6974C47.5828 53.8117 45.8333 58.0356 45.8333 62.4398V62.4398Z" stroke="#F4F5F4" stroke-width="1.5"/>
<path d="M86.1662 86.1669L74.2568 74.2576" stroke="#F4F5F4" stroke-width="1.5"/>
</svg>
