<svg width="88" height="88" viewBox="0 0 88 88" fill="none" xmlns="http://www.w3.org/2000/svg">
<path d="M20.6286 60.2141H16.4999C12.6101 60.2141 8.87955 58.6689 6.12902 55.9183C3.37849 53.1678 1.83325 49.4373 1.83325 45.5474V30.8808C1.83325 26.9909 3.37849 23.2604 6.12902 20.5099C8.87955 17.7593 12.6101 16.2141 16.4999 16.2141H20.1666L20.4489 5.86676C20.4578 5.51742 20.5664 5.1779 20.7618 4.88819C20.9572 4.59849 21.2313 4.37067 21.5519 4.23157C21.8725 4.09247 22.2261 4.0479 22.5712 4.10309C22.9163 4.15828 23.2384 4.31095 23.4996 4.5431L36.6666 16.2141H53.1666C57.0564 16.2141 60.7869 17.7593 63.5375 20.5099C66.288 23.2604 67.8333 26.9909 67.8333 30.8808" stroke="#F4F5F4" stroke-width="1.57" stroke-linecap="round" stroke-linejoin="round"/>
<path d="M20.1665 56.5475C20.1665 60.4374 21.7117 64.1679 24.4623 66.9184C27.2128 69.669 30.9433 71.2142 34.8332 71.2142H51.3332L65.0612 83.4535C65.3283 83.6923 65.6596 83.8476 66.014 83.9001C66.3684 83.9527 66.7304 83.9002 67.0554 83.7493C67.3803 83.5983 67.6539 83.3554 67.8423 83.0507C68.0307 82.7459 68.1257 82.3927 68.1155 82.0345L67.8332 71.2142H71.4998C75.3897 71.2142 79.1202 69.669 81.8707 66.9184C84.6213 64.1679 86.1665 60.4374 86.1665 56.5475V45.5475C86.1665 41.6577 84.6213 37.9272 81.8707 35.1766C79.1202 32.4261 75.3897 30.8809 71.4998 30.8809H67.8332V45.5475C67.8332 49.4374 66.2879 53.1679 63.5374 55.9184C60.7869 58.669 57.0563 60.2142 53.1665 60.2142" stroke="#F4F5F4" stroke-width="1.57" stroke-linecap="round" stroke-linejoin="round"/>
<path d="M49.4996 41.8806C49.5061 40.5918 49.1727 39.3241 48.5332 38.2051C47.8937 37.0861 46.9706 36.1554 45.8569 35.5068C44.7432 34.8582 43.4782 34.5146 42.1894 34.5105C40.9006 34.5065 39.6334 34.8422 38.5157 35.4838C37.3979 36.1254 36.469 37.0502 35.8224 38.1652C35.1759 39.2801 34.8346 40.5457 34.833 41.8345C34.8314 43.1234 35.1694 44.3899 35.8131 45.5064C36.4568 46.623 37.3834 47.5502 38.4996 48.1946V52.8806H45.8329V48.1946C46.9446 47.5567 47.8687 46.6373 48.5123 45.529C49.156 44.4206 49.4965 43.1623 49.4996 41.8806Z" stroke="#F4F5F4" stroke-width="1.57" stroke-linecap="round" stroke-linejoin="round"/>
<path d="M42.1665 56.5475V52.8809" stroke="#F4F5F4" stroke-width="1.57" stroke-linecap="round" stroke-linejoin="round"/>
<path d="M20.1665 56.5474V38.2141C20.1665 35.2967 21.3254 32.4988 23.3883 30.4359C25.4512 28.373 28.2491 27.2141 31.1665 27.2141" stroke="#F4F5F4" stroke-width="1.57" stroke-linecap="round" stroke-linejoin="round"/>
</svg>
