<svg width="88" height="88" viewBox="0 0 88 88" fill="none" xmlns="http://www.w3.org/2000/svg">
<path d="M16.5 9.15918H67.8333" stroke="#F4F5F4" stroke-width="1.5" stroke-linecap="round" stroke-linejoin="round"/>
<path d="M16.5 27.4924H67.8333" stroke="#F4F5F4" stroke-width="1.5" stroke-linecap="round" stroke-linejoin="round"/>
<path d="M16.5 45.8259H38.5" stroke="#F4F5F4" stroke-width="1.5" stroke-linecap="round" stroke-linejoin="round"/>
<path d="M16.5 64.1592H38.5" stroke="#F4F5F4" stroke-width="1.5" stroke-linecap="round" stroke-linejoin="round"/>
<path d="M1.8335 9.15942H5.50016" stroke="#F4F5F4" stroke-width="1.5" stroke-linecap="round" stroke-linejoin="round"/>
<path d="M1.83325 27.4924H5.49992" stroke="#F4F5F4" stroke-width="1.5" stroke-linecap="round" stroke-linejoin="round"/>
<path d="M1.83325 45.8259H5.49992" stroke="#F4F5F4" stroke-width="1.5" stroke-linecap="round" stroke-linejoin="round"/>
<path d="M1.83325 64.1592H5.49992" stroke="#F4F5F4" stroke-width="1.5" stroke-linecap="round" stroke-linejoin="round"/>
<path d="M49.5 67.8258C49.5 72.6881 51.4315 77.3512 54.8697 80.7894C58.3079 84.2276 62.971 86.1591 67.8333 86.1591C72.6956 86.1591 77.3588 84.2276 80.797 80.7894C84.2351 77.3512 86.1667 72.6881 86.1667 67.8258C86.1667 62.9635 84.2351 58.3003 80.797 54.8621C77.3588 51.424 72.6956 49.4924 67.8333 49.4924C62.971 49.4924 58.3079 51.424 54.8697 54.8621C51.4315 58.3003 49.5 62.9635 49.5 67.8258V67.8258Z" stroke="#F4F5F4" stroke-width="1.5" stroke-linecap="round" stroke-linejoin="round"/>
<path d="M76.9998 67.8259H58.6665" stroke="#F4F5F4" stroke-width="1.5" stroke-linecap="round" stroke-linejoin="round"/>
<path d="M67.8333 76.9925V58.6592" stroke="#F4F5F4" stroke-width="1.5" stroke-linecap="round" stroke-linejoin="round"/>
</svg>
