<svg width="88" height="88" viewBox="0 0 88 88" fill="none" xmlns="http://www.w3.org/2000/svg">
<path d="M78.8333 36.0725V76.9998C78.8333 77.9723 78.447 78.9049 77.7594 79.5926C77.0717 80.2802 76.1391 80.6665 75.1666 80.6665H12.8333C11.8608 80.6665 10.9282 80.2802 10.2406 79.5926C9.55293 78.9049 9.16663 77.9723 9.16663 76.9998V36.0725" stroke="#F4F5F4" stroke-width="1.5" stroke-linecap="round" stroke-linejoin="round"/>
<path d="M16.4995 47.6667H45.8328V69.6667H16.4995V47.6667Z" stroke="#F4F5F4" stroke-width="1.5" stroke-linecap="round" stroke-linejoin="round"/>
<path d="M71.5 80.6667H53.1666V49.5001C53.1666 49.0139 53.3598 48.5475 53.7036 48.2037C54.0474 47.8599 54.5137 47.6667 55 47.6667H69.6666C70.1529 47.6667 70.6192 47.8599 70.963 48.2037C71.3068 48.5475 71.5 49.0139 71.5 49.5001V80.6667Z" stroke="#F4F5F4" stroke-width="1.5" stroke-linecap="round" stroke-linejoin="round"/>
<path d="M79.8455 9.36092C79.5412 8.75196 79.0734 8.23973 78.4944 7.88161C77.9155 7.52349 77.2483 7.33362 76.5675 7.33325H11.4328C10.7521 7.33362 10.0849 7.52349 9.5059 7.88161C8.92695 8.23973 8.45913 8.75196 8.15483 9.36092L1.8335 21.9999H86.1668L79.8455 9.36092Z" stroke="#F4F5F4" stroke-width="1.5" stroke-linecap="round" stroke-linejoin="round"/>
<path d="M86.1665 25.6664C86.2414 27.8245 85.6487 29.9532 84.4693 31.7621C83.2899 33.571 81.5811 34.972 79.5762 35.774C77.5712 36.576 75.3676 36.7399 73.266 36.2434C71.1645 35.7469 69.2672 34.6142 67.8331 32.9998C66.6458 35.0076 65.0019 36.7074 63.0349 37.9612C61.0678 39.215 58.8329 39.9875 56.5115 40.2161C54.19 40.4446 51.8474 40.1228 49.6736 39.2768C47.4997 38.4307 45.5559 37.0842 43.9998 35.3464C42.4437 37.0842 40.4999 38.4307 38.326 39.2768C36.1522 40.1228 33.8096 40.4446 31.4881 40.2161C29.1667 39.9875 26.9318 39.215 24.9647 37.9612C22.9977 36.7074 21.3538 35.0076 20.1665 32.9998C18.7314 34.6121 16.8343 35.7429 14.7335 36.2381C12.6326 36.7334 10.4301 36.569 8.42608 35.7674C6.42202 34.9657 4.71377 33.5658 3.53401 31.7584C2.35424 29.9509 1.76032 27.8236 1.83312 25.6664V21.9998H86.1665V25.6664Z" stroke="#F4F5F4" stroke-width="1.5" stroke-linecap="round" stroke-linejoin="round"/>
<path d="M20.1666 32.9997V21.9997L23.8333 7.33301" stroke="#F4F5F4" stroke-width="1.5" stroke-linecap="round" stroke-linejoin="round"/>
<path d="M43.9995 35.3647V21.9997V7.33301" stroke="#F4F5F4" stroke-width="1.5" stroke-linecap="round" stroke-linejoin="round"/>
<path d="M67.8333 32.9997V21.9997L64.1666 7.33301" stroke="#F4F5F4" stroke-width="1.5" stroke-linecap="round" stroke-linejoin="round"/>
</svg>
