<svg width="88" height="88" viewBox="0 0 88 88" fill="none" xmlns="http://www.w3.org/2000/svg">
<path d="M34.8332 19.6313V32.4647C34.8332 32.9509 34.64 33.4172 34.2962 33.761C33.9524 34.1049 33.4861 34.298 32.9998 34.298H10.9998C10.5136 34.298 10.0473 34.1049 9.70348 33.761C9.35966 33.4172 9.1665 32.9509 9.1665 32.4647V19.6313" stroke="#F4F5F4" stroke-width="1.5" stroke-linecap="round" stroke-linejoin="round"/>
<path d="M1.83337 17.7982L19.679 3.19749C20.334 2.66195 21.154 2.36938 22 2.36938C22.8461 2.36938 23.6661 2.66195 24.321 3.19749L42.1667 17.7982" stroke="#F4F5F4" stroke-width="1.5" stroke-linecap="round" stroke-linejoin="round"/>
<path d="M51.3333 15.9646H60.4999C63.4173 15.9646 66.2152 17.1235 68.2781 19.1864C70.341 21.2493 71.4999 24.0472 71.4999 26.9646V41.6313" stroke="#F4F5F4" stroke-width="1.5" stroke-linecap="round" stroke-linejoin="round"/>
<path d="M20.1665 43.4646V59.9646C20.1665 62.882 21.3254 65.6799 23.3883 67.7428C25.4512 69.8057 28.2491 70.9646 31.1665 70.9646H42.1665" stroke="#F4F5F4" stroke-width="1.5" stroke-linecap="round" stroke-linejoin="round"/>
<path d="M62.3333 32.4646L71.4999 41.6313L80.6666 32.4646" stroke="#F4F5F4" stroke-width="1.5" stroke-linecap="round" stroke-linejoin="round"/>
<path d="M29.3332 52.6313L20.1665 43.4646L10.9999 52.6313" stroke="#F4F5F4" stroke-width="1.5" stroke-linecap="round" stroke-linejoin="round"/>
<path d="M49.4999 67.2979C49.4999 72.1602 51.4314 76.8234 54.8696 80.2616C58.3078 83.6997 62.9709 85.6313 67.8332 85.6313C72.6955 85.6313 77.3587 83.6997 80.7968 80.2616C84.235 76.8234 86.1665 72.1602 86.1665 67.2979C86.1665 62.4356 84.235 57.7725 80.7968 54.3343C77.3587 50.8961 72.6955 48.9646 67.8332 48.9646C62.9709 48.9646 58.3078 50.8961 54.8696 54.3343C51.4314 57.7725 49.4999 62.4356 49.4999 67.2979V67.2979Z" stroke="#F4F5F4" stroke-width="1.5" stroke-linecap="round" stroke-linejoin="round"/>
<path d="M67.8333 74.6313V78.298" stroke="#F4F5F4" stroke-width="1.5" stroke-linecap="round" stroke-linejoin="round"/>
<path d="M67.8333 56.2981V59.9648" stroke="#F4F5F4" stroke-width="1.5" stroke-linecap="round" stroke-linejoin="round"/>
<path d="M60.4999 74.6313H71.4999C72.4723 74.6313 73.405 74.245 74.0926 73.5573C74.7802 72.8697 75.1665 71.9371 75.1665 70.9646C75.1665 69.9921 74.7802 69.0595 74.0926 68.3719C73.405 67.6842 72.4723 67.2979 71.4999 67.2979H64.1665C63.1941 67.2979 62.2615 66.9116 61.5738 66.224C60.8862 65.5364 60.4999 64.6037 60.4999 63.6313C60.4999 62.6588 60.8862 61.7262 61.5738 61.0385C62.2615 60.3509 63.1941 59.9646 64.1665 59.9646H75.1665" stroke="#F4F5F4" stroke-width="1.5" stroke-linecap="round" stroke-linejoin="round"/>
</svg>
